<svg xmlns="http://www.w3.org/2000/svg" width="276.348" height="124.583" viewBox="0 0 276.348 124.583">
  <g id="Сгруппировать_76389" data-name="Сгруппировать 76389" transform="matrix(0.97, 0.242, -0.242, 0.97, -5453.107, -1560.645)">
    <path id="Контур_41409" data-name="Контур 41409" d="M6826.634,313.531h0a3.876,3.876,0,0,0-1.274-2.5,2.6,2.6,0,0,0-1.974-.247l-2.864.363h0c-.374.076-.277,0-.382.368l-11.272.8-1.116-.344c.084-.021.168-.041.251-.063a12.814,12.814,0,0,0,9.145-15.746,13.011,13.011,0,0,0-11.157-9.54l-2.524-2.5.007,0,1.484-.938a1.623,1.623,0,0,0,.42-2.282,1.875,1.875,0,0,0-2.49-.449l-1.9,1.27c-.826-.611-2.2-.962-4.333.223l-9.232,5.971-2.754-2.147a3.044,3.044,0,0,1-1.131-2.9l1.1-7.652a1.063,1.063,0,0,0,.277-.091,9.375,9.375,0,0,0,.84-1.851l-.392,1.375a.912.912,0,0,0,.051-.166l.333-3.607h0c.277-1.448-.561-2.443-2.145-3.01l-.244-.067c-.85-.254-2.662.663-2.773,1.274l-.655,2.3-.3,1.673a.992.992,0,0,0,.209.819l-1.879,10.381a7.851,7.851,0,0,0,1.665,6.392l.636.772-12.081,6.723-.116.065c-.653.367-1.87,1.051-2.168,2.141a1.541,1.541,0,0,0,.007.779,17.006,17.006,0,0,0-3.258,1.816c-3.595,2.678-7.7,3.545-9.556,2.018-1.228-1.011-2.764-2.766-2.015-6.342a1.689,1.689,0,0,0,.834-.658,4.422,4.422,0,0,0-.1-5.053c-1.268-1.742-4.352-2.207-6.393-2.515l-.224-.034c-1.478-.225-3.512-.281-4.109,1.814a3.689,3.689,0,0,0,.254,2.9,4,4,0,0,0,2.264,1.732,20.767,20.767,0,0,0,3.755,16.672c2.292,3.035,5.706,4.743,10.145,5.078.546.041,1.09.06,1.629.06.813,0,1.611-.044,2.385-.116a11.311,11.311,0,0,1-2.932,2.009,7.427,7.427,0,0,1-1.4.507c-2.849.713-5.537-.34-8.213-3.219a1.667,1.667,0,0,0,.065-.787,4.424,4.424,0,0,0-3.467-3.677c-2.111-.439-4.707,1.288-6.425,2.43l-.189.126c-1.246.826-2.79,2.151-1.826,4.1a3.69,3.69,0,0,0,2.137,1.979,3.4,3.4,0,0,0,1.053.162,4.606,4.606,0,0,0,2.094-.545,20.526,20.526,0,0,0,5.849,7.75,18.152,18.152,0,0,0,7.737,3.307,14.855,14.855,0,0,0,2.96.291c7.031,0,12.247-3.826,19.861-11.358a1.748,1.748,0,0,0,1,.318,1.731,1.731,0,0,0,.851-.223l13.014-7.314,11.677,3.059a14.778,14.778,0,0,0,5.756.345l9.536-1.309a1.07,1.07,0,0,0,.173.192.949.949,0,0,0,.612.228.881.881,0,0,0,.174-.017l2.365-.373.033-.005A2.9,2.9,0,0,0,6826.634,313.531Zm-78.452,4.22h0Z" transform="translate(-879.003 -79.199)" fill="#141515"/>
    <g id="Сгруппировать_76387" data-name="Сгруппировать 76387" transform="translate(5684.348 214.728)">
      <path id="Контур_41410" data-name="Контур 41410" d="M5707.967,469.67c-7.78,0-15.59-2.676-23.322-8.005a.685.685,0,1,1,.776-1.129c10.391,7.158,20.9,9.378,31.228,6.6,24.735-6.663,40.682-39.9,40.839-40.24a.686.686,0,0,1,1.242.585c-.162.341-16.384,34.152-41.724,40.977A34.658,34.658,0,0,1,5707.967,469.67Z" transform="translate(-5684.348 -426.501)" fill="#f5f5f5"/>
    </g>
    <g id="Сгруппировать_76388" data-name="Сгруппировать 76388" transform="translate(5757.436 172.932)">
      <path id="Контур_41413" data-name="Контур 41413" d="M6318.288,233.843l0-.017a3.041,3.041,0,0,0-1.214-2.136,2.182,2.182,0,0,0-1.751-.387l-3.972.49-.025,0a.923.923,0,0,0-.586.4l-8.972.681a4.329,4.329,0,0,1-1.593-.182l-.346-.107a12.836,12.836,0,0,0,8.663-15.634,13.037,13.037,0,0,0-11.135-9.554l-2.53-2.5,1.45-.917a1.622,1.622,0,0,0,.42-2.282,1.875,1.875,0,0,0-2.49-.449l-1.845,1.236c-.8-.638-2.176-1.046-4.36.165l-2,1.2c-2.995-1.449-7.068-1.234-10.844.83a2.649,2.649,0,0,1-.024-.887l1.091-7.668a1.031,1.031,0,0,0,.139-.075.9.9,0,0,0,.367-.492h0a.856.856,0,0,0,.031-.162l.632-3.9,0-.028a3.217,3.217,0,0,0-2.636-3.19l-.018,0a3.042,3.042,0,0,0-2.391.564,2.183,2.183,0,0,0-.864,1.571l-.647,3.949,0,.026a.9.9,0,0,0,.087.466l-1.953,9.638a8.143,8.143,0,0,0,.021,3.323,16.781,16.781,0,0,0-3.537,3.153.724.724,0,0,0-.275.009c-13.653,3.384-19.977-.211-63.271-30.043-10.735-7.4-21.624-9.684-32.362-6.792-25.339,6.825-41.562,40.636-41.725,40.977a.686.686,0,0,0,.329.912.671.671,0,0,0,.292.066.686.686,0,0,0,.621-.393c.158-.335,16.107-33.577,40.842-40.24,10.328-2.781,20.834-.563,31.228,6.6,41.016,28.264,49.239,33.564,63.072,30.549a28.136,28.136,0,0,0-2.592,4.954l-2.278,1.268-.116.065c-.643.361-1.841,1.034-2.13,2.092a1.562,1.562,0,0,0,.048.882,18.666,18.666,0,0,0-2.029,1.063c-2.777-2.2-5.21-3.755-7.227-2.96-1.559.614-2.492,2.47-2.938,5.84a.289.289,0,0,0,0,.029,2.88,2.88,0,0,1-.409-.279,5.855,5.855,0,0,1-2.1-6.138,1.667,1.667,0,0,0,.823-.648,4.437,4.437,0,0,0-.1-5.067c-1.273-1.749-4.385-2.218-6.444-2.529l-.228-.034c-1.479-.225-3.516-.282-4.111,1.805a3.7,3.7,0,0,0,.252,2.9,4.011,4.011,0,0,0,2.254,1.73,20.686,20.686,0,0,0,3.862,16.805c2.278,3.015,5.671,4.713,10.085,5.046.544.041,1.086.06,1.624.06.756,0,1.5-.037,2.222-.1a9.515,9.515,0,0,1-2.733,1.82,7.524,7.524,0,0,1-1.412.513c-2.85.713-5.535-.317-8.2-3.146a1.641,1.641,0,0,0,.064-.778,4.432,4.432,0,0,0-3.474-3.686c-2.116-.44-4.736,1.3-6.471,2.453l-.191.127c-1.247.827-2.793,2.152-1.833,4.1a3.691,3.691,0,0,0,2.137,1.98,3.4,3.4,0,0,0,1.052.162,4.643,4.643,0,0,0,2.135-.564,20.571,20.571,0,0,0,5.89,7.861,18.066,18.066,0,0,0,7.7,3.292,14.763,14.763,0,0,0,2.943.29,18.711,18.711,0,0,0,10.975-3.684,7.116,7.116,0,0,0,1.982.271,11.458,11.458,0,0,0,8.892-5,9.635,9.635,0,0,0,1.677-3.911l10.8-6.069,11.818,3.1a15.322,15.322,0,0,0,6,.36l8.979-1.232a.888.888,0,0,0,.458.13.838.838,0,0,0,.165-.016l3.917-.491.027,0A3.218,3.218,0,0,0,6318.288,233.843Zm-10.44-16.71a12.171,12.171,0,0,1-8.688,14.959,12.261,12.261,0,1,1,8.688-14.959ZM6294.7,201.916a.967.967,0,0,1,1.3.238.856.856,0,0,1-.223,1.177l-1.466.926a.38.38,0,0,0-.076.062l-1.261-1.246Zm-6.373,1.312c1.587-.88,2.89-.913,3.759-.1l4.255,4.205c-.14,0-.281-.009-.421-.009a13.1,13.1,0,0,0-3.284.421,12.913,12.913,0,0,0-7.894,6.208l-1.613-1.967a9.4,9.4,0,0,0-1.213-1.209l-2.687-2.095,6.113-3.664a6.806,6.806,0,0,1,1.889,1.377,1.637,1.637,0,0,0,.106.958,1.6,1.6,0,0,0,1.478.974,1.65,1.65,0,0,0,.654-.134,1.61,1.61,0,0,0,.861-.881,1.627,1.627,0,0,0-.021-1.252,1.647,1.647,0,0,0-2.13-.841c-.043.018-.083.039-.125.06a7.693,7.693,0,0,0-1.378-1.063Zm-12.6,2.607a10.693,10.693,0,0,1,8.867-1.139l-5.926,3.551-2.543-1.983a2.616,2.616,0,0,1-.422-.416Zm-3.589-15.327,0-.035a1.533,1.533,0,0,1,.616-1.109,2.372,2.372,0,0,1,1.859-.434,2.562,2.562,0,0,1,2.122,2.483l-.632,3.9,0,.03a.162.162,0,0,1-.007.038.233.233,0,0,1-.1.126.388.388,0,0,1-.282.047l-3.916-.771a.357.357,0,0,1-.311-.322Zm-2.735,18.664a8.163,8.163,0,0,0,1.747,2.662l.271.275-7.85,4.369A20.612,20.612,0,0,1,6269.408,209.172Zm-11.683,12c.217-.792,1.258-1.376,1.817-1.691L6271.9,212.6l2.431,2.467a.352.352,0,0,1,.1.294.356.356,0,0,1-.172.259l-15.138,8.451-1.032-1.7A1.817,1.817,0,0,1,6257.725,221.168Zm-.325,1.313h0l-.062.04,1.542,2.419.2.328.008,0,1.131,1.775c-1.081-.806-2.158-1.692-3.194-2.545-.464-.381-.919-.755-1.367-1.116A18.255,18.255,0,0,1,6257.4,222.48ZM6246.3,226c.362-2.747,1.064-4.344,2.082-4.745,1.274-.5,3.331.79,5.533,2.5-2.7,1.929-5.645,2.846-7.713,2.518A.71.71,0,0,0,6246.3,226Zm-13.095-10.468a3,3,0,0,1-.191-2.389c.25-.872.844-1.712,3.37-1.328l.228.034c1.949.294,4.9.738,6.007,2.267a3.788,3.788,0,0,1,.067,4.319,1.043,1.043,0,0,1-.422.349l-.064-.057a5.623,5.623,0,0,0-1.738-1.134,9.371,9.371,0,0,0-3.479-.627,13.647,13.647,0,0,0-1.365.074c-.077.007-.163.016-.2.018A3.491,3.491,0,0,1,6233.208,215.53Zm7.087,19.642a6.228,6.228,0,0,1,5.153-.964,5.347,5.347,0,0,1,3.941,4.632A13.426,13.426,0,0,1,6240.3,235.172Zm-6.872,6.624a3.492,3.492,0,0,1-2.658.352,3,3,0,0,1-1.745-1.641c-.4-.813-.525-1.834,1.6-3.245l.193-.128c1.475-.981,3.626-2.412,5.391-2.412a2.839,2.839,0,0,1,.579.057,3.787,3.787,0,0,1,2.949,3.154,1.04,1.04,0,0,1-.079.541h-.086a5.633,5.633,0,0,0-2.048.328,10.3,10.3,0,0,0-3.959,2.843C6233.512,241.7,6233.454,241.766,6233.424,241.8Zm.821.094a9.4,9.4,0,0,1,3.509-2.462,5.026,5.026,0,0,1,1.816-.286,1.494,1.494,0,0,0,.351-.025c2.232,2.34,4.494,3.5,6.864,3.5a7.809,7.809,0,0,0,1.9-.242,8.171,8.171,0,0,0,1.534-.557,11.64,11.64,0,0,0,3.564-2.537,33.252,33.252,0,0,0,4.377-.871.33.33,0,0,0-.171-.637,29.061,29.061,0,0,1-7.524,1.1c-.14,0-.276,0-.414-.006-.1-.783-.771-4.432-4.457-5.3a6.8,6.8,0,0,0-5.76,1.125c-.212-.237-.4-.469-.571-.692a20.025,20.025,0,0,1-3.739-16.283l.153-.014a9.694,9.694,0,0,1,4.533.508,5.031,5.031,0,0,1,1.539,1.009l.041.037c-.79,4.262,1.539,6.18,2.318,6.822a4.6,4.6,0,0,0,2.977.919,13.229,13.229,0,0,0,7.366-2.824c.563.447,1.133.914,1.7,1.379a45.736,45.736,0,0,0,5.885,4.343l7.675,12.035a73.277,73.277,0,0,1-7.833,6.954,5,5,0,0,1-.732-.232.692.692,0,0,0-.894.376.684.684,0,0,0,.245.821,21.221,21.221,0,0,1-4.794,2.42,5.992,5.992,0,0,0-6.033-3.256,6.778,6.778,0,0,0-5,3.143C6240.9,250.9,6237.2,248.339,6234.245,241.891Zm13.227,11c-.713-.146-1.43-.316-2.146-.527a6.281,6.281,0,0,1,4.437-2.693,5.218,5.218,0,0,1,5.308,2.806,16.509,16.509,0,0,1-4.787.691A14.1,14.1,0,0,1,6247.472,252.887Zm23.542-8.268c-2.015,2.862-5.4,4.6-8.213,4.4a78.478,78.478,0,0,0,7.355-6.6,1.654,1.654,0,0,0,1.8.118l.184-.1A9.012,9.012,0,0,1,6271.014,244.619Zm1.474-10.742a1.65,1.65,0,0,0-1.509-.975,1.413,1.413,0,0,0-.623.134,1.7,1.7,0,0,0-.885.857,1.558,1.558,0,0,0-.025,1.275,1.607,1.607,0,0,0,1.481.975,1.656,1.656,0,0,0,.374-.044,6.837,6.837,0,0,1,1.1,5.435l-.763.429a1,1,0,0,1-1.332-.333l-7.093-11.123a8.324,8.324,0,0,0,3.3.871c.041,0,.081,0,.123,0a1.69,1.69,0,0,0,1.395.784,1.536,1.536,0,0,0,.606-.125,1.606,1.606,0,0,0,.86-.88,1.626,1.626,0,0,0-.021-1.252,1.685,1.685,0,0,0-2.134-.909,1.6,1.6,0,0,0-.9,1.009,10.054,10.054,0,0,1-4.8-1.959l-2.177-3.414,15.118-8.441a1.011,1.011,0,0,0,.222-1.589l-3.182-3.23a7.506,7.506,0,0,1-1.708-2.709.612.612,0,0,0,0-.513.749.749,0,0,0-.241-.294,7.484,7.484,0,0,1-.056-3.229l1.874-9.254a1.1,1.1,0,0,0,.184.053l3.875.763-1.071,7.515a3.324,3.324,0,0,0,1.243,3.079l5.789,4.512a8.767,8.767,0,0,1,1.089,1.084l1.81,2.208a12.834,12.834,0,0,0,5.527,17.088l-16.028,9.009a8.486,8.486,0,0,0-1.515-5.406,1.725,1.725,0,0,0,.1-.209A1.554,1.554,0,0,0,6272.488,233.877Zm29.846,4.354a14.66,14.66,0,0,1-5.74-.344l-11.158-2.923,5.222-2.935a12.811,12.811,0,0,0,5.306,1.151,12.952,12.952,0,0,0,2.641-.274l1.375.424a4.991,4.991,0,0,0,1.475.223c.121,0,.241,0,.361-.013l8.753-.664v.018l.363,3.977a1.1,1.1,0,0,0,.034.176Zm13.511-1.608-3.915.491-.03.005a.227.227,0,0,1-.187-.053.386.386,0,0,1-.125-.258l-.363-3.975a.357.357,0,0,1,.222-.388l3.972-.49.035-.006a1.531,1.531,0,0,1,1.238.278,2.373,2.373,0,0,1,.94,1.661A2.56,2.56,0,0,1,6315.845,236.623Z" transform="translate(-6127.758 -172.932)" fill="#fff"/>
      <path id="Контур_41414" data-name="Контур 41414" d="M6986.967,473.765a1.012,1.012,0,0,0,.787-.188l.962-.524.047-.031a1.022,1.022,0,0,0,.183-.194,1.59,1.59,0,0,0,1.072.57c.055,0,.116.007.18.007a1.587,1.587,0,0,0,.781-.181l2.379-1.393.016-.01a1.707,1.707,0,0,0,.725-1.078,1.629,1.629,0,0,0,.023-.488,1.019,1.019,0,0,0,.278-.06l2.347-1.287a1.016,1.016,0,0,0,.479-1.477l-5.9-9.819a1.009,1.009,0,0,0-.7-.46,1,1,0,0,0-.795.214l-9.419,5.73-.043.032a1.013,1.013,0,0,0-.206,1.3l6.123,8.877A1.016,1.016,0,0,0,6986.967,473.765Zm6.484-3.151a1.044,1.044,0,0,1-.436.653l-2.368,1.386a1.073,1.073,0,0,1-.58.088c-.452-.034-.751-.456-1.007-.907h0a1.076,1.076,0,0,0-.054-.116l-2.328-3.98a.15.15,0,0,1,.018-.077l3.872-2.15.044-.017,2.552,4.265a1,1,0,0,0,.2.239A.9.9,0,0,1,6993.451,470.614Zm-12.672-6.969,9.413-5.726.043-.031a.357.357,0,0,1,.528.072l5.9,9.82a.356.356,0,0,1-.173.522l-2.346,1.285a.346.346,0,0,1-.413-.161l-2.583-4.318-.009-.015a.626.626,0,0,0-.854-.177l-3.914,2.172a.747.747,0,0,0-.277.96l2.341,4a.355.355,0,0,1-.066.441l-.956.521-.05.033a.342.342,0,0,1-.283.071.358.358,0,0,1-.242-.166l-6.12-8.873A.355.355,0,0,1,6980.779,463.644Z" transform="translate(-6839.534 -410.294)" fill="#fff"/>
      <path id="Контур_41415" data-name="Контур 41415" d="M7035.761,523.963a1.25,1.25,0,0,0-.651.838,1.154,1.154,0,0,0,.162.948,1.338,1.338,0,0,0,1.152.705,1.352,1.352,0,0,0,.739-.235,1.475,1.475,0,0,0,.534-.791,1.224,1.224,0,0,0-.141-.98A1.346,1.346,0,0,0,7035.761,523.963Z" transform="translate(-6885.521 -465.966)" fill="#fff"/>
    </g>
    <g id="Эллипс_22" data-name="Эллипс 22" transform="translate(5914.315 214.128)" fill="#ffa918" stroke="#fff" stroke-width="0.6">
      <ellipse cx="11" cy="9.5" rx="11" ry="9.5" stroke="none"/>
      <ellipse cx="11" cy="9.5" rx="10.7" ry="9.2" fill="none"/>
    </g>
    <path id="Контур_41458" data-name="Контур 41458" d="M7148.115,488.82a.5.5,0,0,0,.169-.03c3.95-1.4,5.134-3.454,5.182-3.541a.69.69,0,0,0-.171-.879.53.53,0,0,0-.783.187c-.009.018-1.063,1.765-4.566,3.009a.66.66,0,0,0-.371.8A.579.579,0,0,0,7148.115,488.82Z" transform="translate(-1220.951 -258.054)" fill="#fff"/>
  </g>
</svg>
