<svg xmlns="http://www.w3.org/2000/svg" width="116.23" height="116.234" viewBox="0 0 116.23 116.234">
  <g id="Сгруппировать_76252" data-name="Сгруппировать 76252" transform="translate(0.5 0.5)">
    <path id="Контур_34876" data-name="Контур 34876" d="M0,57.615A57.618,57.618,0,0,1,57.619,0V32.712a24.905,24.905,0,0,0-24.907,24.9Z" transform="translate(0 0.004)" fill="#111011" stroke="#fff" stroke-width="1"/>
    <path id="Контур_34877" data-name="Контур 34877" d="M32.712,0A24.906,24.906,0,0,0,57.619,24.907V57.619A57.619,57.619,0,0,1,0,0Z" transform="translate(0 57.615)" fill="#111011" stroke="#fff" stroke-width="1"/>
    <path id="Контур_34878" data-name="Контур 34878" d="M57.611,0A57.612,57.612,0,0,1,0,57.619V24.907A24.9,24.9,0,0,0,24.9,0Z" transform="translate(57.619 57.615)" fill="#111011" stroke="#fff" stroke-width="1"/>
    <path id="Контур_34879" data-name="Контур 34879" d="M24.9,57.615A24.9,24.9,0,0,0,0,32.712V0A57.611,57.611,0,0,1,57.611,57.615Z" transform="translate(57.619)" fill="#111011" stroke="#fff" stroke-width="1"/>
  </g>
</svg>
