<svg xmlns="http://www.w3.org/2000/svg" width="55.393" height="55.395" viewBox="0 0 55.393 55.395">
  <g id="Сгруппировать_76253" data-name="Сгруппировать 76253" transform="translate(0.5 0.5)">
    <path id="Контур_34876" data-name="Контур 34876" d="M0,27.2A27.2,27.2,0,0,1,27.2,0V15.441A11.756,11.756,0,0,0,15.441,27.2Z" transform="translate(0 0.002)" fill="#fff" stroke="#111011" stroke-width="1"/>
    <path id="Контур_34877" data-name="Контур 34877" d="M15.441,0A11.757,11.757,0,0,0,27.2,11.757V27.2A27.2,27.2,0,0,1,0,0Z" transform="translate(0 27.196)" fill="#9e47d1" stroke="#111011" stroke-width="1"/>
    <path id="Контур_34878" data-name="Контур 34878" d="M27.195,0A27.2,27.2,0,0,1,0,27.2V11.757A11.754,11.754,0,0,0,11.753,0Z" transform="translate(27.198 27.196)" fill="#ffa918" stroke="#111011" stroke-width="1"/>
    <path id="Контур_34879" data-name="Контур 34879" d="M11.753,27.2A11.754,11.754,0,0,0,0,15.441V0A27.2,27.2,0,0,1,27.195,27.2Z" transform="translate(27.198 0)" fill="#127acc" stroke="#111011" stroke-width="1"/>
  </g>
</svg>
