<svg xmlns="http://www.w3.org/2000/svg" width="241.304" height="245.842" viewBox="0 0 241.304 245.842">
  <g id="Сгруппировать_76413" data-name="Сгруппировать 76413" transform="translate(3275.168 3368.058)">
    <path id="Контур_41437" data-name="Контур 41437" d="M-3168.56-3367.352a101.28,101.28,0,0,0-30.446,8.518,98.3,98.3,0,0,0-26.136,17.331h-.088l-.02.039h0l-.045.09a121.221,121.221,0,0,0-27.922,28.024c-1.27,1.777-2.511,3.62-3.691,5.479l.008.005a87.212,87.212,0,0,0-9.715,18.772,127.421,127.421,0,0,0-6.237,22.654,143.37,143.37,0,0,0-2.307,24.116,122.875,122.875,0,0,0,1.9,23.392h0a120.491,120.491,0,0,0,29.767,57.961,121.134,121.134,0,0,0,54.668,33.89l.051.016a120.531,120.531,0,0,0,42.3,4.557,121.163,121.163,0,0,0,32.255-6.688,120.284,120.284,0,0,0,28.322-14.544,121.5,121.5,0,0,0,14.252-11.592,121.826,121.826,0,0,0,16.89-19.859,121.172,121.172,0,0,0,12.308-23.13,120.26,120.26,0,0,0,7.082-25.663,121.015,121.015,0,0,0,1.5-19.05q0-4.2-.289-8.406a121.69,121.69,0,0,0-4.514-25.512,120.306,120.306,0,0,0-9.487-23.259A121.044,121.044,0,0,0-3062-3320.677a121.84,121.84,0,0,0-17.315-16.925,3.285,3.285,0,0,0,.525-1.5c.066-1.332-1.009-2.307-2.067-3.087a138.134,138.134,0,0,0-19.922-12.228,132.64,132.64,0,0,0-21.719-8.623,121.766,121.766,0,0,0-22.825-4.488A110.121,110.121,0,0,0-3168.56-3367.352Zm28.266,98.433a33.46,33.46,0,0,1,7.821,10.477,36.8,36.8,0,0,1,3.549,13.529q.092,1.326.091,2.641a35.171,35.171,0,0,1-7.125,21.535,27.915,27.915,0,0,1-20.281,11.233,27.914,27.914,0,0,1-21.63-8.348,35.491,35.491,0,0,1-10.281-22.984,36.1,36.1,0,0,1,4.336-20.066,31.983,31.983,0,0,1,5.9-7.666,28.537,28.537,0,0,1,7.794-5.31,26.8,26.8,0,0,1,4.662-1.637,26.6,26.6,0,0,1,4.016-.681c.212-.02.419-.037.613-.05A27.839,27.839,0,0,1-3140.294-3268.919Z" transform="translate(0 0)" fill="#111011"/>
    <g id="Сгруппировать_76412" data-name="Сгруппировать 76412" transform="translate(-3275.168 -3368.058)">
      <path id="Контур_41438" data-name="Контур 41438" d="M-2300.649-2339.091a35.172,35.172,0,0,0,7.125-21.534q0-1.314-.091-2.641a36.8,36.8,0,0,0-3.549-13.528,33.463,33.463,0,0,0-7.821-10.477,27.84,27.84,0,0,0-20.54-7.327c-.194.013-.4.03-.613.05a26.573,26.573,0,0,0-4.016.681,26.794,26.794,0,0,0-4.662,1.637,28.537,28.537,0,0,0-7.794,5.31,31.978,31.978,0,0,0-5.9,7.666,36.1,36.1,0,0,0-4.336,20.066,35.489,35.489,0,0,0,10.281,22.984,27.915,27.915,0,0,0,21.63,8.348A27.916,27.916,0,0,0-2300.649-2339.091Zm-41.365,2.33a34.714,34.714,0,0,1-10.05-22.481q-.089-1.289-.088-2.562c0-13.044,6.884-24.782,17.661-29.718a25.951,25.951,0,0,1,4.527-1.589,25.822,25.822,0,0,1,3.9-.662c.206-.019.406-.035.594-.048a27.066,27.066,0,0,1,19.967,7.13h0a34.8,34.8,0,0,1,11.112,23.478q.089,1.3.089,2.588a34.4,34.4,0,0,1-6.963,21.059,27.146,27.146,0,0,1-19.717,10.931A27.146,27.146,0,0,1-2342.014-2336.761Z" transform="translate(2439.86 2486.41)" fill="#fff"/>
      <path id="Контур_41439" data-name="Контур 41439" d="M-3034.153-3251.439a121.69,121.69,0,0,0-4.514-25.512,120.306,120.306,0,0,0-9.487-23.259A121.044,121.044,0,0,0-3062-3320.677a121.84,121.84,0,0,0-17.315-16.925,3.285,3.285,0,0,0,.525-1.5c.066-1.332-1.009-2.307-2.067-3.087a138.134,138.134,0,0,0-19.922-12.228,132.64,132.64,0,0,0-21.719-8.623,121.766,121.766,0,0,0-22.825-4.488,110.121,110.121,0,0,0-23.24.177,101.28,101.28,0,0,0-30.446,8.518,98.3,98.3,0,0,0-26.136,17.331h-.088l-.02.039h0l-.045.09a121.221,121.221,0,0,0-27.922,28.024c-1.27,1.777-2.511,3.62-3.691,5.479l.008.005a87.212,87.212,0,0,0-9.715,18.772,127.421,127.421,0,0,0-6.237,22.654,143.37,143.37,0,0,0-2.307,24.116,122.875,122.875,0,0,0,1.9,23.392h0a120.491,120.491,0,0,0,29.767,57.961,121.134,121.134,0,0,0,54.668,33.89l.051.016a120.531,120.531,0,0,0,42.3,4.557,121.163,121.163,0,0,0,32.255-6.688,120.284,120.284,0,0,0,28.322-14.544,121.5,121.5,0,0,0,14.252-11.592,121.826,121.826,0,0,0,16.89-19.859,121.172,121.172,0,0,0,12.308-23.13,120.26,120.26,0,0,0,7.082-25.663,121.015,121.015,0,0,0,1.5-19.05Q-3033.864-3247.234-3034.153-3251.439Zm-38.03,95.541a120.661,120.661,0,0,1-14.16,11.518,119.9,119.9,0,0,1-55.117,20.638c-1,.089-2.976.278-3.831.364q-.618.049-1.237.092a119.755,119.755,0,0,1-42.011-4.523l-.055-.017q-1.719-.5-3.413-1.057c-.877-.332-1.254-.427-2.042-.685a119.707,119.707,0,0,1-78.445-89.52l-.013,0a122.086,122.086,0,0,1-1.889-23.232,142.634,142.634,0,0,1,2.295-23.987,126.615,126.615,0,0,1,6.2-22.518,86.389,86.389,0,0,1,9.646-18.635l0,0,.058-.091.1-.137-.006,0c1.128-1.768,2.31-3.519,3.519-5.211a120.46,120.46,0,0,1,23.207-24.416c1.353-1.05,3.9-2.812,4.389-3.27l.249-.232h0l0,0,.01-.01a99.4,99.4,0,0,1,44.809-23.743l.061.054c.037-.011.075-.022.113-.031l-.056-.051a100.127,100.127,0,0,1,11.327-1.978,111.063,111.063,0,0,1,31.253.938l.027.04h.119l-.011-.018a129.364,129.364,0,0,1,39.744,13.875c.791.574,1.573,1.175,2.329,1.8l.152-.011c-.6-.5-1.208-.976-1.814-1.428a136.922,136.922,0,0,1,15.355,9.816c.892.657,1.8,1.461,1.751,2.422a3.182,3.182,0,0,1-.589,1.425l-.012.021a7.139,7.139,0,0,0-.53.972c-1.053,2.519.856,4.673,2.7,6.756,1.643,1.854,3.342,3.771,2.882,5.877-.335,1.533-1.685,2.537-3.114,3.6-1.491,1.108-3.033,2.254-3.411,4.093a4.229,4.229,0,0,0,.885,3.531c0,.015,0,.03.007.045.039.058.081.113.123.169,0-.018,0-.036-.007-.054a18.147,18.147,0,0,0,3.224,2.873,22.99,22.99,0,0,1,2.708,2.288,7.614,7.614,0,0,1,1.162,8.059,7.612,7.612,0,0,1-6.261,5.206c-5.613.44-9.78-4.776-13.457-9.378l-.223-.279a57.885,57.885,0,0,0-17.843-15.132,38.927,38.927,0,0,0-10.754-3.867,30.421,30.421,0,0,0-11.355-.086c-3.386.63-5.582,2.055-6.35,4.121-.837,2.249.2,4.447,1.193,6.572a13.523,13.523,0,0,1,1.492,4.4c.329,3.875-3.395,7.149-7.184,8.073a29.189,29.189,0,0,1-8.875.286c-1.082-.075-2.2-.152-3.3-.184a40.811,40.811,0,0,0-24.935,8,40.81,40.81,0,0,0-15.324,21.235c-.257.875-.493,1.783-.722,2.661-.895,3.437-1.819,6.99-4.217,9.518a9.82,9.82,0,0,1-5.412,2.821l.12-.066c-.075,0-.149.008-.224.009-.075.038-.15.075-.226.11a11.16,11.16,0,0,1-1.413.118,10.13,10.13,0,0,1-7.267-2.708c-1.864-1.816-3.033-4.352-4.163-6.8-1.524-3.307-3.1-6.726-6.406-8.354a8.817,8.817,0,0,0-6.2-.475,11.015,11.015,0,0,0-5.379,3.362c-2.488,2.863-3.735,7.057-3.511,11.81.048,1.033.16,2.076.269,3.086a24.773,24.773,0,0,1,.153,6.073c-.4,2.837-2.315,5.908-5.185,6.29a9.957,9.957,0,0,1-1.919,0,7.118,7.118,0,0,0-3,.241c-2.738,1.028-3,4.146-3.253,7.162-.241,2.872-.469,5.585-2.615,6.634a3.245,3.245,0,0,1-2.663.092c-2-.752-3.729-3.1-4.562-5.1a34.27,34.27,0,0,1-2.414-16.473l-.763-.191a35.057,35.057,0,0,0,2.458,16.964,12.036,12.036,0,0,0,3.173,4.433c.006.052.013.1.019.157a3.233,3.233,0,0,1,.516.354l.019.017-.015-.117a6.03,6.03,0,0,0,1.293.688,4,4,0,0,0,3.28-.121,4.161,4.161,0,0,0,1.368-1.06c.007.043.014.086.021.129.03-.025.058-.05.087-.076-.008-.051-.017-.1-.025-.154,1.215-1.525,1.409-3.846,1.6-6.108.243-2.9.473-5.642,2.75-6.5a6.438,6.438,0,0,1,2.677-.193,11.17,11.17,0,0,0,1.97.005l-.037.081.113-.012.039-.083a6.872,6.872,0,0,0,5.174-4.529c.058-.005.116-.008.174-.011.018-.034.038-.068.057-.1-.063,0-.126.006-.189.011a10.084,10.084,0,0,0,.626-2.321,19.425,19.425,0,0,0,.039-4.362l.044,0a.763.763,0,0,1-.029-.1l-.024,0c-.052-.606-.116-1.208-.18-1.8-.107-1-.218-2.031-.265-3.04a19.559,19.559,0,0,1,.54-5.746l.028-.011c.012-.04.023-.08.034-.12l-.031.012a13.338,13.338,0,0,1,2.75-5.4c2.756-3.171,7.335-4.332,10.65-2.7a7.952,7.952,0,0,1,1.022.6l-.025.065.086.048.021-.055c2.328,1.658,3.6,4.419,4.938,7.32a33.908,33.908,0,0,0,2.7,5.087l-.021.082c.024.043.047.087.067.132l.027-.109a12.867,12.867,0,0,0,1.55,1.843,10.3,10.3,0,0,0,4.4,2.493c0,.024-.009.049-.013.073l.094.026c0-.024.009-.049.013-.073a11.757,11.757,0,0,0,3.333.41,11.646,11.646,0,0,0,4.192-.86c-.005.023-.01.047-.015.07.036-.019.073-.035.111-.05l.014-.065a10.116,10.116,0,0,0,3.4-2.33c2.536-2.674,3.486-6.326,4.406-9.858.227-.872.462-1.774.716-2.638,4.948-16.86,21.925-29.187,39.489-28.675,1.083.031,2.194.108,3.268.182a29.779,29.779,0,0,0,9.113-.306,11.663,11.663,0,0,0,5.557-3.182,8.831,8.831,0,0,0,1.354-1.838l.191.016.051-.094-.192-.016a6.816,6.816,0,0,0,.815-3.781,14.081,14.081,0,0,0-1.563-4.661c-.972-2.071-1.891-4.027-1.168-5.969.844-2.268,3.6-3.223,5.762-3.626a28.923,28.923,0,0,1,8.94-.24c.015.031.032.062.048.093l.114.01-.046-.088c12.093,1.569,23.094,10.21,30.144,19.029l.223.279a45.384,45.384,0,0,0,6.146,6.713c2.671,2.2,5.281,3.167,7.98,2.956a8.382,8.382,0,0,0,6.928-5.7,10.043,10.043,0,0,0,.679-3.276l.031.042a.653.653,0,0,0,.016-.142l-.043-.06c0-.044,0-.089,0-.133a7.617,7.617,0,0,0-2.008-5.307,23.541,23.541,0,0,0-2.8-2.372c-2.28-1.739-4.435-3.382-3.941-5.787.318-1.548,1.675-2.556,3.113-3.624a13.032,13.032,0,0,0,2.5-2.212l.02.019.023-.015.01-.007h0l0,0,.021-.018.018-.018-.036-.035a4.449,4.449,0,0,0,.845-1.769c.544-2.492-1.288-4.561-3.06-6.561-.44-.5-.874-.986-1.263-1.473l.139.122a2.693,2.693,0,0,1-.149-.256c-.1-.084-.194-.17-.291-.254-1-1.334-1.593-2.661-1-4.076a4.4,4.4,0,0,1,.259-.507,120.449,120.449,0,0,1,44.788,85.543q.288,4.184.287,8.34A119.793,119.793,0,0,1-3072.183-3155.9Z" transform="translate(3275.168 3368.058)" fill="#fff"/>
      <path id="Контур_41440" data-name="Контур 41440" d="M-2897.521-3165.476a3.805,3.805,0,0,0-3.8-3.8,3.805,3.805,0,0,0-3.8,3.8,3.805,3.805,0,0,0,3.8,3.8A3.805,3.805,0,0,0-2897.521-3165.476Zm-7.212,0a3.415,3.415,0,0,1,3.411-3.411,3.415,3.415,0,0,1,3.411,3.411,3.415,3.415,0,0,1-3.411,3.411A3.415,3.415,0,0,1-2904.733-3165.476Z" transform="translate(2940.002 3188.014)" fill="#fff"/>
      <path id="Контур_41441" data-name="Контур 41441" d="M-1555.987-1421.118a3.805,3.805,0,0,0,3.8,3.8,3.805,3.805,0,0,0,3.8-3.8,3.805,3.805,0,0,0-3.8-3.8A3.805,3.805,0,0,0-1555.987-1421.118Zm7.212,0a3.415,3.415,0,0,1-3.411,3.411,3.415,3.415,0,0,1-3.411-3.411,3.415,3.415,0,0,1,3.411-3.411A3.415,3.415,0,0,1-1548.775-1421.118Z" transform="translate(1718.031 1608.072)" fill="#fff"/>
      <path id="Контур_41442" data-name="Контур 41442" d="M-1309.813-2166.3a3.805,3.805,0,0,0-3.8-3.8,3.805,3.805,0,0,0-3.8,3.8,3.805,3.805,0,0,0,3.8,3.8A3.805,3.805,0,0,0-1309.813-2166.3Zm-7.212,0a3.415,3.415,0,0,1,3.411-3.411,3.415,3.415,0,0,1,3.411,3.411,3.415,3.415,0,0,1-3.411,3.411A3.415,3.415,0,0,1-1317.025-2166.3Z" transform="translate(1501.946 2283.018)" fill="#fff"/>
      <path id="Контур_41443" data-name="Контур 41443" d="M-2866.5-849.316a3.805,3.805,0,0,0-3.8-3.8,3.805,3.805,0,0,0-3.8,3.8,3.805,3.805,0,0,0,3.8,3.8A3.805,3.805,0,0,0-2866.5-849.316Zm-7.212,0a3.415,3.415,0,0,1,3.411-3.411,3.415,3.415,0,0,1,3.411,3.411,3.415,3.415,0,0,1-3.411,3.411A3.415,3.415,0,0,1-2873.713-849.316Z" transform="translate(2911.906 1090.166)" fill="#fff"/>
      <path id="Контур_41444" data-name="Контур 41444" d="M-1428.571-2281.309a3.9,3.9,0,0,0,3.9,3.9,3.9,3.9,0,0,0,3.9-3.9,3.9,3.9,0,0,0-3.9-3.9A3.9,3.9,0,0,0-1428.571-2281.309Zm7.212,0a3.317,3.317,0,0,1-3.314,3.314,3.317,3.317,0,0,1-3.314-3.314,3.317,3.317,0,0,1,3.314-3.314A3.317,3.317,0,0,1-1421.359-2281.309Z" transform="translate(1602.624 2387.272)" fill="#fff"/>
      <path id="Контур_41445" data-name="Контур 41445" d="M-2521.526-1611.1a3.805,3.805,0,0,0-3.8-3.8,3.805,3.805,0,0,0-3.8,3.8,3.805,3.805,0,0,0,3.8,3.8A3.805,3.805,0,0,0-2521.526-1611.1Zm-7.212,0a3.415,3.415,0,0,1,3.411-3.411,3.415,3.415,0,0,1,3.411,3.411,3.415,3.415,0,0,1-3.411,3.411A3.415,3.415,0,0,1-2528.738-1611.1Z" transform="translate(2599.447 1780.148)" fill="#fff"/>
      <path id="Контур_41446" data-name="Контур 41446" d="M-2665.526-1629.1a3.805,3.805,0,0,0-3.8-3.8,3.805,3.805,0,0,0-3.8,3.8,3.805,3.805,0,0,0,3.8,3.8A3.805,3.805,0,0,0-2665.526-1629.1Zm-7.212,0a3.415,3.415,0,0,1,3.411-3.411,3.415,3.415,0,0,1,3.411,3.411,3.415,3.415,0,0,1-3.411,3.411A3.415,3.415,0,0,1-2672.738-1629.1Z" transform="translate(2729.874 1796.451)" fill="#fff"/>
      <path id="Контур_41447" data-name="Контур 41447" d="M-2800.526-2100.1a3.805,3.805,0,0,0-3.8-3.8,3.805,3.805,0,0,0-3.8,3.8,3.805,3.805,0,0,0,3.8,3.8A3.805,3.805,0,0,0-2800.526-2100.1Zm-7.212,0a3.415,3.415,0,0,1,3.411-3.411,3.415,3.415,0,0,1,3.411,3.411,3.415,3.415,0,0,1-3.411,3.411A3.415,3.415,0,0,1-2807.738-2100.1Z" transform="translate(2852.149 2223.057)" fill="#fff"/>
      <path id="Контур_41448" data-name="Контур 41448" d="M-1655.056-2701.907a3.805,3.805,0,0,0-3.8-3.8,3.805,3.805,0,0,0-3.8,3.8,3.805,3.805,0,0,0,3.8,3.8A3.805,3.805,0,0,0-1655.056-2701.907Zm-7.212,0a3.415,3.415,0,0,1,3.411-3.411,3.415,3.415,0,0,1,3.411,3.411,3.415,3.415,0,0,1-3.411,3.411A3.415,3.415,0,0,1-1662.268-2701.907Z" transform="translate(1814.647 2768.139)" fill="#fff"/>
      <path id="Контур_41449" data-name="Контур 41449" d="M-1795.583-1191.165a3.805,3.805,0,0,0-3.8-3.8,3.805,3.805,0,0,0-3.8,3.8,3.805,3.805,0,0,0,3.8,3.8A3.805,3.805,0,0,0-1795.583-1191.165Zm-7.212,0a3.415,3.415,0,0,1,3.411-3.411,3.415,3.415,0,0,1,3.411,3.411,3.415,3.415,0,0,1-3.411,3.411A3.415,3.415,0,0,1-1802.8-1191.165Z" transform="translate(1941.929 1399.794)" fill="#fff"/>
      <path id="Контур_41450" data-name="Контур 41450" d="M-1552.16-1207a3.805,3.805,0,0,0-3.8-3.8,3.805,3.805,0,0,0-3.8,3.8,3.805,3.805,0,0,0,3.8,3.8A3.805,3.805,0,0,0-1552.16-1207Zm-7.212,0a3.415,3.415,0,0,1,3.411-3.411,3.415,3.415,0,0,1,3.411,3.411,3.415,3.415,0,0,1-3.411,3.411A3.415,3.415,0,0,1-1559.372-1207Z" transform="translate(1721.45 1414.138)" fill="#fff"/>
    </g>
    <path id="Контур_41451" data-name="Контур 41451" d="M-3249.126-2266.141a10.819,10.819,0,0,0-2.341-2.009c-.044.274-.112.543-.171.814a10.029,10.029,0,0,1,1.924,1.706,13.335,13.335,0,0,1,2.75,5.4l-.032-.013c.011.04.022.08.034.12l.028.011a19.557,19.557,0,0,1,.54,5.746c-.025.535-.068,1.076-.119,1.615l.813-.335c.035-.415.065-.83.085-1.244C-3245.391-2259.084-3246.639-2263.279-3249.126-2266.141Z" transform="translate(-21.311 -996.235)" fill="#fff"/>
  </g>
</svg>
