<svg xmlns="http://www.w3.org/2000/svg" xmlns:xlink="http://www.w3.org/1999/xlink" width="242" height="598" viewBox="0 0 242 598">
  <defs>
    <clipPath id="clip-path">
      <rect id="Прямоугольник_9572" data-name="Прямоугольник 9572" width="598" height="242" transform="translate(0 686) rotate(-90)" fill="#127acc" stroke="#fff" stroke-width="1"/>
    </clipPath>
    <clipPath id="clip-path-2">
      <rect id="Mask" width="1920" height="282.465" fill="none"/>
    </clipPath>
  </defs>
  <g id="Группа_масок_2" data-name="Группа масок 2" transform="translate(0 -88)" clip-path="url(#clip-path)">
    <g id="Grid_Line" data-name="Grid Line" transform="translate(-4.465 1180.232) rotate(-90)">
      <g id="Masking">
        <g id="Сгруппировать_74822" data-name="Сгруппировать 74822" clip-path="url(#clip-path-2)">
          <rect id="Прямоугольник_9573" data-name="Прямоугольник 9573" width="900.494" height="0.588" transform="translate(1017.186 245.075) rotate(-63.449)" fill="#fff"/>
          <rect id="Прямоугольник_9574" data-name="Прямоугольник 9574" width="850.051" height="0.588" transform="translate(1213.368 245.061) rotate(-33.69)" fill="#fff"/>
          <rect id="Прямоугольник_9575" data-name="Прямоугольник 9575" width="0.588" height="805.517" transform="translate(918.771 -560.315)" fill="#fff"/>
          <rect id="Прямоугольник_9576" data-name="Прямоугольник 9576" width="327.985" height="0.588" transform="translate(1605.415 244.924) rotate(-15.932)" fill="#fff"/>
          <rect id="Прямоугольник_9577" data-name="Прямоугольник 9577" width="224.055" height="0.588" transform="translate(1703.432 244.908) rotate(-14.017)" fill="#fff"/>
          <rect id="Прямоугольник_9578" data-name="Прямоугольник 9578" width="550.738" height="0.588" transform="translate(1409.36 244.919) rotate(-21.781)" fill="#fff"/>
          <rect id="Прямоугольник_9579" data-name="Прямоугольник 9579" width="681.234" height="0.588" transform="translate(1311.386 245.03) rotate(-26.564)" fill="#fff"/>
          <rect id="Прямоугольник_9580" data-name="Прямоугольник 9580" width="435.722" height="0.588" transform="matrix(0.949, -0.316, 0.316, 0.949, 1507.42, 245.011)" fill="#fff"/>
          <rect id="Прямоугольник_9581" data-name="Прямоугольник 9581" width="0.588" height="327.6" transform="translate(-81.747 155.612) rotate(-74.077)" fill="#fff"/>
          <rect id="Прямоугольник_9582" data-name="Прямоугольник 9582" width="122.274" height="0.588" transform="matrix(0.976, -0.217, 0.217, 0.976, 1801.454, 244.923)" fill="#fff"/>
          <rect id="Прямоугольник_9583" data-name="Прямоугольник 9583" width="21.78" height="0.588" transform="translate(1899.469 244.909) rotate(-11.266)" fill="#fff"/>
          <rect id="Прямоугольник_9584" data-name="Прямоугольник 9584" width="0.588" height="435.316" transform="translate(-81.759 108.015) rotate(-71.592)" fill="#fff"/>
          <rect id="Прямоугольник_9585" data-name="Прямоугольник 9585" width="0.588" height="680.721" transform="translate(-81.797 -58.547) rotate(-63.474)" fill="#fff"/>
          <rect id="Прямоугольник_9586" data-name="Прямоугольник 9586" width="0.588" height="901.141" transform="matrix(0.894, -0.448, 0.448, 0.894, 417.177, -560.183)" fill="#fff"/>
          <rect id="Прямоугольник_9587" data-name="Прямоугольник 9587" width="0.588" height="223.681" transform="translate(-81.737 191.309) rotate(-75.983)" fill="#fff"/>
          <rect id="Прямоугольник_9588" data-name="Прямоугольник 9588" width="0.588" height="550.296" transform="translate(-81.775 41.388) rotate(-68.231)" fill="#fff"/>
          <rect id="Прямоугольник_9589" data-name="Прямоугольник 9589" width="0.588" height="849.313" transform="matrix(0.554, -0.833, 0.833, 0.554, -81.829, -225.064)" fill="#fff"/>
          <rect id="Прямоугольник_9590" data-name="Прямоугольник 9590" width="0.588" height="21.423" transform="translate(-81.724 241.294) rotate(-78.705)" fill="#fff"/>
          <rect id="Прямоугольник_9591" data-name="Прямоугольник 9591" width="0.588" height="121.914" transform="translate(-81.73 219.079) rotate(-77.489)" fill="#fff"/>
          <rect id="Прямоугольник_9592" data-name="Прямоугольник 9592" width="0.588" height="1140.385" transform="matrix(0.706, -0.708, 0.708, 0.706, -84.03, -560.106)" fill="#fff"/>
          <rect id="Прямоугольник_9593" data-name="Прямоугольник 9593" width="1139.361" height="0.588" transform="translate(1115.31 245.061) rotate(-45)" fill="#fff"/>
          <rect id="Прямоугольник_9594" data-name="Прямоугольник 9594" width="21.397" height="0.588" transform="translate(-82.151 641.18) rotate(-11.347)" fill="#fff"/>
          <rect id="Прямоугольник_9595" data-name="Прямоугольник 9595" width="121.9" height="0.588" transform="matrix(0.976, -0.217, 0.217, 0.976, -82.158, 663.448)" fill="#fff"/>
          <rect id="Прямоугольник_9596" data-name="Прямоугольник 9596" width="0.588" height="899.486" transform="translate(1016.76 637.392) rotate(-26.496)" fill="#fff"/>
          <rect id="Прямоугольник_9597" data-name="Прямоугольник 9597" width="0.588" height="681.559" transform="translate(1310.923 637.524) rotate(-63.395)" fill="#fff"/>
          <rect id="Прямоугольник_9598" data-name="Прямоугольник 9598" width="0.588" height="850.687" transform="matrix(0.555, -0.832, 0.832, 0.555, 1212.88, 637.506)" fill="#fff"/>
          <rect id="Прямоугольник_9599" data-name="Прямоугольник 9599" width="0.588" height="550.893" transform="translate(1408.966 637.534) rotate(-68.165)" fill="#fff"/>
          <rect id="Прямоугольник_9600" data-name="Прямоугольник 9600" width="0.588" height="435.792" transform="translate(1506.993 637.54) rotate(-71.537)" fill="#fff"/>
          <rect id="Прямоугольник_9601" data-name="Прямоугольник 9601" width="0.588" height="122.249" transform="matrix(0.217, -0.976, 0.976, 0.217, 1801.054, 637.548)" fill="#fff"/>
          <rect id="Прямоугольник_9602" data-name="Прямоугольник 9602" width="0.588" height="224.05" transform="translate(1703.036 637.546) rotate(-75.942)" fill="#fff"/>
          <rect id="Прямоугольник_9603" data-name="Прямоугольник 9603" width="0.588" height="805.012" transform="translate(918.368 637.261)" fill="#fff"/>
          <rect id="Прямоугольник_9604" data-name="Прямоугольник 9604" width="0.588" height="328.009" transform="translate(1605.015 637.543) rotate(-74.031)" fill="#fff"/>
          <rect id="Прямоугольник_9605" data-name="Прямоугольник 9605" width="0.588" height="21.734" transform="matrix(0.197, -0.98, 0.98, 0.197, 1899.08, 637.549)" fill="#fff"/>
          <rect id="Прямоугольник_9606" data-name="Прямоугольник 9606" width="223.695" height="0.588" transform="translate(-82.167 691.282) rotate(-14.048)" fill="#fff"/>
          <rect id="Прямоугольник_9607" data-name="Прямоугольник 9607" width="327.645" height="0.588" transform="translate(-82.173 727.089) rotate(-15.964)" fill="#fff"/>
          <rect id="Прямоугольник_9608" data-name="Прямоугольник 9608" width="849.978" height="0.588" transform="translate(-82.288 1108.694) rotate(-33.702)" fill="#fff"/>
          <rect id="Прямоугольник_9609" data-name="Прямоугольник 9609" width="435.408" height="0.588" transform="translate(-82.187 774.796) rotate(-18.452)" fill="#fff"/>
          <rect id="Прямоугольник_9610" data-name="Прямоугольник 9610" width="550.485" height="0.588" transform="translate(-82.231 841.537) rotate(-21.805)" fill="#fff"/>
          <rect id="Прямоугольник_9611" data-name="Прямоугольник 9611" width="681.064" height="0.588" transform="translate(-82.249 941.749) rotate(-26.577)" fill="#fff"/>
          <rect id="Прямоугольник_9612" data-name="Прямоугольник 9612" width="900.103" height="0.588" transform="translate(418.089 1442.155) rotate(-63.43)" fill="#fff"/>
          <rect id="Прямоугольник_9613" data-name="Прямоугольник 9613" width="1138.2" height="0.588" transform="translate(-81.965 1441.973) rotate(-45)" fill="#fff"/>
          <rect id="Прямоугольник_9614" data-name="Прямоугольник 9614" width="0.588" height="1137.226" transform="translate(1114.825 637.469) rotate(-44.938)" fill="#fff"/>
          <rect id="Прямоугольник_9615" data-name="Прямоугольник 9615" width="2002.541" height="0.588" transform="translate(-82.094 636.967)" fill="#fff"/>
          <rect id="Прямоугольник_9616" data-name="Прямоугольник 9616" width="1999.968" height="0.588" transform="translate(-81.666 1441.978)" fill="#fff"/>
          <rect id="Прямоугольник_9617" data-name="Прямоугольник 9617" width="2005.057" height="0.588" transform="translate(-83.822 -560.608)" fill="#fff"/>
          <rect id="Прямоугольник_9618" data-name="Прямоугольник 9618" width="2002.541" height="0.588" transform="translate(-82.094 755.182)" fill="#fff"/>
          <rect id="Прямоугольник_9619" data-name="Прямоугольник 9619" width="2002.541" height="0.588" transform="translate(-82.094 682.394)" fill="#fff"/>
          <rect id="Прямоугольник_9620" data-name="Прямоугольник 9620" width="2002.541" height="0.588" transform="translate(-82.094 697.245)" fill="#fff"/>
          <rect id="Прямоугольник_9621" data-name="Прямоугольник 9621" width="2002.541" height="0.588" transform="translate(-82.094 714.029)" fill="#fff"/>
          <rect id="Прямоугольник_9622" data-name="Прямоугольник 9622" width="2002.541" height="0.588" transform="translate(-82.094 657.325)" fill="#fff"/>
          <rect id="Прямоугольник_9623" data-name="Прямоугольник 9623" width="2002.541" height="0.588" transform="translate(-82.094 669.175)" fill="#fff"/>
          <rect id="Прямоугольник_9624" data-name="Прямоугольник 9624" width="2002.541" height="0.588" transform="translate(-82.094 1231.442)" fill="#fff"/>
          <rect id="Прямоугольник_9625" data-name="Прямоугольник 9625" width="2002.541" height="0.588" transform="translate(-82.094 780.785)" fill="#fff"/>
          <rect id="Прямоугольник_9626" data-name="Прямоугольник 9626" width="2002.541" height="0.588" transform="translate(-82.094 733.163)" fill="#fff"/>
          <rect id="Прямоугольник_9627" data-name="Прямоугольник 9627" width="2002.541" height="0.588" transform="translate(-82.094 646.651)" fill="#fff"/>
          <rect id="Прямоугольник_9628" data-name="Прямоугольник 9628" width="2002.541" height="0.588" transform="translate(-82.094 810.934)" fill="#fff"/>
          <rect id="Прямоугольник_9629" data-name="Прямоугольник 9629" width="2002.541" height="0.588" transform="translate(-82.094 846.94)" fill="#fff"/>
          <rect id="Прямоугольник_9630" data-name="Прямоугольник 9630" width="2002.541" height="0.588" transform="translate(-82.094 1105.583)" fill="#fff"/>
          <rect id="Прямоугольник_9631" data-name="Прямоугольник 9631" width="2002.541" height="0.588" transform="translate(-82.094 890.706)" fill="#fff"/>
          <rect id="Прямоугольник_9632" data-name="Прямоугольник 9632" width="2002.541" height="0.588" transform="translate(-82.094 945.03)" fill="#fff"/>
          <rect id="Прямоугольник_9633" data-name="Прямоугольник 9633" width="2002.541" height="0.588" transform="translate(-82.094 1014.282)" fill="#fff"/>
          <rect id="Прямоугольник_9634" data-name="Прямоугольник 9634" width="2002.551" height="0.588" transform="translate(-81.666 -222.436)" fill="#fff"/>
          <rect id="Прямоугольник_9635" data-name="Прямоугольник 9635" width="2002.551" height="0.588" transform="translate(-81.666 101.468)" fill="#fff"/>
          <rect id="Прямоугольник_9636" data-name="Прямоугольник 9636" width="2002.551" height="0.588" transform="translate(-81.666 -8.151)" fill="#fff"/>
          <rect id="Прямоугольник_9637" data-name="Прямоугольник 9637" width="2002.551" height="0.588" transform="translate(-81.666 -131.397)" fill="#fff"/>
          <rect id="Прямоугольник_9638" data-name="Прямоугольник 9638" width="2002.551" height="0.588" transform="translate(-81.666 -347.945)" fill="#fff"/>
          <rect id="Прямоугольник_9639" data-name="Прямоугольник 9639" width="2002.551" height="0.588" transform="translate(-81.666 -62.329)" fill="#fff"/>
          <rect id="Прямоугольник_9640" data-name="Прямоугольник 9640" width="2002.551" height="0.588" transform="translate(-81.666 35.499)" fill="#fff"/>
          <rect id="Прямоугольник_9641" data-name="Прямоугольник 9641" width="2002.551" height="0.588" transform="translate(-81.666 212.787)" fill="#fff"/>
          <rect id="Прямоугольник_9642" data-name="Прямоугольник 9642" width="2002.551" height="0.588" transform="translate(-81.666 184.795)" fill="#fff"/>
          <rect id="Прямоугольник_9643" data-name="Прямоугольник 9643" width="2002.551" height="0.588" transform="translate(-81.666 168.05)" fill="#fff"/>
          <rect id="Прямоугольник_9644" data-name="Прямоугольник 9644" width="2002.551" height="0.588" transform="translate(-81.666 199.607)" fill="#fff"/>
          <rect id="Прямоугольник_9645" data-name="Прямоугольник 9645" width="2002.551" height="0.588" transform="translate(-81.666 235.263)" fill="#fff"/>
          <rect id="Прямоугольник_9646" data-name="Прямоугольник 9646" width="2002.551" height="0.588" transform="translate(-81.666 224.608)" fill="#fff"/>
          <rect id="Прямоугольник_9647" data-name="Прямоугольник 9647" width="2002.551" height="0.588" transform="translate(-81.666 244.908)" fill="#fff"/>
          <rect id="Прямоугольник_9648" data-name="Прямоугольник 9648" width="2002.551" height="0.588" transform="translate(-81.666 127.003)" fill="#fff"/>
          <rect id="Прямоугольник_9649" data-name="Прямоугольник 9649" width="2002.551" height="0.588" transform="translate(-81.666 71.407)" fill="#fff"/>
          <rect id="Прямоугольник_9650" data-name="Прямоугольник 9650" width="2002.551" height="0.588" transform="translate(-81.666 148.964)" fill="#fff"/>
        </g>
      </g>
    </g>
  </g>
</svg>
