<svg xmlns="http://www.w3.org/2000/svg" width="81.981" height="67.615" viewBox="0 0 81.981 67.615">
  <g id="Сгруппировать_76411" data-name="Сгруппировать 76411" transform="translate(-5354.599 -1890.681)">
    <path id="Контур_41416" data-name="Контур 41416" d="M5595.646,2007.694a28.733,28.733,0,1,0,28.752,28.733A28.774,28.774,0,0,0,5595.646,2007.694Z" transform="translate(-193.965 -107.654)" fill="#ffa918"/>
    <g id="Сгруппировать_76391" data-name="Сгруппировать 76391" transform="translate(5372.536 1899.772)">
      <path id="Контур_41417" data-name="Контур 41417" d="M5585.791,2055.82a29.262,29.262,0,1,1,29.28-29.262A29.3,29.3,0,0,1,5585.791,2055.82Zm0-57.733a28.472,28.472,0,1,0,28.491,28.471A28.512,28.512,0,0,0,5585.791,1998.087Z" transform="translate(-5556.511 -1997.296)" fill="#f5f5f5"/>
    </g>
    <g id="Сгруппировать_76392" data-name="Сгруппировать 76392" transform="translate(5415.357 1925.682)">
      <path id="Контур_41418" data-name="Контур 41418" d="M6104.875,2324.054c-1.489,0-2.7-1.5-2.7-3.352s1.211-3.351,2.7-3.351,2.686,1.5,2.686,3.351S6106.356,2324.054,6104.875,2324.054Zm0-6.254a2.974,2.974,0,1,0,2.327,2.9A2.67,2.67,0,0,0,6104.875,2317.8Z" transform="translate(-6102.175 -2317.351)" fill="#f5f5f5"/>
    </g>
    <g id="Сгруппировать_76393" data-name="Сгруппировать 76393" transform="matrix(0.914, -0.407, 0.407, 0.914, 5408.849, 1946.478)">
      <path id="Контур_41419" data-name="Контур 41419" d="M6065.514,2556.1c-1.8,0-3.263-.877-3.263-1.955s1.464-1.955,3.263-1.955,3.288.877,3.288,1.955S6067.327,2556.1,6065.514,2556.1Zm0-3.544c-1.46,0-2.648.713-2.648,1.589s1.188,1.589,2.648,1.589,2.673-.713,2.673-1.589S6066.987,2552.559,6065.514,2552.559Z" transform="translate(-6062.251 -2552.193)" fill="#f5f5f5"/>
    </g>
    <g id="Сгруппировать_76394" data-name="Сгруппировать 76394" transform="translate(5392.776 1914.955)">
      <path id="Контур_41420" data-name="Контур 41420" d="M5857.492,2215.271a4.451,4.451,0,1,1,4.468-4.436A4.441,4.441,0,0,1,5857.492,2215.271Zm0-8.155a3.7,3.7,0,1,0,3.722,3.719A3.71,3.71,0,0,0,5857.492,2207.116Z" transform="translate(-5853.055 -2206.37)" fill="#f5f5f5"/>
    </g>
    <g id="Сгруппировать_76395" data-name="Сгруппировать 76395" transform="translate(5398.019 1930.622)">
      <path id="Контур_41421" data-name="Контур 41421" d="M5903.237,2396.03a2.348,2.348,0,1,1,2.357-2.339A2.351,2.351,0,0,1,5903.237,2396.03Zm0-4.255a1.907,1.907,0,1,0,1.917,1.916A1.919,1.919,0,0,0,5903.237,2391.775Z" transform="translate(-5900.879 -2391.334)" fill="#f5f5f5"/>
    </g>
    <g id="Сгруппировать_76396" data-name="Сгруппировать 76396" transform="translate(5402.437 1902.705)">
      <path id="Контур_41422" data-name="Контур 41422" d="M5988.3,2054.708a6.2,6.2,0,0,1-1.307-.142,4.992,4.992,0,0,1-3.128-2.016,2.281,2.281,0,0,1-.336-1.751c.289-1.243,1.637-2.048,3.434-2.048a6.184,6.184,0,0,1,1.3.142,4.989,4.989,0,0,1,3.128,2.017,2.279,2.279,0,0,1,.336,1.75C5991.477,2053.88,5990.1,2054.708,5988.3,2054.708Zm-1.338-5.167c-1.394,0-2.465.578-2.665,1.439a1.531,1.531,0,0,0,.24,1.153,4.25,4.25,0,0,0,2.628,1.661,5.4,5.4,0,0,0,1.135.123c1.412,0,2.48-.575,2.659-1.431a1.535,1.535,0,0,0-.238-1.161,4.248,4.248,0,0,0-2.627-1.661A5.376,5.376,0,0,0,5986.963,2049.541Z" transform="translate(-5983.474 -2048.75)" fill="#f5f5f5"/>
    </g>
    <g id="Сгруппировать_76397" data-name="Сгруппировать 76397" transform="translate(5389.776 1905.212) rotate(14)">
      <path id="Контур_41423" data-name="Контур 41423" d="M5792.429,2074.191a1.372,1.372,0,0,1-1.435-1.428,3.037,3.037,0,0,1,.934-2.065c.98-1,2.413-1.3,3.1-.631.709.709.479,2.078-.521,3.12A3.077,3.077,0,0,1,5792.429,2074.191Zm1.589-4.012a2.64,2.64,0,0,0-1.742.861,2.582,2.582,0,0,0-.795,1.716.97.97,0,0,0,.263.693.952.952,0,0,0,.685.253,2.586,2.586,0,0,0,1.728-.855c.8-.832,1.037-1.924.529-2.431A.94.94,0,0,0,5794.019,2070.179Z" transform="translate(-5790.994 -2069.71)" fill="#f5f5f5"/>
    </g>
    <g id="Сгруппировать_76398" data-name="Сгруппировать 76398" transform="translate(5378.376 1919.71) rotate(17)">
      <path id="Контур_41424" data-name="Контур 41424" d="M5618.454,2272.012c-.9,0-1.639-1.3-1.639-2.906s.734-2.888,1.639-2.888,1.629,1.3,1.629,2.888S5619.352,2272.012,5618.454,2272.012Zm0-5.309c-.753,0-1.365,1.078-1.365,2.4s.612,2.421,1.365,2.421,1.354-1.086,1.354-2.421S5619.2,2266.7,5618.454,2266.7Z" transform="translate(-5616.815 -2266.218)" fill="#f5f5f5"/>
    </g>
    <g id="Сгруппировать_76399" data-name="Сгруппировать 76399" transform="translate(5378.405 1940.69) rotate(-25)">
      <path id="Контур_41425" data-name="Контур 41425" d="M5657.752,2515.976c-1.017,0-1.843-1.11-1.843-2.476s.826-2.457,1.843-2.457,1.828,1.1,1.828,2.457S5658.76,2515.976,5657.752,2515.976Zm0-4.469c-.826,0-1.5.895-1.5,1.994s.672,2.012,1.5,2.012,1.483-.9,1.483-2.012S5658.569,2511.506,5657.752,2511.506Z" transform="translate(-5655.909 -2511.043)" fill="#f5f5f5"/>
    </g>
    <g id="Сгруппировать_76400" data-name="Сгруппировать 76400" transform="translate(5390.047 1950.215)">
      <path id="Контур_41426" data-name="Контур 41426" d="M5906.082,2664.963a3.542,3.542,0,0,1-.8-.092,2.964,2.964,0,0,1-1.853-1.185,1.373,1.373,0,0,1-.2-1.05,1.906,1.906,0,0,1,2.041-1.218,3.712,3.712,0,0,1,.773.084,2.969,2.969,0,0,1,1.858,1.2,1.355,1.355,0,0,1,.2,1.039A1.887,1.887,0,0,1,5906.082,2664.963Zm-.811-3.075c-.828,0-1.464.344-1.583.856a.926.926,0,0,0,.144.694,2.5,2.5,0,0,0,1.56.976,3.048,3.048,0,0,0,.69.081c.814,0,1.457-.353,1.563-.858a.915.915,0,0,0-.14-.689,2.528,2.528,0,0,0-1.561-.987A3.236,3.236,0,0,0,5905.271,2661.888Z" transform="translate(-5903.199 -2661.419)" fill="#f5f5f5"/>
    </g>
    <g id="Сгруппировать_76402" data-name="Сгруппировать 76402" transform="translate(5372.536 1951.988)">
      <path id="Контур_41428" data-name="Контур 41428" d="M5592.241,2699.5a.312.312,0,0,1-.261-.139l-1.518-2.245a.316.316,0,1,1,.523-.354l1.518,2.245a.316.316,0,0,1-.262.492Z" transform="translate(-5590.407 -2696.621)" fill="#f5f5f5"/>
    </g>
    <g id="Сгруппировать_76403" data-name="Сгруппировать 76403" transform="translate(5426.383 1890.681)">
      <path id="Контур_41429" data-name="Контур 41429" d="M6298.9,1892.356a.157.157,0,0,1-.157-.177l.049-.4-.44-.234a.158.158,0,0,1,.065-.3l.444-.025.072-.414a.16.16,0,0,1,.129-.129.151.151,0,0,1,.165.078l.237.42.471-.026a.185.185,0,0,1,.156.1.158.158,0,0,1-.045.18l-.3.256.238.357a.158.158,0,0,1-.012.193.162.162,0,0,1-.189.037l-.472-.236-.3.274A.157.157,0,0,1,6298.9,1892.356Zm.1-.822.035.019a.158.158,0,0,1,.083.159l-.011.08.063-.058a.161.161,0,0,1,.177-.025l.041.02a.158.158,0,0,1,.04-.189l.051-.043-.1.006a.16.16,0,0,1-.146-.08l-.068-.12-.017.1a.158.158,0,0,1-.147.131Z" transform="translate(-6298.27 -1890.68)" fill="#f5f5f5"/>
    </g>
    <g id="Сгруппировать_76404" data-name="Сгруппировать 76404" transform="translate(5427.642 1894.217)">
      <path id="Контур_41430" data-name="Контур 41430" d="M6316.939,1941.39a2.168,2.168,0,0,1-.323-.025,2.035,2.035,0,0,1-1.381-.791,2.126,2.126,0,0,1,1.993-3.378,2.138,2.138,0,0,1,1.383.831,2.044,2.044,0,0,1,.4,1.559A2.093,2.093,0,0,1,6316.939,1941.39Zm-.025-3.744a1.656,1.656,0,0,0-1.3,2.641,1.571,1.571,0,0,0,1.068.608,1.7,1.7,0,0,0,.258.021,1.621,1.621,0,0,0,1.6-1.4,1.574,1.574,0,0,0-.307-1.2,1.664,1.664,0,0,0-1.077-.648A1.594,1.594,0,0,0,6316.914,1937.646Z" transform="translate(-6314.813 -1937.174)" fill="#f5f5f5"/>
    </g>
    <g id="Сгруппировать_76405" data-name="Сгруппировать 76405" transform="translate(5415.911 1898.649)">
      <path id="Контур_41431" data-name="Контур 41431" d="M6162.249,1996.824a.317.317,0,0,1-.253-.126l-.374-.5-.5.4a.316.316,0,1,1-.393-.5l.759-.6a.315.315,0,0,1,.449.058l.569.758a.316.316,0,0,1-.252.506Z" transform="translate(-6160.604 -1995.433)" fill="#f5f5f5"/>
    </g>
    <g id="Сгруппировать_76406" data-name="Сгруппировать 76406" transform="translate(5434.348 1907.59)">
      <path id="Контур_41432" data-name="Контур 41432" d="M6404.147,2115.2a1.03,1.03,0,0,1-.222-.024,1.1,1.1,0,0,1-.942-1.24,1.136,1.136,0,0,1,1.274-.963,1.107,1.107,0,0,1,.934,1.275A1.073,1.073,0,0,1,6404.147,2115.2Zm.009-1.6a.513.513,0,0,0-.547.427.471.471,0,0,0,.428.529.584.584,0,0,0,.11.013.442.442,0,0,0,.418-.41.479.479,0,0,0-.4-.558Z" transform="translate(-6402.972 -2112.965)" fill="#f5f5f5"/>
    </g>
    <g id="Сгруппировать_76407" data-name="Сгруппировать 76407" transform="translate(5426.545 1895.029)">
      <path id="Контур_41433" data-name="Контур 41433" d="M6302.323,1950.3a2.418,2.418,0,0,1-1.839-.505.539.539,0,0,1-.054-.479c.151-.431.775-.741,1.272-.925l.165.445c-.65.24-.939.494-.991.637a.063.063,0,0,0,0,.062c.185.256,1.439.455,3.2.111,1.36-.272,2.117-.735,2.219-.976-.073-.174-.432-.322-1.2-.356l.021-.474c.87.04,1.389.21,1.583.522a.516.516,0,0,1,.035.493c-.254.6-1.54,1.051-2.562,1.256A9.928,9.928,0,0,1,6302.323,1950.3Z" transform="translate(-6300.397 -1947.839)" fill="#f5f5f5"/>
    </g>
    <g id="Сгруппировать_76408" data-name="Сгруппировать 76408" transform="translate(5354.599 1939.403)">
      <path id="Контур_41434" data-name="Контур 41434" d="M5355.2,2532.832a.162.162,0,0,1-.08-.022.157.157,0,0,1-.076-.166l.073-.391-.434-.23a.158.158,0,0,1,.065-.3l.445-.025.073-.384a.157.157,0,0,1,.127-.126.149.149,0,0,1,.164.074l.235.393.475-.026a.14.14,0,0,1,.155.1.155.155,0,0,1-.044.179l-.308.26.216.359a.157.157,0,0,1-.021.19.161.161,0,0,1-.189.031l-.443-.234-.33.278A.157.157,0,0,1,5355.2,2532.832Zm.135-.821.034.017a.158.158,0,0,1,.082.169l-.013.07.072-.061a.158.158,0,0,1,.176-.02l.037.02a.158.158,0,0,1,.04-.19l.05-.042-.1,0c-.045.021-.114-.025-.144-.076l-.07-.117-.019.1a.156.156,0,0,1-.146.128Z" transform="translate(-5354.599 -2531.188)" fill="#f5f5f5"/>
    </g>
    <g id="Сгруппировать_76409" data-name="Сгруппировать 76409" transform="translate(5365.631 1944.421)">
      <path id="Контур_41435" data-name="Контур 41435" d="M5500.741,2599.379a1.253,1.253,0,0,1-.167-.011,1.1,1.1,0,0,1-.932-1.247,1.115,1.115,0,0,1,1.276-.96,1.14,1.14,0,0,1,.932,1.274A1.1,1.1,0,0,1,5500.741,2599.379Zm.073-1.593a.511.511,0,0,0-.545.427.461.461,0,0,0,.4.527l.078.006a.469.469,0,0,0,.482-.4.5.5,0,0,0-.4-.56Z" transform="translate(-5499.63 -2597.147)" fill="#f5f5f5"/>
    </g>
    <g id="Сгруппировать_76410" data-name="Сгруппировать 76410" transform="translate(5363.394 1917.904)">
      <path id="Контур_41436" data-name="Контур 41436" d="M5470.847,2250.2a.163.163,0,0,1-.08-.022.157.157,0,0,1-.078-.156l.051-.4-.441-.233a.159.159,0,0,1,.065-.3l.469-.024.046-.375a.161.161,0,0,1,.125-.136.165.165,0,0,1,.168.074l.236.393.505-.027a.163.163,0,0,1,.155.1.158.158,0,0,1-.044.179l-.308.262.215.359a.159.159,0,0,1-.018.188.162.162,0,0,1-.185.037l-.451-.212-.334.257A.163.163,0,0,1,5470.847,2250.2Zm.106-.82.031.016a.158.158,0,0,1,.083.16l-.017.13.11-.086a.168.168,0,0,1,.164-.017l.068.033-.018-.029a.158.158,0,0,1,.034-.2l.053-.045-.132.008a.154.154,0,0,1-.145-.077l-.049-.083-.006.053a.159.159,0,0,1-.148.139Z" transform="translate(-5470.215 -2248.557)" fill="#f5f5f5"/>
    </g>
    <path id="Контур_41452" data-name="Контур 41452" d="M5903.237,2396.03a2.348,2.348,0,1,1,2.357-2.339A2.351,2.351,0,0,1,5903.237,2396.03Zm0-4.255a1.907,1.907,0,1,0,1.917,1.916A1.919,1.919,0,0,0,5903.237,2391.775Z" transform="translate(-502.86 -460.712)" fill="#f5f5f5"/>
    <g id="Контур_41453" data-name="Контур 41453" transform="matrix(0.875, -0.485, 0.485, 0.875, 5403.066, 1944.995)" fill="none">
      <path d="M6.253.206C10.119.206,14,2.015,14,4.5S11.741,9.485,7.875,9.485,0,6.985,0,4.5,2.387.206,6.253.206Z" stroke="none"/>
      <path d="M 6.252649784088135 0.4055728912353516 C 2.632369995117188 0.4055728912353516 0.1999998092651367 2.051002979278564 0.1999998092651367 4.500002861022949 C 0.1999998092651367 5.610413074493408 1.072629928588867 6.796873092651367 2.594149589538574 7.755152702331543 C 4.137630462646484 8.727272987365723 6.062290191650391 9.284812927246094 7.874619960784912 9.284812927246094 C 10.09628009796143 9.284812927246094 11.48233032226563 8.463872909545898 12.25387001037598 7.775182723999023 C 13.23645973205566 6.898113250732422 13.80000019073486 5.704362869262695 13.80000019073486 4.500002861022949 C 13.80000019073486 3.412743091583252 12.97718048095703 2.382082939147949 11.48312950134277 1.597892761230469 C 10.03946018218994 0.8401632308959961 8.133029937744141 0.4055728912353516 6.252649784088135 0.4055728912353516 M 6.252649784088135 0.2055730819702148 C 10.11865043640137 0.2055730819702148 14 2.01472282409668 14 4.500002861022949 C 14 6.985282897949219 11.74061012268066 9.48481273651123 7.874619960784912 9.48481273651123 C 4.00862979888916 9.48481273651123 0 6.985282897949219 0 4.500002861022949 C 0 2.01472282409668 2.386659622192383 0.2055730819702148 6.252649784088135 0.2055730819702148 Z" stroke="none" fill="#fff"/>
    </g>
    <g id="Контур_41454" data-name="Контур 41454" transform="matrix(0.875, -0.485, 0.485, 0.875, 5403.065, 1944.995)" fill="none">
      <path d="M6.253.206C10.119.206,14,2.015,14,4.5S11.741,9.485,7.875,9.485,0,6.985,0,4.5,2.387.206,6.253.206Z" stroke="none"/>
      <path d="M 6.252649784088135 0.4055728912353516 C 2.632369995117188 0.4055728912353516 0.1999998092651367 2.051002979278564 0.1999998092651367 4.500002861022949 C 0.1999998092651367 5.610413074493408 1.072629928588867 6.796873092651367 2.594149589538574 7.755152702331543 C 4.137630462646484 8.727272987365723 6.062290191650391 9.284812927246094 7.874619960784912 9.284812927246094 C 10.09628009796143 9.284812927246094 11.48233032226563 8.463872909545898 12.25387001037598 7.775182723999023 C 13.23645973205566 6.898113250732422 13.80000019073486 5.704362869262695 13.80000019073486 4.500002861022949 C 13.80000019073486 3.412743091583252 12.97718048095703 2.382082939147949 11.48312950134277 1.597892761230469 C 10.03946018218994 0.8401632308959961 8.133029937744141 0.4055728912353516 6.252649784088135 0.4055728912353516 M 6.252649784088135 0.2055730819702148 C 10.11865043640137 0.2055730819702148 14 2.01472282409668 14 4.500002861022949 C 14 6.985282897949219 11.74061012268066 9.48481273651123 7.874619960784912 9.48481273651123 C 4.00862979888916 9.48481273651123 0 6.985282897949219 0 4.500002861022949 C 0 2.01472282409668 2.386659622192383 0.2055730819702148 6.252649784088135 0.2055730819702148 Z" stroke="none" fill="#fff"/>
    </g>
    <g id="Контур_41455" data-name="Контур 41455" transform="translate(5414.682 1935.511) rotate(-104)" fill="none">
      <path d="M8.1.206c5.008,0,10.037,2.344,10.037,5.563S15.21,12.227,10.2,12.227,0,8.989,0,5.769,3.092.206,8.1.206Z" stroke="none"/>
      <path d="M 8.100382804870605 0.4055747985839844 C 3.374922752380371 0.4055747985839844 0.2000026702880859 2.560995101928711 0.2000026702880859 5.769054889678955 C 0.2000026702880859 7.228334903717041 1.340572357177734 8.783634185791016 3.329252243041992 10.03615474700928 C 5.338022232055664 11.30132484436035 7.842922210693359 12.02693462371826 10.20166206359863 12.02693462371826 C 13.09848213195801 12.02693462371826 14.90718269348145 10.95522499084473 15.91439247131348 10.05618476867676 C 17.19989204406738 8.908735275268555 17.93716239929199 7.346134662628174 17.93716239929199 5.769054889678955 C 17.93716239929199 4.337454795837402 16.85996246337891 2.983644485473633 14.90399265289307 1.957015037536621 C 13.0255126953125 0.9710550308227539 10.54569244384766 0.4055747985839844 8.100382804870605 0.4055747985839844 M 8.100382804870605 0.2055749893188477 C 13.10883235931396 0.2055749893188477 18.13716316223145 2.549345016479492 18.13716316223145 5.769054889678955 C 18.13716316223145 8.988764762878418 15.21010208129883 12.2269344329834 10.20166206359863 12.2269344329834 C 5.193222999572754 12.2269344329834 1.9073486328125e-06 8.988764762878418 1.9073486328125e-06 5.769054889678955 C 1.9073486328125e-06 2.549345016479492 3.09194278717041 0.2055749893188477 8.100382804870605 0.2055749893188477 Z" stroke="none" fill="#fff"/>
    </g>
    <g id="Контур_41456" data-name="Контур 41456" transform="translate(5384.914 1918.414) rotate(97)" fill="none">
      <path d="M6.253.206C10.119.206,14,1.724,14,3.811S11.741,8,7.875,8,0,5.9,0,3.811,2.387.206,6.253.206Z" stroke="none"/>
      <path d="M 6.252649784088135 0.4055733680725098 C 2.632369995117188 0.4055733680725098 0.1999998092651367 1.773993492126465 0.1999998092651367 3.810713291168213 C 0.1999998092651367 4.71177339553833 1.090109825134277 5.720353126525879 2.581049919128418 6.508663177490234 C 4.127699851989746 7.326423645019531 6.057129859924316 7.795433521270752 7.874619960784912 7.795433521270752 C 10.1042594909668 7.795433521270752 11.49394035339355 7.104793548583984 12.26712036132813 6.525413513183594 C 13.24129009246826 5.795433521270752 13.80000019073486 4.805963516235352 13.80000019073486 3.810713291168213 C 13.80000019073486 2.916623592376709 12.98155975341797 2.063603401184082 11.49542999267578 1.408773422241211 C 10.0485200881958 0.7712235450744629 8.137599945068359 0.4055733680725098 6.252649784088135 0.4055733680725098 M 6.252649784088135 0.205573558807373 C 10.11865043640137 0.205573558807373 14 1.724343299865723 14 3.810713291168213 C 14 5.897093772888184 11.74061012268066 7.995433330535889 7.874619960784912 7.995433330535889 C 4.00862979888916 7.995433330535889 0 5.897093772888184 0 3.810713291168213 C 0 1.724343299865723 2.386659622192383 0.205573558807373 6.252649784088135 0.205573558807373 Z" stroke="none" fill="#fff"/>
    </g>
    <g id="Контур_41457" data-name="Контур 41457" transform="translate(5389.622 1911.358)" fill="none">
      <path d="M9.816,0C15.237,0,18.4,3.582,18.4,8s-3.168,9-8.589,9S0,12.418,0,8,4.395,0,9.816,0Z" stroke="none"/>
      <path d="M 9.815628051757813 0.2000007629394531 C 4.513548851013184 0.2000007629394531 0.1999988555908203 3.699069976806641 0.1999988555908203 8 C 0.1999988555908203 10.11218070983887 1.225337982177734 12.30356979370117 3.013118743896484 14.01226997375488 C 4.894008636474609 15.80996990203857 7.309848785400391 16.79999923706055 9.815628051757813 16.79999923706055 C 12.93552780151367 16.79999923706055 14.89620876312256 15.29146003723145 15.99162864685059 14.02595996856689 C 17.39780807495117 12.40143966674805 18.20429801940918 10.20506000518799 18.20429801940918 8 C 18.20429801940918 5.842769622802734 17.42234802246094 3.884389877319336 16.00248908996582 2.48561954498291 C 14.48467826843262 0.9903507232666016 12.34529876708984 0.2000007629394531 9.815628051757813 0.2000007629394531 M 9.815628051757813 0 C 15.23664855957031 0 18.40429878234863 3.581720352172852 18.40429878234863 8 C 18.40429878234863 12.41827964782715 15.23664855957031 17 9.815628051757813 17 C 4.394608497619629 17 -1.9073486328125e-06 12.41827964782715 -1.9073486328125e-06 8 C -1.9073486328125e-06 3.581720352172852 4.394608497619629 0 9.815628051757813 0 Z" stroke="none" fill="#fff"/>
    </g>
  </g>
</svg>
