<svg xmlns="http://www.w3.org/2000/svg" width="116.234" height="116.23" viewBox="0 0 116.234 116.23">
  <g id="Сгруппировать_77005" data-name="Сгруппировать 77005" transform="translate(0.5 115.73) rotate(-90)">
    <path id="Контур_34876" data-name="Контур 34876" d="M314.372,299.025a57.618,57.618,0,0,0,57.619,57.615V323.928a24.905,24.905,0,0,1-24.907-24.9Z" transform="translate(-314.372 -241.41)" fill="#9e47d1" stroke="#111011" stroke-width="1"/>
    <path id="Контур_34877" data-name="Контур 34877" d="M347.084,342.339a24.906,24.906,0,0,1,24.907-24.907V284.72a57.619,57.619,0,0,0-57.619,57.619Z" transform="translate(-314.372 -284.72)" fill="#fff" stroke="#111011" stroke-width="1"/>
    <path id="Контур_34878" data-name="Контур 34878" d="M386.289,342.339a57.612,57.612,0,0,0-57.611-57.619v32.712a24.9,24.9,0,0,1,24.9,24.907Z" transform="translate(-271.059 -284.72)" fill="#127acc" stroke="#111011" stroke-width="1"/>
    <path id="Контур_34879" data-name="Контур 34879" d="M353.577,299.026a24.9,24.9,0,0,1-24.9,24.9v32.712a57.611,57.611,0,0,0,57.611-57.615Z" transform="translate(-271.059 -241.407)" fill="#ffa918" stroke="#111011" stroke-width="1"/>
  </g>
</svg>
