<svg xmlns="http://www.w3.org/2000/svg" width="191.214" height="191.208" viewBox="0 0 191.214 191.208">
  <g id="Сгруппировать_77004" data-name="Сгруппировать 77004" transform="translate(0.5 190.708) rotate(-90)">
    <path id="Контур_41760" data-name="Контур 41760" d="M314.372,299.025a95.109,95.109,0,0,0,95.11,95.1v-54a41.11,41.11,0,0,1-41.113-41.106Z" transform="translate(-314.372 -203.921)" fill="#111011" stroke="#fff" stroke-width="1"/>
    <path id="Контур_41761" data-name="Контур 41761" d="M368.369,379.831a41.112,41.112,0,0,1,41.113-41.113v-54a95.11,95.11,0,0,0-95.11,95.111Z" transform="translate(-314.372 -284.72)" fill="#111011" stroke="#fff" stroke-width="1"/>
    <path id="Контур_41762" data-name="Контур 41762" d="M423.775,379.831a95.1,95.1,0,0,0-95.1-95.111v54a41.1,41.1,0,0,1,41.1,41.113Z" transform="translate(-233.568 -284.72)" fill="#111011" stroke="#fff" stroke-width="1"/>
    <path id="Контур_41763" data-name="Контур 41763" d="M369.778,299.026a41.1,41.1,0,0,1-41.1,41.107v54a95.1,95.1,0,0,0,95.1-95.1Z" transform="translate(-233.568 -203.916)" fill="#111011" stroke="#fff" stroke-width="1"/>
  </g>
</svg>
