<svg xmlns="http://www.w3.org/2000/svg" width="113.414" height="92.223" viewBox="0 0 113.414 92.223">
  <g id="Сгруппировать_76365" data-name="Сгруппировать 76365" transform="translate(-6019.623 -3022.757)">
    <path id="Контур_41328" data-name="Контур 41328" d="M6132.923,3057.229c-.024-.28-.048-.57-.073-.869-.687-8.221-1.964-23.524-18.536-30.574-6.468-2.751-13.778-2.095-21.728,1.948-7.763,3.948-14.117,10.164-17.426,13.785-.364-.649-.968-1.648-1.96-3.14-1.847-2.782-9.914-11.78-18.194-14.608a22.885,22.885,0,0,0-11.347-.484c-5.7,1.47-9.976,3.441-13.443,6.2l-.054.042a26.483,26.483,0,0,0-5.169,5.482c-.442.632-.867,1.3-1.262,1.992a26.037,26.037,0,0,0-2.207,5.1c-2.137,6.84-2.492,15.663-.973,24.206.143.8.3,1.593.468,2.355.243,1.115.52,2.228.82,3.3.218.787.468,1.612.74,2.451.4,1.221.843,2.447,1.324,3.644.221.554.454,1.11.693,1.651.214.493.446,1,.708,1.552.294.617.579,1.187.866,1.738.118.231.244.469.384.729.336.624.693,1.254,1.06,1.872.54.913,1.116,1.82,1.71,2.7.723,1.063,1.48,2.094,2.251,3.062a49.016,49.016,0,0,0,4.348,4.791v0l.208.2c.363.346.746.7,1.137,1.05.345.308.7.618,1.052.923,1.3,1.121,2.667,2.212,4.053,3.242.074.056.148.11.222.163a71.836,71.836,0,0,0,7.167,4.646c1.77,1,3.6,1.935,5.429,2.772,1.159.53,2.34,1.032,3.509,1.49.712.28,1.443.554,2.174.813.5.175.939.327,1.353.463a51.971,51.971,0,0,0,10.857,2.481,33.9,33.9,0,0,0,6.746.583,47.747,47.747,0,0,0,5.756-.354,49.293,49.293,0,0,0,12.645-3.291,52.75,52.75,0,0,0,14.259-8.736,59.452,59.452,0,0,0,12.777-15.081,56.722,56.722,0,0,0,6.117-14.834A47.926,47.926,0,0,0,6132.923,3057.229Zm-86.681,14.084c-5.62-6.3-8.705-14.5-7.676-20.4a7.667,7.667,0,0,1,4.19-5.681c2.626-1.275,5.922-1.041,9.042.641,6.061,3.267,10.1,13.547,10.48,14.553a73.149,73.149,0,0,0-5.14,12.635c-.527,1.763-1.253,4.031-2.031,6.453A49,49,0,0,1,6046.243,3071.313Zm29.3,19.1c-.64-.31-1.291-.663-1.933-1.05a15.377,15.377,0,0,0-6.442-2.066c.084-.4.166-.789.246-1.173.6-2.9,1.123-5.409,2.206-7.208.836-1.389,2.058-3.18,3.469-5.178,1.217,1.531,3.774,5.865,6.469,10.433.863,1.462,1.755,2.974,2.643,4.462.8,1.348,1.529,2.547,2.188,3.624A16.455,16.455,0,0,1,6075.547,3090.409Zm35.492-33.188c-1.261,9.361-6.814,19.894-7.97,22.008-.984-1.2-1.879-2.225-2.7-3.163a47.493,47.493,0,0,1-5.18-6.737c-1.774-2.852-4.5-6.489-6.691-9.412-1.334-1.78-2.6-3.471-2.961-4.088,5.084-7.559,12.569-13.2,17.865-13.443a6.692,6.692,0,0,1,5.521,2.043C6111.112,3046.821,6111.844,3051.244,6111.039,3057.221Z" fill="#111011"/>
    <g id="Сгруппировать_76311" data-name="Сгруппировать 76311" transform="translate(6019.623 3022.757)">
      <g id="Сгруппировать_76280" data-name="Сгруппировать 76280" transform="translate(0 0)">
        <path id="Контур_41329" data-name="Контур 41329" d="M6079.827,3114.98a33.9,33.9,0,0,1-6.746-.583,51.971,51.971,0,0,1-10.857-2.481c-.414-.136-.856-.287-1.353-.463-.731-.259-1.462-.533-2.174-.813-1.169-.458-2.35-.96-3.509-1.49-1.833-.837-3.659-1.769-5.429-2.772a71.836,71.836,0,0,1-7.167-4.646c-.073-.053-.147-.107-.222-.163-1.385-1.03-2.75-2.121-4.053-3.242-.354-.305-.708-.616-1.052-.923-.392-.352-.774-.7-1.137-1.05l-.208-.2v0a49.016,49.016,0,0,1-4.348-4.791c-.771-.968-1.528-2-2.251-3.062-.595-.875-1.17-1.782-1.71-2.7-.366-.618-.723-1.248-1.06-1.872-.14-.26-.266-.5-.384-.729-.287-.551-.572-1.121-.866-1.738-.262-.551-.494-1.059-.708-1.552-.239-.541-.472-1.1-.693-1.651-.481-1.2-.926-2.423-1.324-3.644-.272-.839-.521-1.664-.74-2.451-.3-1.077-.577-2.19-.82-3.3-.168-.763-.325-1.556-.468-2.355-1.519-8.543-1.165-17.366.973-24.206a26.037,26.037,0,0,1,2.207-5.1c.4-.691.819-1.361,1.262-1.992a26.483,26.483,0,0,1,5.169-5.482l.054-.042c3.467-2.76,7.742-4.731,13.443-6.2a22.885,22.885,0,0,1,11.347.484c8.28,2.828,16.347,11.825,18.194,14.608.992,1.492,1.6,2.49,1.96,3.14,3.309-3.621,9.663-9.837,17.426-13.785,7.95-4.043,15.26-4.7,21.728-1.948,16.572,7.05,17.849,22.353,18.536,30.574.025.3.049.589.073.869a47.926,47.926,0,0,1-1.543,15.456,56.722,56.722,0,0,1-6.117,14.834,59.452,59.452,0,0,1-12.777,15.081,52.75,52.75,0,0,1-14.259,8.736,49.3,49.3,0,0,1-12.645,3.291A47.747,47.747,0,0,1,6079.827,3114.98Zm-42.937-19.009c.294.277.6.557.911.836.34.3.69.612,1.041.914,1.288,1.109,2.637,2.188,4.009,3.208l.214.158a71.111,71.111,0,0,0,7.09,4.6c1.75.991,3.555,1.913,5.366,2.74,1.146.524,2.314,1.02,3.469,1.473.7.277,1.427.548,2.149.8.489.173.926.323,1.335.457a50.645,50.645,0,0,0,10.7,2.446l.057.009a40.018,40.018,0,0,0,12.293.217,50.17,50.17,0,0,0,26.448-11.838,57.08,57.08,0,0,0,18.636-29.5,47.079,47.079,0,0,0,1.522-15.191q-.037-.421-.074-.871c-.672-8.054-1.923-23.045-18.052-29.906-16.3-6.933-33.686,10.456-38.626,15.951a65.663,65.663,0,0,0-4.626,5.737c-6.3,8.878-10.38,16.848-12.843,25.083-.575,1.922-1.382,4.433-2.236,7.092-2.076,6.461-4.429,13.784-4.944,17.151a6.585,6.585,0,0,0-.068,1.311v0l.006.1a5.039,5.039,0,0,0,1.792,3.723,3.487,3.487,0,0,0,2.146.706h.089c1.7-.03,3.683-1.119,5.724-3.152a18.171,18.171,0,0,0,3.986-6.145,45.911,45.911,0,0,0,2.233-8.127c.593-2.85,1.151-5.542,2.3-7.457,1.433-2.379,3.961-5.893,6.639-9.614,2.893-4.021,6.173-8.579,8.645-12.506.161-.254.335-.527.52-.8a41.467,41.467,0,0,1,8.854-9.615c3.523-2.73,6.9-4.243,9.768-4.375a7.456,7.456,0,0,1,6.146,2.3c2.355,2.572,3.158,7.219,2.321,13.438-1.424,10.566-8.211,22.559-8.279,22.679l-.693-.4c.068-.119,6.778-11.98,8.181-22.39.8-5.977.073-10.4-2.118-12.792a6.692,6.692,0,0,0-5.521-2.043c-5.341.245-12.908,5.979-17.994,13.634-.18.27-.351.538-.509.787-2.485,3.947-5.771,8.515-8.672,12.546-2.667,3.707-5.187,7.208-6.6,9.559-1.083,1.8-1.6,4.305-2.206,7.208a46.593,46.593,0,0,1-2.276,8.267,18.968,18.968,0,0,1-4.161,6.408c-2.2,2.19-4.376,3.361-6.3,3.385h-.02c-.027,0-.054,0-.08,0a4.267,4.267,0,0,1-2.6-.867,5.755,5.755,0,0,1-2.106-4.284l0,0,0-.069a7.42,7.42,0,0,1,.073-1.543c.525-3.43,2.888-10.785,4.973-17.275.854-2.655,1.658-5.162,2.231-7.076,2.488-8.321,6.605-16.366,12.957-25.316a66.12,66.12,0,0,1,4.5-5.6c-.3-.557-.911-1.6-2.06-3.325a45.321,45.321,0,0,0-6.521-7.095c-2.733-2.462-6.906-5.709-11.267-7.2a21.972,21.972,0,0,0-10.889-.467c-5.617,1.448-9.811,3.384-13.2,6.092l-.053.042a25.643,25.643,0,0,0-4.963,5.276c-.429.612-.84,1.261-1.223,1.929a25.247,25.247,0,0,0-2.139,4.941c-2.1,6.722-2.446,15.407-.948,23.828.14.79.3,1.572.46,2.324.241,1.1.514,2.2.81,3.262.216.777.461,1.59.73,2.418.392,1.2.832,2.413,1.306,3.594.217.546.448,1.093.683,1.628.212.486.44.986.7,1.529.29.608.569,1.169.854,1.714.118.229.24.462.377.717.332.614.682,1.235,1.044,1.844.532.9,1.1,1.792,1.684,2.654.712,1.047,1.457,2.061,2.216,3.014a48.224,48.224,0,0,0,4.48,4.908l.208.2Z" transform="translate(-6019.623 -3022.757)" fill="#fff"/>
      </g>
      <g id="Сгруппировать_76281" data-name="Сгруппировать 76281" transform="translate(53.162 32.893)">
        <path id="Контур_41330" data-name="Контур 41330" d="M6580.942,3400.5a13.588,13.588,0,0,1-2.272-.2,21.242,21.242,0,0,1-13.64-9.448c-.965-1.531-2.084-3.366-3.421-5.608-.888-1.488-1.78-3-2.643-4.462-2.947-5-5.732-9.716-6.776-10.789l.572-.557c1.111,1.142,3.79,5.683,6.893,10.94.861,1.461,1.754,2.973,2.64,4.459,1.334,2.236,2.449,4.065,3.411,5.591a20.408,20.408,0,0,0,13.1,9.087,9.544,9.544,0,0,0,7.755-1.651c5.859-4.669,2.027-12.536-2.219-18.314-.317-.43-.65-.874-1.019-1.356-1.573-2.045-2.94-3.607-4.146-4.985a48.132,48.132,0,0,1-5.258-6.84c-1.757-2.823-4.471-6.445-6.653-9.355a40.44,40.44,0,0,1-3.154-4.451.719.719,0,0,1-.049-.2l.8-.053a.231.231,0,0,0-.007-.042l0,.011a52.35,52.35,0,0,0,3.048,4.257c2.19,2.923,4.917,6.561,6.691,9.412a47.51,47.51,0,0,0,5.181,6.736c1.215,1.387,2.591,2.959,4.18,5.025.372.487.708.935,1.027,1.369a27.591,27.591,0,0,1,5.081,10.123c.833,3.91-.179,7.035-3.008,9.288A9.6,9.6,0,0,1,6580.942,3400.5Z" transform="translate(-6552.19 -3352.27)" fill="#fff"/>
      </g>
      <g id="Сгруппировать_76282" data-name="Сгруппировать 76282" transform="translate(17.952 20.866)">
        <path id="Контур_41331" data-name="Контур 41331" d="M6216.973,3268.607c-.145-.082-3.623-2.077-9.441-8.6-5.773-6.474-8.935-14.94-7.866-21.067a8.454,8.454,0,0,1,4.629-6.262c2.86-1.388,6.421-1.149,9.77.657,2.785,1.5,5.465,4.5,7.963,8.9a46.647,46.647,0,0,1,2.919,6.158l-.75.275c-.041-.112-4.167-11.213-10.511-14.633-3.12-1.682-6.416-1.916-9.042-.641a7.665,7.665,0,0,0-4.19,5.681c-1.029,5.9,2.056,14.1,7.676,20.4,5.713,6.406,9.2,8.416,9.237,8.436Z" transform="translate(-6199.459 -3231.785)" fill="#fff"/>
      </g>
      <g id="Сгруппировать_76283" data-name="Сгруппировать 76283" transform="translate(47.08 64.511)">
        <path id="Контур_41332" data-name="Контур 41332" d="M6507.642,3674.864a18.016,18.016,0,0,1-7.883-1.988c-.662-.321-1.333-.686-2-1.084a14.624,14.624,0,0,0-6.5-1.978l.014-.8a15.173,15.173,0,0,1,6.9,2.093c.643.386,1.292.74,1.933,1.049a16.128,16.128,0,0,0,9.44,1.771l.115.791A13.934,13.934,0,0,1,6507.642,3674.864Z" transform="translate(-6491.262 -3669.015)" fill="#fff"/>
      </g>
      <g id="Сгруппировать_76284" data-name="Сгруппировать 76284" transform="translate(17.762 5.65)">
        <path id="Контур_41333" data-name="Контур 41333" d="M6222.109,3109.283l-.388-.1c1.786-7.2,1.082-14.18-1.93-19.145-2.72-4.482-7.676-7.852-13.955-9.489-5.056-1.318-7.675-.693-7.865-.222-.051.127.157.3.37.42a16.318,16.318,0,0,0,1.723.742,36.172,36.172,0,0,1,12.78,8,21.724,21.724,0,0,1,5.676,9.441,17.673,17.673,0,0,1,.779,4.682l-.4,0a17.7,17.7,0,0,0-.768-4.582,21.328,21.328,0,0,0-5.567-9.252,35.8,35.8,0,0,0-12.649-7.912,16.552,16.552,0,0,1-1.771-.766c-.648-.365-.619-.731-.544-.917.383-.952,3.68-1.228,8.335-.015,6.381,1.663,11.422,5.1,14.2,9.668a21.266,21.266,0,0,1,2.783,8.448A30.652,30.652,0,0,1,6222.109,3109.283Z" transform="translate(-6197.563 -3079.359)" fill="#fff"/>
      </g>
      <g id="Сгруппировать_76285" data-name="Сгруппировать 76285" transform="translate(8.068 20.621)">
        <path id="Контур_41334" data-name="Контур 41334" d="M6123.917,3278.962a21.412,21.412,0,0,1-10.311-5.451,40.091,40.091,0,0,1-9.895-14.593c-2.507-6-3.579-11.524-3.184-16.43.42-5.24,2.39-8.081,3.526-9.308,5.418-5.85,12.979-3.311,13.3-3.2l-.1.283c-.312-.108-7.693-2.587-12.979,3.121-1.11,1.2-3.035,3.979-3.449,9.128-.39,4.858.674,10.339,3.163,16.291a39.8,39.8,0,0,0,9.818,14.485,21.113,21.113,0,0,0,10.16,5.378Z" transform="translate(-6100.448 -3229.338)" fill="#fff"/>
      </g>
      <g id="Сгруппировать_76286" data-name="Сгруппировать 76286" transform="translate(17.755 34.624)">
        <path id="Контур_41335" data-name="Контур 41335" d="M6214.115,3397.648c-.187-.035-4.6-.9-6.229-3.623-.266-.445-.508-.855-.749-1.264-1.233-2.1-2.4-4.077-6.586-10.107a15.525,15.525,0,0,1-3.058-9.243,9.927,9.927,0,0,1,.748-3.8l.271.129a9.835,9.835,0,0,0-.719,3.691,15.241,15.241,0,0,0,3,9.049c4.2,6.04,5.363,8.025,6.6,10.126.24.408.481.818.747,1.261,1.563,2.607,5.984,3.474,6.029,3.483Z" transform="translate(-6197.49 -3369.615)" fill="#fff"/>
      </g>
      <g id="Сгруппировать_76287" data-name="Сгруппировать 76287" transform="translate(45.033 69.308)">
        <path id="Контур_41336" data-name="Контур 41336" d="M6475.74,3720.155a28.981,28.981,0,0,1-4.98-.421l.058-.294c.1.019,9.668,1.835,14.893-2.365l.188.233c-2.792,2.244-6.762,2.783-9.6,2.841Q6476.014,3720.155,6475.74,3720.155Z" transform="translate(-6470.76 -3717.075)" fill="#fff"/>
      </g>
      <g id="Сгруппировать_76288" data-name="Сгруппировать 76288" transform="translate(86.412 19.754)">
        <path id="Контур_41337" data-name="Контур 41337" d="M6885.5,3261.75l-.219-.2a35.578,35.578,0,0,0,3.917-5.41,43.5,43.5,0,0,0,5.562-14.552c1.568-8.7-.78-15.123-3.5-18.229a5.987,5.987,0,0,0-4.573-2.4l-.014-.3a6.267,6.267,0,0,1,4.813,2.5,17.037,17.037,0,0,1,3.478,7.424,28.333,28.333,0,0,1,.091,11.055,43.78,43.78,0,0,1-5.6,14.661A35.884,35.884,0,0,1,6885.5,3261.75Z" transform="translate(-6885.286 -3220.649)" fill="#fff"/>
      </g>
      <g id="Сгруппировать_76289" data-name="Сгруппировать 76289" transform="translate(42.69 64.772)">
        <path id="Контур_41338" data-name="Контур 41338" d="M6484.889,3691a15.783,15.783,0,0,1-7.364-1.707,56.345,56.345,0,0,0-9.268-3.586,40.94,40.94,0,0,1-7.876-3.087c-3.829-2.306-12.907-.1-13-.074l-.1-.388c.38-.094,9.332-2.271,13.3.12a40.731,40.731,0,0,0,7.793,3.049,56.714,56.714,0,0,1,9.335,3.615c5.056,2.727,14.863,2.525,18.719-3.995,1.52-2.571,1.423-5.539-.287-8.821a18.377,18.377,0,0,0-3.06-4.2l.277-.287a18.794,18.794,0,0,1,3.137,4.3c1.753,3.365,1.849,6.549.276,9.208-1.747,2.955-4.94,4.949-8.992,5.615A17.9,17.9,0,0,1,6484.889,3691Z" transform="translate(-6447.286 -3671.635)" fill="#fff"/>
      </g>
      <g id="Сгруппировать_76290" data-name="Сгруппировать 76290" transform="translate(30.566 51.326)">
        <path id="Контур_41339" data-name="Контур 41339" d="M6329.966,3563.142a4.622,4.622,0,0,1-2.1-.467,4.172,4.172,0,0,1-2.041-2.31l.286-.088h0a3.949,3.949,0,0,0,1.894,2.132,5.824,5.824,0,0,0,4.615-.088c4.6-1.648,6.32-10.021,7.35-15.023.181-.876.337-1.633.489-2.278,1.072-4.534,6.911-7.948,7.159-8.091l.149.259c-.06.035-5.975,3.493-7.017,7.9-.152.641-.308,1.4-.487,2.27a55.783,55.783,0,0,1-2.377,8.9c-1.373,3.513-3.062,5.587-5.165,6.342A8.237,8.237,0,0,1,6329.966,3563.142Z" transform="translate(-6325.825 -3536.929)" fill="#fff"/>
      </g>
      <g id="Сгруппировать_76291" data-name="Сгруппировать 76291" transform="translate(59.491 40.534)">
        <path id="Контур_41340" data-name="Контур 41340" d="M6638.53,3466.978c-4.178,0-9.6-4.062-14.941-11.417a53.96,53.96,0,0,1-7.726-14.773l-.006-.018a5.532,5.532,0,0,1-.257-1.75l.03-2.39a5.252,5.252,0,0,1,.194-1.392c.836-2.9,4.3-6.85,7.381-6.381,2.778.424,5.021,4.907,7,8.861.387.773.752,1.5,1.105,2.167,1.221,2.3,3.654,4.8,6.007,7.222a57.726,57.726,0,0,1,4.553,5.047,12.923,12.923,0,0,1,2.627,9.417,6.589,6.589,0,0,1-2.9,4.515A5.491,5.491,0,0,1,6638.53,3466.978Zm-22.287-26.312a53.554,53.554,0,0,0,7.669,14.66,36.385,36.385,0,0,0,9.41,9.472c3.186,1.989,5.971,2.318,8.057.953a6.125,6.125,0,0,0,2.727-4.25,12.5,12.5,0,0,0-2.553-9.108,57.555,57.555,0,0,0-4.52-5.009c-2.373-2.44-4.827-4.964-6.075-7.313-.354-.667-.721-1.4-1.109-2.176-1.839-3.677-4.129-8.252-6.7-8.645-2.877-.439-6.141,3.337-6.937,6.1a4.861,4.861,0,0,0-.179,1.286l-.03,2.391a5.111,5.111,0,0,0,.24,1.624l-.185.078Z" transform="translate(-6615.599 -3428.818)" fill="#fff"/>
      </g>
      <g id="Сгруппировать_76292" data-name="Сгруппировать 76292" transform="translate(16.893 1.67)">
        <path id="Контур_41341" data-name="Контур 41341" d="M6222.563,3063.068c-.012-.083-1.291-8.364-6.561-13.968a32.968,32.968,0,0,0-12.338-7.632c-5.681-2.01-10.879-2.093-14.634-.234l-.177-.358a14.8,14.8,0,0,1,7.194-1.373,26.425,26.425,0,0,1,7.751,1.588,33.394,33.394,0,0,1,12.5,7.735c5.356,5.7,6.652,14.1,6.665,14.183Z" transform="translate(-6188.853 -3039.488)" fill="#fff"/>
      </g>
      <g id="Сгруппировать_76293" data-name="Сгруппировать 76293" transform="translate(36.867 4.36)">
        <path id="Контур_41342" data-name="Контур 41342" d="M6453.441,3132.455l-.249-.167c8.369-12.446,11.136-32.058,6.728-47.694-3.992-14.159-13.782-20.078-28.313-17.117-5.915,1.2-12.314,5.258-19.02,12.048a93.323,93.323,0,0,0-12.8,16.406c-5.083,8.441-10.508,20.167-10.563,20.285l-.271-.125c.055-.118,5.487-11.859,10.578-20.313a93.654,93.654,0,0,1,12.846-16.463,58.634,58.634,0,0,1,9.158-7.693,28.9,28.9,0,0,1,10.016-4.438c7.046-1.436,13.031-.817,17.789,1.838,5.123,2.859,8.78,8.071,10.872,15.491C6464.638,3100.227,6461.855,3119.941,6453.441,3132.455Z" transform="translate(-6388.949 -3066.43)" fill="#fff"/>
      </g>
      <g id="Сгруппировать_76294" data-name="Сгруппировать 76294" transform="translate(66.922 13.279)">
        <path id="Контур_41343" data-name="Контур 41343" d="M6711.109,3206.255l-.119-.161c13.351-9.887,16.086-29.9,10.19-41.674-2.09-4.175-4.915-6.835-8.4-7.906-5.151-1.584-10.247.781-12.2,1.872-5.31,2.967-10.316,14.377-10.366,14.492l-.183-.079c.05-.116,5.084-11.587,10.452-14.587,1.974-1.1,7.13-3.5,12.354-1.888,3.535,1.087,6.4,3.781,8.515,8.007,2.875,5.741,3.692,13.722,2.186,21.347C6721.85,3194.263,6717.434,3201.571,6711.109,3206.255Z" transform="translate(-6690.038 -3155.784)" fill="#fff"/>
      </g>
      <g id="Сгруппировать_76295" data-name="Сгруппировать 76295" transform="translate(0.619 38.704)">
        <path id="Контур_41344" data-name="Контур 41344" d="M6086.74,3461a47.989,47.989,0,0,1-10.209-.966l-.157-.035c-12.685-2.821-24.666-5.486-33.914-16.969a105.43,105.43,0,0,1-11.685-18.175c-3-5.971-4.812-11.2-4.956-14.353l.2-.009c.278,6.044,7.014,20.51,16.6,32.411,9.2,11.429,21.152,14.086,33.8,16.9l.158.035c12.531,2.787,30.81-1.385,30.993-1.428l.045.194a107.981,107.981,0,0,1-10.768,1.775A89.947,89.947,0,0,1,6086.74,3461Z" transform="translate(-6025.819 -3410.492)" fill="#fff"/>
      </g>
      <g id="Сгруппировать_76296" data-name="Сгруппировать 76296" transform="translate(12.157 25.418)">
        <path id="Контур_41345" data-name="Контур 41345" d="M6161.525,3320a57.071,57.071,0,0,1-9.01-5.564,21.141,21.141,0,0,1-4.544-6.027c-.711-1.221-1.516-2.605-2.544-4.107a24.975,24.975,0,0,1-3.456-8.826,23.554,23.554,0,0,1,.011-10.271c1.4-5.38,4.763-6.968,6.028-7.565a3.517,3.517,0,0,0,.469-.243l.119.161a3.627,3.627,0,0,1-.5.263c-1.359.642-4.543,2.146-5.921,7.435-1.626,6.237.508,14.685,3.416,18.934,1.033,1.508,1.84,2.9,2.553,4.119a20.69,20.69,0,0,0,4.5,5.974,56.95,56.95,0,0,0,8.971,5.539Z" transform="translate(-6141.413 -3277.393)" fill="#fff"/>
      </g>
      <g id="Сгруппировать_76297" data-name="Сгруппировать 76297" transform="translate(14.467 29.844)">
        <path id="Контур_41346" data-name="Контур 41346" d="M6183.493,3356.667c-.056-.021-5.687-2.128-7.732-5.008a24.016,24.016,0,0,1-2.214-3.962,23.924,23.924,0,0,0-2.2-3.931c-2.174-3.062-6.25-10.435-6.636-14.229-.4-3.887-.073-6.229.986-7.159a3.67,3.67,0,0,1,2.83-.576l-.04.2a3.537,3.537,0,0,0-2.658.53c-.993.873-1.3,3.224-.92,6.989.378,3.708,4.5,11.173,6.6,14.134a24.1,24.1,0,0,1,2.214,3.961,23.847,23.847,0,0,0,2.2,3.931c2.009,2.831,7.582,4.916,7.638,4.937Z" transform="translate(-6164.552 -3321.733)" fill="#fff"/>
      </g>
      <g id="Сгруппировать_76298" data-name="Сгруппировать 76298" transform="translate(68.249 61.574)">
        <path id="Контур_41347" data-name="Контур 41347" d="M6716.375,3651.276a18.734,18.734,0,0,1-4.251-.608,8.191,8.191,0,0,1-6.226-5.631,6.45,6.45,0,0,1-.255-1.217h0a1.264,1.264,0,0,0-.245-.539,1.382,1.382,0,0,0-.61-.458,2.96,2.96,0,0,1-1.224-1.01,1.017,1.017,0,0,1,.012-1.3,2.632,2.632,0,0,1,2.981-.561l.164.066c1.762.711,2.926,1.181,5.156.012,1.736-.91,2.728-.211,3.983.673a12.562,12.562,0,0,0,1.608,1.013c2.573,1.3,3,4.21,2.9,6.42a2.954,2.954,0,0,1-1.105,2.4A4.74,4.74,0,0,1,6716.375,3651.276Zm-10.535-7.481a6.425,6.425,0,0,0,.247,1.18,7.908,7.908,0,0,0,6.083,5.5c3.49.839,5.773.806,6.979-.1a2.769,2.769,0,0,0,1.025-2.245c.093-2.151-.316-4.979-2.794-6.233a13.008,13.008,0,0,1-1.634-1.028c-1.245-.879-2.146-1.514-3.774-.66-2.312,1.211-3.575.7-5.323,0l-.164-.066a2.427,2.427,0,0,0-2.749.5.819.819,0,0,0-.012,1.062,2.752,2.752,0,0,0,1.152.951,1.577,1.577,0,0,1,.685.521,1.432,1.432,0,0,1,.279.629Z" transform="translate(-6703.334 -3639.602)" fill="#fff"/>
      </g>
      <g id="Сгруппировать_76299" data-name="Сгруппировать 76299" transform="translate(33.547 42.228)">
        <path id="Контур_41348" data-name="Контур 41348" d="M6358.966,3477.085a3.563,3.563,0,0,1-.623-.054,3.039,3.039,0,0,1-2.652-2.781,10.637,10.637,0,0,1,1.392-4.731,22.509,22.509,0,0,0,1.811-5.026c.706-3.423,3.493-9.389,4.658-11.8a6.673,6.673,0,0,1,2.243-2.631l.056.083-.056-.083a6.27,6.27,0,0,1,1.33-.689,2.886,2.886,0,0,0,1.872-1.333,15.238,15.238,0,0,1,1.225-1.537,1.549,1.549,0,0,1,1.6-.665c1.183.361,1.9,2.566,2.15,4.345.277,1.944-.588,2.586-2.157,3.752a28.176,28.176,0,0,0-2.461,2,11.947,11.947,0,0,0-3.936,6.251c-.16.467-.34,1-.55,1.576a35.405,35.405,0,0,0-1.352,5.548,29.483,29.483,0,0,1-1.435,5.645A3.249,3.249,0,0,1,6358.966,3477.085Zm6.941-26.854a6.48,6.48,0,0,0-2.175,2.554c-1.163,2.4-3.94,8.347-4.642,11.749a22.7,22.7,0,0,1-1.826,5.069,10.5,10.5,0,0,0-1.374,4.641,2.824,2.824,0,0,0,2.488,2.591,3.1,3.1,0,0,0,3.515-1.951,29.362,29.362,0,0,0,1.423-5.606,35.61,35.61,0,0,1,1.36-5.579c.209-.579.39-1.107.55-1.573a12.092,12.092,0,0,1,3.99-6.333,28.069,28.069,0,0,1,2.477-2.013c1.557-1.157,2.338-1.738,2.079-3.564-.264-1.857-.988-3.87-2.011-4.182-.44-.134-.907.07-1.391.607a14.88,14.88,0,0,0-1.21,1.52,3.061,3.061,0,0,1-1.966,1.4,6.086,6.086,0,0,0-1.287.667Z" transform="translate(-6355.688 -3445.793)" fill="#fff"/>
      </g>
      <g id="Сгруппировать_76300" data-name="Сгруппировать 76300" transform="translate(38.26 76.667)">
        <path id="Контур_41349" data-name="Контур 41349" d="M6427.348,3801.41a4.9,4.9,0,0,1-1.343-.166,11.255,11.255,0,0,1-3.559-1.856,10.111,10.111,0,0,0-3.762-1.865,16.272,16.272,0,0,0-7.113-.567c-2.851.314-8.427-2.4-8.663-2.514l.088-.179c.057.028,5.76,2.805,8.553,2.494a16.494,16.494,0,0,1,7.18.571,10.4,10.4,0,0,1,3.831,1.9,11.091,11.091,0,0,0,3.5,1.828c2.421.7,7.149-1.044,7.644-2.473.143-.413-.119-.757-.778-1.024a26.054,26.054,0,0,0-3.26-1.047,11.54,11.54,0,0,1-4.431-1.942,19.967,19.967,0,0,0-7.349-3.555,3.017,3.017,0,0,0-1.732.407,3.094,3.094,0,0,1-3.209.04c-2.253-1.209-7.14.5-7.189.517l-.067-.188c.2-.073,5.019-1.756,7.351-.5a2.926,2.926,0,0,0,3.031-.046,3.215,3.215,0,0,1,1.843-.423,20.187,20.187,0,0,1,7.44,3.592,11.227,11.227,0,0,0,4.363,1.91,26.206,26.206,0,0,1,3.283,1.055c.966.391,1.019.909.892,1.274-.25.721-1.51,1.564-3.212,2.149A10.573,10.573,0,0,1,6427.348,3801.41Z" transform="translate(-6402.908 -3790.792)" fill="#fff"/>
      </g>
      <g id="Сгруппировать_76301" data-name="Сгруппировать 76301" transform="translate(16.975 65.437)">
        <path id="Контур_41350" data-name="Контур 41350" d="M6203.952,3691.582a7.391,7.391,0,0,1-4.57-2.833,6.27,6.27,0,0,0-3.471-3.153c-.239-.124-.5-.26-.8-.416a11.239,11.239,0,0,1-5.054-4.871c-.447-.86-.507-1.555-.16-1.858.391-.341,1.191-.115,2.254.636.317.224.639.455.965.688a38.581,38.581,0,0,0,6,3.772,18.071,18.071,0,0,0,4.574,1.381l-.026.2a18.3,18.3,0,0,1-4.631-1.4,38.675,38.675,0,0,1-6.035-3.792c-.326-.233-.647-.463-.964-.687-.952-.673-1.7-.916-2.007-.649-.269.235-.19.854.206,1.615A11.049,11.049,0,0,0,6195.2,3685c.3.155.56.292.8.415a6.467,6.467,0,0,1,3.548,3.223,7.168,7.168,0,0,0,4.434,2.744Z" transform="translate(-6189.672 -3678.295)" fill="#fff"/>
      </g>
      <g id="Сгруппировать_76302" data-name="Сгруппировать 76302" transform="translate(9.3 3.845)">
        <path id="Контур_41351" data-name="Контур 41351" d="M6148.3,3092.2l-.191-.057c.02-.066,1.963-6.726,1.047-12.483-1.132-7.113-4.723-10.715-5.8-11.65-1.91-1.662-8.7-6.432-14.632-6.538-5.91-.105-13.144,1.843-15.807,4.253l-.134-.148c2.694-2.439,9.994-4.411,15.945-4.3,5.993.107,12.835,4.912,14.759,6.587,1.086.946,4.72,4.589,5.862,11.768C6150.279,3085.434,6148.323,3092.136,6148.3,3092.2Z" transform="translate(-6112.789 -3061.272)" fill="#fff"/>
      </g>
      <g id="Сгруппировать_76303" data-name="Сгруппировать 76303" transform="translate(18.43 7.117)">
        <path id="Контур_41352" data-name="Контур 41352" d="M6226.661,3119.33l-.2-.019c.69-7.36-1.6-14.395-6.114-18.819-4.783-4.683-15.988-6.223-16.1-6.238l.027-.2c.113.015,11.384,1.564,16.213,6.293a20.39,20.39,0,0,1,5.165,8.678A26.733,26.733,0,0,1,6226.661,3119.33Z" transform="translate(-6204.247 -3094.056)" fill="#fff"/>
      </g>
      <g id="Сгруппировать_76304" data-name="Сгруппировать 76304" transform="translate(0.356 9.686)">
        <path id="Контур_41353" data-name="Контур 41353" d="M6027.2,3154.293a.854.854,0,0,1-.184-.02c-1.708-.369-3.605-5.917-3.686-6.153l.189-.064c.02.057,1.941,5.677,3.538,6.022a.687.687,0,0,0,.677-.253c.586-.626.505-2.553.4-4.992-.2-4.776-.476-11.317,3.712-14.992,6.112-5.365,10.251-7.787,15.908-6.135,3.41,1,5.245,1.208,5.61.651.227-.346-.107-1.059-.993-2.119-2.537-3.036-8.647-5.516-12.853-6.073-4.912-.65-8.534.283-11.418,6.939a78.233,78.233,0,0,0-3.287,9.4c-.656,2.225-1.051,3.568-1.536,3.812l-.09-.178c.407-.2.837-1.667,1.435-3.69a78.189,78.189,0,0,1,3.295-9.427c1.426-3.292,3.16-5.394,5.3-6.426a10.99,10.99,0,0,1,6.328-.633c4.243.562,10.412,3.07,12.98,6.143.975,1.167,1.295,1.916,1.007,2.356-.432.659-2.23.484-5.833-.569-5.568-1.626-9.663.776-15.72,6.093-4.116,3.612-3.843,10.1-3.645,14.834.1,2.486.187,4.449-.457,5.136A.922.922,0,0,1,6027.2,3154.293Z" transform="translate(-6023.188 -3119.785)" fill="#fff"/>
      </g>
      <g id="Сгруппировать_76305" data-name="Сгруппировать 76305" transform="translate(89.389 44.87)">
        <path id="Контур_41354" data-name="Контур 41354" d="M6918.828,3503.366l-.114-.164a25.639,25.639,0,0,0,6.344-7.164c2.57-4.218,3.288-6.547,4.716-11.187.2-.635.406-1.315.635-2.05,1.6-5.121,1.387-9.256.272-10.15a1,1,0,0,0-1.206.015c-1.536.88-2.407,3-3.511,5.677-.636,1.543-1.356,3.292-2.333,5.135-2.672,5.043-8.328,10.405-8.385,10.458l-.137-.145c.056-.053,5.689-5.393,8.346-10.406.972-1.834,1.69-3.579,2.324-5.117,1.119-2.716,2-4.861,3.6-5.774a1.182,1.182,0,0,1,1.43,0c1.358,1.091,1.268,5.644-.207,10.366-.229.734-.438,1.414-.634,2.049-1.434,4.656-2.153,6.993-4.737,11.232A25.841,25.841,0,0,1,6918.828,3503.366Z" transform="translate(-6915.11 -3472.259)" fill="#fff"/>
      </g>
      <g id="Сгруппировать_76306" data-name="Сгруппировать 76306" transform="translate(53.097 11.922)">
        <path id="Контур_41355" data-name="Контур 41355" d="M6554.775,3170.054a.522.522,0,0,1-.2-.038c-.382-.156-.528-.767-.46-1.921a4.369,4.369,0,0,0-1.228-3.53,5.987,5.987,0,0,1-1.234-2.083c-.624-1.965,1.479-4.719,4.39-8.531.626-.819,1.272-1.667,1.943-2.572a31.552,31.552,0,0,1,9.317-8.055l.007,0a15.96,15.96,0,0,1,3-.989c.82-.13,2.194-.349,2.934.34a1.91,1.91,0,0,1,.478,1.642c-.138,1.57-1.2,2.093-2.429,2.7a10.071,10.071,0,0,0-2.391,1.5c-2.021,1.8-4.083,6.472-5.144,10.047-.992,3.348-2.124,4.643-5.149,8.1l-.037.042C6556.74,3168.8,6555.5,3170.054,6554.775,3170.054Zm12.619-26.552a31.309,31.309,0,0,0-9.248,8c-.671.906-1.318,1.753-1.944,2.574-2.874,3.764-4.951,6.484-4.358,8.35a5.809,5.809,0,0,0,1.2,2.017,4.535,4.535,0,0,1,1.273,3.668c-.062,1.028.052,1.609.336,1.725.6.246,2.168-1.423,3.775-3.263l.037-.042c3-3.438,4.128-4.725,5.108-8.03.823-2.777,2.846-8.038,5.2-10.139a10.185,10.185,0,0,1,2.435-1.525c1.224-.6,2.189-1.079,2.317-2.537a1.728,1.728,0,0,0-.414-1.478c-.669-.623-1.982-.413-2.768-.289A15.921,15.921,0,0,0,6567.395,3143.5Z" transform="translate(-6551.543 -3142.193)" fill="#fff"/>
      </g>
      <g id="Сгруппировать_76307" data-name="Сгруппировать 76307" transform="translate(86.343 1.566)">
        <path id="Контур_41356" data-name="Контур 41356" d="M6908.954,3084.81a1.278,1.278,0,0,1-.6-.152c-1.463-.776-2.074-4.273-1.643-6.882.556-3.363.474-7.8-1.424-10.16-.979-1.219-1.553-3.121-2.28-5.529a61.92,61.92,0,0,0-2.81-7.844c-2.2-4.9-4.726-5.855-8.219-7.171-1-.375-2.127-.8-3.335-1.355a6.27,6.27,0,0,1-3.955-4.572,5.809,5.809,0,0,1,.135-2.7l.189.065a5.714,5.714,0,0,0-.126,2.608,6.164,6.164,0,0,0,3.839,4.417c1.2.551,2.279.957,3.322,1.35,3.539,1.333,6.1,2.3,8.332,7.276a62.028,62.028,0,0,1,2.819,7.868c.72,2.387,1.289,4.273,2.244,5.461,1.94,2.414,2.029,6.913,1.466,10.318-.458,2.768.29,6.011,1.539,6.673.522.277,1.107.114,1.737-.484l.138.145A2.018,2.018,0,0,1,6908.954,3084.81Z" transform="translate(-6884.591 -3038.444)" fill="#fff"/>
      </g>
      <g id="Сгруппировать_76308" data-name="Сгруппировать 76308" transform="translate(56.486 37.932)">
        <path id="Контур_41357" data-name="Контур 41357" d="M6610.072,3445.383c-4.574-.716-12.171-7.644-14.518-11.615-.764-1.294-1.576-2.789-2.437-4.372a71.244,71.244,0,0,0-5.912-9.69,6.634,6.634,0,0,1-1.664-5.06,8.478,8.478,0,0,1,1.756-3.932,61.344,61.344,0,0,0,4.131-7.957l.184.08a61.718,61.718,0,0,1-4.153,8c-1.465,1.985-3.068,5.052-.1,8.748a71.3,71.3,0,0,1,5.933,9.719c.859,1.582,1.672,3.075,2.435,4.366,2.327,3.94,9.852,10.812,14.376,11.52Z" transform="translate(-6585.496 -3402.756)" fill="#fff"/>
      </g>
      <g id="Сгруппировать_76309" data-name="Сгруппировать 76309" transform="translate(62.792 44.834)">
        <path id="Контур_41358" data-name="Контур 41358" d="M6666.16,3502.768a11.416,11.416,0,0,1-1.294-.075c-5.253-.6-7.65-4.863-9.236-7.685a10.585,10.585,0,0,0-1.388-2.129c-1.656-1.6-3.108-5.611-3.107-8.591,0-2.74-.72-4.191-1.915-6.6l-.17-.344a3.145,3.145,0,0,1,0-3,5.271,5.271,0,0,1,4.067-2.417c2.94-.344,5.467,2.125,5.492,2.149l-.141.142c-.024-.024-2.484-2.427-5.329-2.093a5.066,5.066,0,0,0-3.913,2.314,2.95,2.95,0,0,0,0,2.82l.171.344c1.207,2.431,1.936,3.9,1.935,6.685,0,2.935,1.423,6.882,3.047,8.447a10.473,10.473,0,0,1,1.423,2.175c1.566,2.786,3.934,7,9.085,7.584,4.206.479,6.385-1.471,7.308-2.676a5.919,5.919,0,0,0,1.027-5.6l.185-.074a6.117,6.117,0,0,1-1.054,5.8A7.473,7.473,0,0,1,6666.16,3502.768Z" transform="translate(-6648.667 -3471.894)" fill="#fff"/>
      </g>
      <g id="Сгруппировать_76310" data-name="Сгруппировать 76310" transform="translate(84.68 27.344)">
        <path id="Контур_41359" data-name="Контур 41359" d="M6868.105,3328.3l-.171-.1c.055-.092,5.506-9.284,7.03-15.712s.218-15.676.2-15.768l.2-.029c.013.093,1.324,9.381-.208,15.843S6868.16,3328.206,6868.105,3328.3Z" transform="translate(-6867.934 -3296.687)" fill="#fff"/>
      </g>
    </g>
  </g>
</svg>
