<svg xmlns="http://www.w3.org/2000/svg" width="126.048" height="114.845" viewBox="0 0 126.048 114.845">
  <g id="Сгруппировать_76362" data-name="Сгруппировать 76362" transform="translate(-6332.384 -1167.347)">
    <path id="Контур_41360" data-name="Контур 41360" d="M6456.717,1212.132a8.337,8.337,0,0,0-1.831-2.01,62.247,62.247,0,0,0,.858-17.494c-.721-6.288-3.283-11.6-6.231-12.922a3.2,3.2,0,0,0-1.9-.266,37.273,37.273,0,0,1-2.195-6.73c-.582-2.638-2.331-4.748-4.352-5.25a4.018,4.018,0,0,0-4.119,1.548,13.532,13.532,0,0,1-3.349,2.792,8.689,8.689,0,0,0-3.819,4.113c-1.589,3.5-1.458,8.263-1.4,9.434-2.243,1.324-3.884,3.765-5.373,5.982a26.272,26.272,0,0,1-2.281,3.088c-2.4,2.581-3.674,6.911-3.945,7.907-3.018.955-5.3,2.981-7.9,6.79-2.667,3.911-4.6,7.335-5.222,8.455a4.756,4.756,0,0,0-4.826,1.066,25.71,25.71,0,0,1-2.919,2.017c-2.92,1.851-6.554,4.155-6.845,6.921a2.632,2.632,0,0,0,0,.465c-.4.195-4.731,2.385-5.625,5.258-.44,1.413-1.966,1.968-3.9,2.672a17.529,17.529,0,0,0-4.846,2.4,7.778,7.778,0,0,0-2.018,2.331c-1.15.035-8.293.3-12.59,1.479a8.535,8.535,0,0,0-2.708,1.407c-1.413-.329-10.355-2.354-14.431-1.867a11.179,11.179,0,0,0-5.969,2.624,19.962,19.962,0,0,1-2.969,1.918,3.076,3.076,0,0,0-1.635,2.964c.041,3.215,3.407,8.051,9.766,11.206a5,5,0,0,0-.818,2.971c.124,1.485,1.127,2.864,3.065,4.215.458.318.974.692,1.522,1.087a59.117,59.117,0,0,0,12.373,7.28,32.45,32.45,0,0,0,12.272,2.5,29.536,29.536,0,0,0,6.167-.653,4.65,4.65,0,0,0,1.358,1.745c2.277,1.878,6.462,2.618,10.847,2.618a43.372,43.372,0,0,0,7.8-.723c5.878-1.1,12.4-4.244,16.405-6.411v.01a18.7,18.7,0,0,0,3.5.294,21.486,21.486,0,0,0,8.3-1.623,35.41,35.41,0,0,0,9.807-6.043c.727-.582,1.478-1.183,2.344-1.85,4.514-3.477,8.612-10.564,8.434-14.583a13.333,13.333,0,0,1,.5-4.227,2.725,2.725,0,0,0,.1-1.883c1.426-1.53,2.222-3.97,3-6.348.371-1.134.72-2.205,1.127-3.139a19.765,19.765,0,0,1,2.853-4.359,23.36,23.36,0,0,0,3.387-5.255C6459,1220.316,6459.075,1215.763,6456.717,1212.132Z" transform="translate(0.001 0)" fill="#ffa918"/>
    <g id="Сгруппировать_76361" data-name="Сгруппировать 76361" transform="translate(6332.384 1167.347)">
      <g id="Сгруппировать_76314" data-name="Сгруппировать 76314" transform="translate(71.151 34.322)">
        <g id="Сгруппировать_76313" data-name="Сгруппировать 76313">
          <path id="Контур_41361" data-name="Контур 41361" d="M7076.628,1552.039c-2.5,0-5.683-2.9-8.771-5.712-1.258-1.146-2.446-2.229-3.567-3.1l-.687-.537c-15.114-11.824-23.982-18.114-26.36-18.7h0a.573.573,0,0,1-.392-.328.566.566,0,0,1,.022-.5c.541-.985,2.52-4.515,5.284-8.568,3.4-4.983,6.259-6.917,10.932-7.39,3.487-.353,8.7,1.029,14.213,2.492,2.045.543,4.162,1.1,6.225,1.585,1.669.389,3.23.689,4.741.979,5.261,1.01,9.417,1.809,11.718,5.352,2.358,3.631,2.283,8.184-.226,13.918a23.359,23.359,0,0,1-3.387,5.255,19.8,19.8,0,0,0-2.854,4.359c-.407.934-.756,2.005-1.126,3.139-1.033,3.164-2.1,6.436-4.638,7.532A2.811,2.811,0,0,1,7076.628,1552.039Zm-38.9-28.749c4.272,1.465,20.843,14.429,26.377,18.758l.686.537c1.145.9,2.344,1.988,3.613,3.144,3.226,2.94,6.882,6.271,9.032,5.342,2.2-.952,3.213-4.047,4.19-7.041.376-1.153.732-2.242,1.153-3.211a20.438,20.438,0,0,1,2.96-4.537,22.7,22.7,0,0,0,3.281-5.079c2.393-5.466,2.487-9.769.289-13.154-2.114-3.255-5.921-3.986-11.192-5-1.519-.292-3.088-.593-4.772-.985-2.076-.484-4.2-1.046-6.249-1.59-5.442-1.444-10.583-2.807-13.925-2.469-4.4.445-7.1,2.287-10.345,7.041C7040.285,1518.772,7038.414,1522.049,7037.725,1523.291Z" transform="translate(-7036.803 -1507.147)" fill="#fff"/>
        </g>
      </g>
      <g id="Сгруппировать_76316" data-name="Сгруппировать 76316" transform="translate(56.681 49.967)">
        <g id="Сгруппировать_76315" data-name="Сгруппировать 76315">
          <path id="Контур_41362" data-name="Контур 41362" d="M6919.376,1719.2a3.582,3.582,0,0,1-.726-.078l.163-.791a1.742,1.742,0,0,0,1.722-.409c.448-.517.982-1.991-.48-6.049a80.162,80.162,0,0,0-11.9-20.712c-1.8-2.293-4.107-4.764-6.341-7.153-4.579-4.9-8.534-9.132-8.264-11.713.29-2.765,3.925-5.069,6.845-6.921a25.742,25.742,0,0,0,2.919-2.017,4.721,4.721,0,0,1,5.192-.916l-.366.72a3.926,3.926,0,0,0-4.29.8,25.878,25.878,0,0,1-3.022,2.094c-2.772,1.758-6.225,3.946-6.474,6.323-.232,2.215,3.979,6.72,8.051,11.077,2.244,2.4,4.566,4.886,6.386,7.206a80.992,80.992,0,0,1,12.021,20.937c1.223,3.391,1.334,5.7.331,6.853A2.258,2.258,0,0,1,6919.376,1719.2Z" transform="translate(-6893.54 -1662.031)" fill="#fff"/>
        </g>
      </g>
      <g id="Сгруппировать_76318" data-name="Сгруппировать 76318" transform="translate(80.752 77.458)">
        <g id="Сгруппировать_76317" data-name="Сгруппировать 76317">
          <path id="Контур_41363" data-name="Контур 41363" d="M7135.362,1964.758a18.67,18.67,0,0,1-3.5-.295l.164-.791h0a21.339,21.339,0,0,0,11.33-1.281,34.772,34.772,0,0,0,9.616-5.93c.729-.584,1.483-1.187,2.355-1.859a24.207,24.207,0,0,0,5.76-6.824c1.579-2.719,2.438-5.3,2.36-7.083a14.23,14.23,0,0,1,.526-4.463c.23-.9.292-1.23.086-1.385l.486-.646c.654.492.458,1.259.209,2.23a13.34,13.34,0,0,0-.5,4.228c.178,4.019-3.921,11.105-8.434,14.583-.866.667-1.617,1.269-2.344,1.85a35.434,35.434,0,0,1-9.806,6.043A21.492,21.492,0,0,1,7135.362,1964.758Z" transform="translate(-7131.858 -1934.201)" fill="#fff"/>
        </g>
      </g>
      <g id="Сгруппировать_76320" data-name="Сгруппировать 76320" transform="translate(84.351 12.046)">
        <g id="Сгруппировать_76319" data-name="Сгруппировать 76319">
          <path id="Контур_41364" data-name="Контур 41364" d="M7205.59,1317.577l-.79-.172a61.463,61.463,0,0,0,.894-17.469,25.36,25.36,0,0,0-2.243-8.161c-1.031-2.1-2.28-3.563-3.516-4.117a2.284,2.284,0,0,0-2.387.208c-3.3,2.327-10.591,3.644-15.416,4.516l-.529.1c-3.177.576-5.3,3.732-7.167,6.517a26.8,26.8,0,0,1-2.359,3.188c-2.519,2.715-3.794,7.707-3.807,7.757l-.783-.2c.053-.213,1.336-5.241,4-8.109a26.328,26.328,0,0,0,2.281-3.088c1.96-2.918,4.181-6.225,7.694-6.862l.529-.1c4.755-.859,11.941-2.157,15.094-4.381a3.083,3.083,0,0,1,3.183-.285c2.948,1.321,5.511,6.635,6.23,12.923A62.325,62.325,0,0,1,7205.59,1317.577Z" transform="translate(-7167.487 -1286.609)" fill="#fff"/>
        </g>
      </g>
      <g id="Сгруппировать_76322" data-name="Сгруппировать 76322" transform="translate(95.972)">
        <g id="Сгруппировать_76321" data-name="Сгруппировать 76321">
          <path id="Контур_41365" data-name="Контур 41365" d="M7282.584,1185.607c-.018-.234-.4-5.762,1.381-9.695a8.691,8.691,0,0,1,3.819-4.113,13.523,13.523,0,0,0,3.349-2.792,4.018,4.018,0,0,1,4.119-1.548c2.021.5,3.77,2.612,4.352,5.25a36.141,36.141,0,0,0,2.4,7.182l-.727.354a36.238,36.238,0,0,1-2.464-7.362c-.509-2.309-2.055-4.217-3.757-4.64a3.211,3.211,0,0,0-3.308,1.287,14.418,14.418,0,0,1-3.527,2.948,7.92,7.92,0,0,0-3.522,3.769c-1.7,3.747-1.315,9.246-1.311,9.3Z" transform="translate(-7282.537 -1167.347)" fill="#fff"/>
        </g>
      </g>
      <g id="Сгруппировать_76324" data-name="Сгруппировать 76324" transform="translate(66.186 51.847)">
        <g id="Сгруппировать_76323" data-name="Сгруппировать 76323">
          <path id="Контур_41366" data-name="Контур 41366" d="M7033.839,1711.98c-4.738,0-12.342-6.291-21.109-13.547-3.086-2.553-6.277-5.194-9.532-7.717-12.483-9.676-15.5-9.768-15.548-9.768h0l-.006-.3c.117,0,3.12.051,15.74,9.832,3.259,2.526,6.452,5.168,9.54,7.723,8.95,7.407,16.682,13.8,21.267,13.464l.022.3C7034.09,1711.976,7033.965,1711.98,7033.839,1711.98Z" transform="translate(-6987.643 -1680.646)" fill="#fff"/>
        </g>
      </g>
      <g id="Сгруппировать_76326" data-name="Сгруппировать 76326" transform="translate(71.919 43.512)">
        <g id="Сгруппировать_76325" data-name="Сгруппировать 76325">
          <path id="Контур_41367" data-name="Контур 41367" d="M7080.322,1617.691a14.913,14.913,0,0,1-4.281-.856c-.451-.137-.918-.279-1.376-.4-2.465-.666-4.336-.563-5.719.314-.045.028-.089.057-.133.086a1.986,1.986,0,0,1-.705.34,1.682,1.682,0,0,1-.731-.058,9.216,9.216,0,0,1-3.543-2.256l-.234-.2a51.935,51.935,0,0,0-19.2-10.31l.056-.194a52.136,52.136,0,0,1,19.274,10.351l.234.2a9.065,9.065,0,0,0,3.462,2.213,1.473,1.473,0,0,0,.642.055,1.812,1.812,0,0,0,.632-.311c.045-.03.09-.059.136-.088,1.434-.909,3.357-1.02,5.88-.339.462.125.93.267,1.382.4a14.136,14.136,0,0,0,4.412.845c.437-.012,1.484-.121,1.766-.883a1.979,1.979,0,0,0-.227-1.444,19.918,19.918,0,0,0-4.764-6.575,31.208,31.208,0,0,0-6.665-4.393c-7.845-4.053-15.182-5.969-22.433-5.854l0-.2c7.284-.114,14.654,1.807,22.529,5.877a31.4,31.4,0,0,1,6.708,4.422,20.13,20.13,0,0,1,4.813,6.642,2.147,2.147,0,0,1,.232,1.6c-.325.878-1.471,1-1.949,1.015Z" transform="translate(-7044.4 -1598.131)" fill="#fff"/>
        </g>
      </g>
      <g id="Сгруппировать_76328" data-name="Сгруппировать 76328" transform="translate(85.828 25.707)">
        <g id="Сгруппировать_76327" data-name="Сгруппировать 76327">
          <path id="Контур_41368" data-name="Контур 41368" d="M7211.272,1432.909c-3.522,0-8.417-1.043-14.475-2.644-10.755-2.844-14.56-1.1-14.6-1.085l-.088-.182c.153-.075,3.891-1.8,14.737,1.071a72.14,72.14,0,0,0,13.174,2.592c3.427.21,5.524-.37,6.6-1.825.522-.706.7-1.223.541-1.579-.3-.678-1.81-.832-3.721-1.027-1.036-.105-2.211-.225-3.4-.45a7.242,7.242,0,0,1-4.092-2.049,10.28,10.28,0,0,0-4.733-2.559,32.948,32.948,0,0,0-9.35-.813,25.967,25.967,0,0,1-5.649-.308l.045-.2a25.873,25.873,0,0,0,5.6.3,33.1,33.1,0,0,1,9.408.82,10.455,10.455,0,0,1,4.813,2.6,6.994,6.994,0,0,0,4,2c1.177.224,2.347.343,3.379.448,2.053.209,3.537.36,3.885,1.146.192.434.013,1-.563,1.781C7215.773,1432.326,7213.906,1432.909,7211.272,1432.909Z" transform="translate(-7182.111 -1421.855)" fill="#fff"/>
        </g>
      </g>
      <g id="Сгруппировать_76330" data-name="Сгруппировать 76330" transform="translate(96.573 7.304)">
        <g id="Сгруппировать_76329" data-name="Сгруппировать 76329">
          <path id="Контур_41369" data-name="Контур 41369" d="M7292.59,1247.141a11.953,11.953,0,0,1-4.108-.765l.078-.187c.046.02,4.661,1.907,8.113-.377a14.7,14.7,0,0,0,3.143-3.041c1.473-1.753,2.743-3.266,5.311-3.1l-.014.2c-2.465-.16-3.705,1.319-5.142,3.029a14.9,14.9,0,0,1-3.186,3.079A7.52,7.52,0,0,1,7292.59,1247.141Z" transform="translate(-7288.482 -1239.658)" fill="#fff"/>
        </g>
      </g>
      <g id="Сгруппировать_76332" data-name="Сгруппировать 76332" transform="translate(59.292 56.854)">
        <g id="Сгруппировать_76331" data-name="Сгруппировать 76331">
          <path id="Контур_41370" data-name="Контур 41370" d="M6954.335,1773.576c-.088,0-.178,0-.267-.009-2.175-.146-4.624-2.117-7.484-6.027-1.634-2.233-3.184-4.733-4.824-7.381-3.282-5.3-7-11.3-12.6-17.059-8.315-8.55-9.749-12.782-9.762-12.824l.192-.062c.013.041,1.441,4.239,9.714,12.745,5.615,5.773,9.342,11.787,12.63,17.093,1.638,2.644,3.186,5.141,4.815,7.368,2.824,3.858,5.223,5.8,7.334,5.944a4.836,4.836,0,0,0,3.817-1.813c.94-.977,1.659-1.873,2.355-2.74a16.746,16.746,0,0,1,5.858-5.139c4.212-2.212,5.063-7.325,5.071-7.376l.2.031c-.008.052-.875,5.266-5.177,7.524a16.574,16.574,0,0,0-5.794,5.087c-.7.87-1.421,1.77-2.367,2.754A5.17,5.17,0,0,1,6954.335,1773.576Z" transform="translate(-6919.395 -1730.215)" fill="#fff"/>
        </g>
      </g>
      <g id="Сгруппировать_76334" data-name="Сгруппировать 76334" transform="translate(108.077 48.587)">
        <g id="Сгруппировать_76333" data-name="Сгруппировать 76333">
          <path id="Контур_41371" data-name="Контур 41371" d="M7402.414,1677.6l-.032-.2c.031-.005,3.152-.561,3.58-4.646.063-.587.105-1.182.147-1.757.267-3.662.519-7.121,5.21-10.161,5.409-3.5,8.134-8.918,8.378-12.465l.2.014c-.245,3.6-3,9.079-8.468,12.621-4.608,2.985-4.856,6.4-5.119,10.006-.042.576-.085,1.172-.146,1.763C7405.719,1677.017,7402.446,1677.592,7402.414,1677.6Z" transform="translate(-7402.382 -1648.369)" fill="#fff"/>
        </g>
      </g>
      <g id="Сгруппировать_76336" data-name="Сгруппировать 76336" transform="translate(105.271 15.679)">
        <g id="Сгруппировать_76335" data-name="Сгруппировать 76335">
          <path id="Контур_41372" data-name="Контур 41372" d="M7392.178,1343.24c-.09-2.954-.48-3.315-.932-3.733s-.988-.915-1.354-3.83c-.688-5.488-3.379-7.587-9.931-7.746-2.982-.073-4.74-.708-5.223-1.887-.63-1.538,1.136-3.39,1.212-3.468l.146.14c-.018.018-1.751,1.836-1.171,3.251.451,1.1,2.146,1.691,5.041,1.761,3.345.081,5.538.631,7.111,1.784,1.687,1.236,2.645,3.187,3.016,6.138.356,2.843.853,3.3,1.29,3.707.485.449.9.836,1,3.875Z" transform="translate(-7374.603 -1322.576)" fill="#fff"/>
        </g>
      </g>
      <g id="Сгруппировать_76338" data-name="Сгруппировать 76338" transform="translate(99.087 0.444)">
        <g id="Сгруппировать_76337" data-name="Сгруппировать 76337">
          <path id="Контур_41373" data-name="Контур 41373" d="M7319.595,1178.511a4.015,4.015,0,0,1-1.937-.508c-1.817-1-2.857-1-3.409-.816a1.135,1.135,0,0,0-.687.519l-.184-.084a1.325,1.325,0,0,1,.8-.624c.59-.2,1.69-.212,3.58.828a3.615,3.615,0,0,0,4.456-.664,4.206,4.206,0,0,0,.134-5.306l.169-.11a4.4,4.4,0,0,1-.155,5.554A3.755,3.755,0,0,1,7319.595,1178.511Z" transform="translate(-7313.379 -1171.745)" fill="#fff"/>
        </g>
      </g>
      <g id="Сгруппировать_76340" data-name="Сгруппировать 76340" transform="translate(38.818 60.68)">
        <g id="Сгруппировать_76339" data-name="Сгруппировать 76339">
          <path id="Контур_41374" data-name="Контур 41374" d="M6734.43,1822.262c-4.384,0-8.57-.739-10.847-2.618a4.2,4.2,0,0,1-1.676-3.295c-.029-4.781-1.04-14.469-3.7-21.566-2.59-6.9-1.789-13.471,1.994-16.35a17.511,17.511,0,0,1,4.846-2.395c1.932-.7,3.458-1.259,3.9-2.672.918-2.948,5.456-5.176,5.649-5.27l.353.727c-.044.021-4.416,2.17-5.23,4.783-.559,1.795-2.335,2.442-4.392,3.191a16.858,16.858,0,0,0-4.633,2.279c-3.5,2.661-4.191,8.859-1.728,15.423,2.7,7.2,3.725,17.006,3.754,21.845a3.426,3.426,0,0,0,1.382,2.677c1.483,1.224,4.066,2.028,7.467,2.323a40.129,40.129,0,0,0,10.514-.6c9.107-1.7,19.831-8.427,19.938-8.494l.431.683c-.108.069-10.963,6.873-20.221,8.605A43.384,43.384,0,0,1,6734.43,1822.262Z" transform="translate(-6716.697 -1768.097)" fill="#fff"/>
        </g>
      </g>
      <g id="Сгруппировать_76342" data-name="Сгруппировать 76342" transform="translate(8.934 73.343)">
        <g id="Сгруппировать_76341" data-name="Сгруппировать 76341">
          <path id="Контур_41375" data-name="Контур 41375" d="M6450.076,1931.256a32.452,32.452,0,0,1-12.272-2.5,59.149,59.149,0,0,1-12.374-7.28c-.547-.4-1.064-.769-1.521-1.087-1.938-1.351-2.941-2.73-3.066-4.215-.2-2.42,1.938-4.733,4.543-7.289,1.3-1.276,2.729-3.011,4.24-4.848,3.314-4.029,6.742-8.2,9.982-9.086,4.584-1.261,12.407-1.475,12.737-1.484l.021.808c-.08,0-8.056.22-12.543,1.455-2.994.823-6.489,5.072-9.573,8.821-1.525,1.854-2.965,3.6-4.3,4.911-2.457,2.411-4.477,4.575-4.3,6.645.1,1.23.994,2.414,2.723,3.62.463.322.982.7,1.532,1.1,4.893,3.535,13.339,9.637,24.134,9.638a28.923,28.923,0,0,0,6.249-.687l.174.789A29.57,29.57,0,0,1,6450.076,1931.256Z" transform="translate(-6420.83 -1893.464)" fill="#fff"/>
        </g>
      </g>
      <g id="Сгруппировать_76344" data-name="Сгруппировать 76344" transform="translate(0 74.291)">
        <g id="Сгруппировать_76343" data-name="Сгруппировать 76343">
          <path id="Контур_41376" data-name="Контур 41376" d="M6342.528,1921.826c-6.605-3.148-10.1-8.114-10.145-11.392a3.077,3.077,0,0,1,1.635-2.964,19.962,19.962,0,0,0,2.969-1.918,11.179,11.179,0,0,1,5.969-2.624c4.339-.519,14.191,1.809,14.608,1.908l-.187.786c-.1-.024-10.129-2.393-14.325-1.892a10.378,10.378,0,0,0-5.584,2.47,20.577,20.577,0,0,1-3.085,1.99,2.312,2.312,0,0,0-1.192,2.233,9.146,9.146,0,0,0,2.435,5.26,21.279,21.279,0,0,0,7.249,5.413Z" transform="translate(-6332.383 -1902.853)" fill="#fff"/>
        </g>
      </g>
      <g id="Сгруппировать_76346" data-name="Сгруппировать 76346" transform="translate(45.142 63.422)">
        <g id="Сгруппировать_76345" data-name="Сгруппировать 76345">
          <path id="Контур_41377" data-name="Контур 41377" d="M6805.152,1838.233c-1.541,0-3.732-1.507-6.334-4.387a47.365,47.365,0,0,0-8.212-7.248c-3.426-2.494-5.9-4.3-8.516-10.811-2.227-5.552-2.745-9.122-2.787-11.139a6.527,6.527,0,0,1,.458-3.115l.176.1h0c-.026.048-1.875,3.571,2.34,14.078,2.592,6.462,5.048,8.249,8.447,10.723a47.54,47.54,0,0,1,8.244,7.276c4.324,4.788,6.33,4.589,7.14,4.044,1.622-1.09,1.375-5.231-.55-9.23-1.937-4.024-1.667-5.647-1.4-7.217a7.971,7.971,0,0,0-.289-4.405c-.726-2.266-3.185-4.853-6.033-7.847-3.415-3.591-7.665-8.061-10.6-13.715l.179-.093c2.923,5.628,7.162,10.086,10.568,13.669,2.982,3.137,5.339,5.615,6.079,7.925a8.231,8.231,0,0,1,.3,4.5c-.257,1.539-.522,3.13,1.387,7.1,1.968,4.087,2.184,8.342.481,9.486A1.87,1.87,0,0,1,6805.152,1838.233Z" transform="translate(-6779.3 -1795.247)" fill="#fff"/>
        </g>
      </g>
      <g id="Сгруппировать_76348" data-name="Сгруппировать 76348" transform="translate(63.056 54.394)">
        <g id="Сгруппировать_76347" data-name="Сгруппировать 76347">
          <path id="Контур_41378" data-name="Контур 41378" d="M6996.888,1750.778c-.061-.105-6.224-10.676-21.216-22.772a81.629,81.629,0,0,1-15.206-15.628,33.7,33.7,0,0,1-3.812-6.443l.189-.073a33.474,33.474,0,0,0,3.793,6.407,81.441,81.441,0,0,0,15.162,15.58c15.025,12.122,21.2,22.723,21.265,22.829Z" transform="translate(-6956.655 -1705.862)" fill="#fff"/>
        </g>
      </g>
      <g id="Сгруппировать_76350" data-name="Сгруппировать 76350" transform="translate(74.56 45.312)">
        <g id="Сгруппировать_76349" data-name="Сгруппировать 76349">
          <path id="Контур_41379" data-name="Контур 41379" d="M7115.229,1636.034c-2.529-.351-4.437-1.505-8.618-4.035-2.637-1.6-6.249-3.78-11.516-6.666a85.442,85.442,0,0,0-24.546-9.183l.032-.2a85.652,85.652,0,0,1,24.611,9.205c5.271,2.888,8.885,5.074,11.522,6.67,4.158,2.514,6.055,3.662,8.542,4.007Z" transform="translate(-7070.549 -1615.951)" fill="#fff"/>
        </g>
      </g>
      <g id="Сгруппировать_76352" data-name="Сгруппировать 76352" transform="translate(49.709 67.958)">
        <g id="Сгруппировать_76351" data-name="Сгруппировать 76351">
          <path id="Контур_41380" data-name="Контур 41380" d="M6848.316,1883.031a74.3,74.3,0,0,0-13.589-24.62,53.112,53.112,0,0,1-8.8-13.43,16.064,16.064,0,0,1-1.413-4.816l.2-.011a16.227,16.227,0,0,0,1.4,4.764,52.962,52.962,0,0,0,8.761,13.361,72.93,72.93,0,0,1,10.509,16.663,63.524,63.524,0,0,1,3.121,8.032Z" transform="translate(-6824.514 -1840.155)" fill="#fff"/>
        </g>
      </g>
      <g id="Сгруппировать_76354" data-name="Сгруппировать 76354" transform="translate(1.389 74.527)">
        <g id="Сгруппировать_76353" data-name="Сгруппировать 76353">
          <path id="Контур_41381" data-name="Контур 41381" d="M6346.338,1915.972l-.2-.041a5.167,5.167,0,0,1,4.017-3.591c1.53-.366,2.315-1.728,3.147-3.17.991-1.718,2.015-3.495,4.388-3.984l.041.2c-2.285.471-3.286,2.208-4.254,3.887-.854,1.481-1.66,2.879-3.275,3.265A4.964,4.964,0,0,0,6346.338,1915.972Z" transform="translate(-6346.14 -1905.185)" fill="#fff"/>
        </g>
      </g>
      <g id="Сгруппировать_76356" data-name="Сгруппировать 76356" transform="translate(14.335 74.563)">
        <g id="Сгруппировать_76355" data-name="Сгруппировать 76355">
          <path id="Контур_41382" data-name="Контур 41382" d="M6475.482,1933.378l-.195-.053a.05.05,0,0,0,0,.008,2.7,2.7,0,0,0-.156-.432,7.939,7.939,0,0,1,2.077-9.673c.91-.831,1.713-1.542,2.422-2.169,3.3-2.92,4.664-4.128,6.173-7.934l.171-.433c1.7-4.292,2.474-6.25,6.149-7.154l.048.2c-3.574.879-4.287,2.68-6.01,7.032l-.171.433c-1.527,3.85-2.9,5.068-6.227,8.01-.708.627-1.51,1.337-2.419,2.167a7.756,7.756,0,0,0-2.026,9.448C6475.461,1933.178,6475.505,1933.294,6475.482,1933.378Z" transform="translate(-6474.305 -1905.539)" fill="#fff"/>
        </g>
      </g>
      <g id="Сгруппировать_76358" data-name="Сгруппировать 76358" transform="translate(40.661 71.222)">
        <g id="Сгруппировать_76357" data-name="Сгруппировать 76357">
          <path id="Контур_41383" data-name="Контур 41383" d="M6765.719,1912.76a1.8,1.8,0,0,0-.458-1.324c-.409-.342-1.125-.257-2.114-.139a13.22,13.22,0,0,1-4.785-.12,8.271,8.271,0,0,0-5.044.309,10.786,10.786,0,0,1-5.5.523,6.8,6.8,0,0,1-5.407-4.446,20.044,20.044,0,0,1-1.351-7.786c-.021-3.452-1.272-6.222-2.856-9.729-.777-1.72-1.659-3.67-2.468-5.91a12.844,12.844,0,0,1-.187-8.344,11.731,11.731,0,0,1,1.633-3.325l.16.124a11.523,11.523,0,0,0-1.6,3.271,12.65,12.65,0,0,0,.188,8.206c.806,2.233,1.686,4.179,2.462,5.9,1.594,3.529,2.853,6.316,2.875,9.811a19.849,19.849,0,0,0,1.334,7.706,6.612,6.612,0,0,0,5.25,4.326,10.61,10.61,0,0,0,5.408-.516,8.441,8.441,0,0,1,5.15-.313,13.039,13.039,0,0,0,4.716.116c1.041-.124,1.792-.213,2.268.185a1.974,1.974,0,0,1,.53,1.467Z" transform="translate(-6734.944 -1872.47)" fill="#fff"/>
        </g>
      </g>
      <g id="Сгруппировать_76360" data-name="Сгруппировать 76360" transform="translate(19.043 81.255)">
        <g id="Сгруппировать_76359" data-name="Сгруппировать 76359">
          <path id="Контур_41384" data-name="Контур 41384" d="M6540.246,2000.973l-.2-.04a6.676,6.676,0,0,0-.9-5.6,9.151,9.151,0,0,1-1.364-6.06c.24-3.195-.8-4.151-1.909-5.164s-2.27-2.079-2.008-5.517c.295-3.885-.023-6.346-.851-6.582-.373-.106-1.242.184-2.874,3.319a52.014,52.014,0,0,0-2.274,5.045,14.728,14.728,0,0,1-4.4,6.686,6.919,6.919,0,0,0-2.334,5.652,8.851,8.851,0,0,0,.671,2.977l-.183.085a8.841,8.841,0,0,1-.689-3.045,7.112,7.112,0,0,1,2.4-5.82,14.566,14.566,0,0,0,4.349-6.611,51.706,51.706,0,0,1,2.283-5.063c1.295-2.488,2.341-3.639,3.107-3.42,1.289.368,1.178,4.413,1,6.792-.255,3.34.813,4.317,1.943,5.352,1.092,1,2.222,2.035,1.974,5.328a8.878,8.878,0,0,0,1.339,5.945A6.916,6.916,0,0,1,6540.246,2000.973Z" transform="translate(-6520.92 -1971.793)" fill="#fff"/>
        </g>
      </g>
    </g>
  </g>
</svg>
