<svg xmlns="http://www.w3.org/2000/svg" width="307.326" height="313.105" viewBox="0 0 307.326 313.105">
  <g id="Сгруппировать_76364" data-name="Сгруппировать 76364" transform="translate(0 313.105) rotate(-90)">
    <path id="Контур_41385" data-name="Контур 41385" d="M312.207,135.777A128.986,128.986,0,0,0,301.358,97a125.194,125.194,0,0,0-22.073-33.288V63.6l-.049-.025h0l-.114-.057a154.394,154.394,0,0,0-35.693-35.562c-2.263-1.617-4.61-3.2-6.977-4.7l-.007.011a111.052,111.052,0,0,0-23.908-12.372,162.26,162.26,0,0,0-28.853-7.944A182.593,182.593,0,0,0,152.969.009a156.5,156.5,0,0,0-29.792,2.425v0A154.169,154.169,0,0,0,6.194,109.969l-.02.064a153.842,153.842,0,0,0,36,149.173,154.562,154.562,0,0,0,54.751,37.186,153.056,153.056,0,0,0,56.945,10.934q5.351,0,10.706-.368a154.984,154.984,0,0,0,32.493-5.749,153.276,153.276,0,0,0,55.69-29.713,155.151,155.151,0,0,0,21.556-22.053,4.183,4.183,0,0,0,1.912.669c1.7.084,2.939-1.285,3.932-2.633a175.964,175.964,0,0,0,15.574-25.372,168.965,168.965,0,0,0,10.982-27.662,155.073,155.073,0,0,0,5.716-29.07A140.272,140.272,0,0,0,312.207,135.777ZM186.1,171.113h0a44.328,44.328,0,0,1-29.9,14.153q-1.655.114-3.3.114a43.811,43.811,0,0,1-26.821-8.868c-8.3-6.4-13.248-15.314-13.922-25.112s3-19.31,10.349-26.784a44.209,44.209,0,0,1,28.632-12.8q1.642-.113,3.264-.112c16.614,0,31.563,8.768,37.848,22.493a32.918,32.918,0,0,1,2.867,10.73c.024.262.045.517.061.756A34.469,34.469,0,0,1,186.1,171.113Z" transform="translate(0 0)" fill="#111011"/>
    <g id="Сгруппировать_76363" data-name="Сгруппировать 76363" transform="translate(0)">
      <path id="Контур_41386" data-name="Контур 41386" d="M14.388,66.589a44.8,44.8,0,0,0,27.426,9.074q1.674,0,3.364-.116a46.863,46.863,0,0,0,17.23-4.52,42.618,42.618,0,0,0,13.343-9.961,35.453,35.453,0,0,0,9.332-26.16c-.017-.247-.038-.51-.063-.78a33.9,33.9,0,0,0-2.953-11.053,36.343,36.343,0,0,0-6.763-9.926,40.74,40.74,0,0,0-9.763-7.51A45.978,45.978,0,0,0,39.985.116,45.2,45.2,0,0,0,10.713,13.21C3.162,20.889-.614,30.673.081,40.759S5.856,60.017,14.388,66.589ZM11.421,13.906a44.208,44.208,0,0,1,28.632-12.8Q41.694.994,43.317.994C59.93.994,74.88,9.762,81.165,23.488a32.923,32.923,0,0,1,2.867,10.73c.024.263.045.517.061.756A34.47,34.47,0,0,1,75.012,60.4h0a44.328,44.328,0,0,1-29.9,14.153q-1.655.114-3.3.114A43.809,43.809,0,0,1,14.994,65.8c-8.3-6.4-13.248-15.314-13.922-25.112S4.072,21.38,11.421,13.906Z" transform="translate(111.09 110.71)" fill="#fff"/>
      <path id="Контур_41387" data-name="Контур 41387" d="M13.02,82.4c.693.887,1.428,1.869,2.31,3.091,1.782,2.466,5.946,7.122,13.807,10.6a56.049,56.049,0,0,0,22.822,4.351,91.16,91.16,0,0,0,13.47-1.06c20.942-3.134,31.538-14.228,36.74-22.984a49.773,49.773,0,0,0,6.679-21.565,50.868,50.868,0,0,0-2.792-21.151c-4.092-11.21-12.223-20.295-23.514-26.272A63.182,63.182,0,0,0,65.221,1.345,72.076,72.076,0,0,0,46.286.175a52.441,52.441,0,0,0-33.32,15.662A47.842,47.842,0,0,0,3.026,30.6,36.849,36.849,0,0,0,.081,47.475,64.873,64.873,0,0,0,13.02,82.4Zm.389-66.126A51.813,51.813,0,0,1,46.329.795q2.6-.179,5.152-.178c25.243,0,46.576,12.959,53.991,33.278a50.569,50.569,0,0,1-3.836,42.186c-5.134,8.639-15.6,19.588-36.3,22.687-14.189,2.124-26.283,1.032-35.949-3.246-7.728-3.42-11.809-7.982-13.555-10.4-.888-1.229-1.627-2.217-2.325-3.11A64.236,64.236,0,0,1,.7,47.433C-.043,36.636,4.59,25.278,13.41,16.272Z" transform="translate(99.578 104.786)" fill="#fff"/>
      <path id="Контур_41388" data-name="Контур 41388" d="M5.971,66.66c2.783,4.609,5.97,6.77,9.345,9.059a32.29,32.29,0,0,1,9,8.134c2.621,3.612,8.645,7.937,17.7,9.244a36.622,36.622,0,0,0,5.24.374,40.648,40.648,0,0,0,10.9-1.533,55.069,55.069,0,0,0,18.717-9.712A47.907,47.907,0,0,0,90.129,66.853a45.1,45.1,0,0,0,4.965-16.167,54.437,54.437,0,0,0-3.147-24.947c-1.98-5.033-8.269-12.617-17.856-18.216A55.538,55.538,0,0,0,36.129.877h0A54.239,54.239,0,0,0,23.846,5.371a48.113,48.113,0,0,0-10.294,6.9A35.972,35.972,0,0,0,4.975,23.416a46.934,46.934,0,0,0-4.783,25.1A43.179,43.179,0,0,0,5.971,66.66ZM5.2,23.525C9.705,14.255,17.884,8.659,23.951,5.6A54.046,54.046,0,0,1,36.172,1.122,55.3,55.3,0,0,1,73.965,7.737c9.536,5.569,15.787,13.1,17.751,18.092,1.38,3.507,12.682,34.88-15,56.2C65.254,90.861,54.982,93.222,47.277,93.222a36.574,36.574,0,0,1-5.227-.372c-8.974-1.3-14.94-5.573-17.531-9.144a32.5,32.5,0,0,0-9.062-8.194C12.1,73.24,8.938,71.093,6.184,66.531.32,56.819-3.018,40.422,5.2,23.525Z" transform="translate(105.873 107.633)" fill="#fff"/>
      <path id="Контур_41389" data-name="Контур 41389" d="M5.9,80.144c1.014,1.65,1.764,2.934,2.433,4.165l1.418,2.608c.658,1.212,1.265,2.423,1.719,3.342,7.255,14.672,19.11,23.777,36.245,27.837a101.839,101.839,0,0,0,23.3,3.022c12.391,0,22.429-3.136,29.981-9.391,1.794-1.485,3.462-3.172,5.076-4.8a55.014,55.014,0,0,1,6.627-6,55.5,55.5,0,0,1,5.25-3.234,38.136,38.136,0,0,0,7.339-4.941c7.661-7.114,8.085-19.02,7.736-27.357a64.8,64.8,0,0,0-2.3-16.038c-3.031-10.03-9.93-18.354-14.856-23.743a100.162,100.162,0,0,0-16.6-14.8A60.675,60.675,0,0,0,79.376,1.523C66.108-1.756,50.81.3,36.3,7.31c-14.81,7.155-26.17,18.164-31.988,31a48.548,48.548,0,0,0-4.3,21.255A41.477,41.477,0,0,0,5.9,80.144ZM4.426,38.361c5.806-12.809,17.145-23.8,31.929-30.94,14.483-7,29.751-9.05,42.991-5.778,12.558,3.1,24.476,10.97,36.432,24.05,4.917,5.38,11.8,13.689,14.829,23.695A64.653,64.653,0,0,1,132.9,65.4c.347,8.312-.073,20.182-7.7,27.262a38.073,38.073,0,0,1-7.316,4.923,55.549,55.549,0,0,0-5.262,3.241,55.117,55.117,0,0,0-6.643,6.017c-1.611,1.628-3.278,3.312-5.067,4.793-11.8,9.774-29.691,11.908-53.176,6.344-17.1-4.051-28.925-13.134-36.162-27.771-.455-.92-1.062-2.132-1.721-3.346L8.442,84.25c-.67-1.233-1.421-2.519-2.436-4.171C-1.266,68.24-1.872,52.255,4.426,38.361Z" transform="translate(90.063 95.887)" fill="#fff"/>
      <path id="Контур_41390" data-name="Контур 41390" d="M88.374.215h0l-.023,0h0A83.623,83.623,0,0,0,73.112,3.6a114.65,114.65,0,0,0-12.935,5,109.959,109.959,0,0,0-12.323,6.51l.005.009C32.227,25.388,20.2,39.8,12.121,57.956,6.954,69.565,3.379,80.117,1.5,89.319-.1,97.1-.425,103.805.549,108.7l.014,0c.213.8.941,2.848,2.885,3.355a3.708,3.708,0,0,0,.941.117,8.18,8.18,0,0,0,4.3-1.618c2.571-1.7,5.628-4.737,9.087-9.036a17.814,17.814,0,0,1,5.559-4.157c3.194-1.795,6.814-3.829,9.633-9.234,3.233-6.2,4.9-15.864,5.1-29.553.151-10.413,4.81-19.613,14.243-28.123,8.129-7.334,18.315-12.872,27.3-17.758C84.184,10.2,88.5,7.856,91.842,5.623l0,.005.144-.1L92,5.518h0c2.835-2.043,4.045-3.491,3.693-4.421C95.292.038,92.9-.25,88.374.215Zm3.488,5.248c-3.347,2.248-7.7,4.614-12.3,7.118C70.565,17.47,60.372,23.012,52.233,30.355,42.773,38.89,38.1,48.118,37.95,58.567c-.2,13.669-1.862,23.318-5.086,29.5-2.8,5.373-6.406,7.4-9.585,9.184a17.9,17.9,0,0,0-5.594,4.187c-3.451,4.289-6.5,7.321-9.058,9.01-2.038,1.345-3.77,1.845-5.147,1.486-2.109-.55-2.744-2.985-2.853-3.489-.916-4.857-.575-11.452.99-19.1C3.5,80.151,7.071,69.607,12.235,58.006c8.072-18.135,20.08-32.527,35.692-42.779l0,0a109.8,109.8,0,0,1,12.308-6.5,114.653,114.653,0,0,1,12.919-5A83.5,83.5,0,0,1,88.39.353l0-.015c4.4-.452,6.815-.182,7.187.8C95.9,2.005,94.653,3.46,91.862,5.463Z" transform="translate(35.994 48.339)" fill="#fff"/>
      <path id="Контур_41391" data-name="Контур 41391" d="M312.207,135.777A128.979,128.979,0,0,0,301.358,97a125.183,125.183,0,0,0-22.073-33.288V63.6l-.049-.025h0l-.114-.057a154.4,154.4,0,0,0-35.693-35.562c-2.263-1.617-4.61-3.2-6.977-4.7l-.007.011a111.052,111.052,0,0,0-23.908-12.372,162.26,162.26,0,0,0-28.853-7.944A182.593,182.593,0,0,0,152.969.009a156.5,156.5,0,0,0-29.792,2.425v0A154.169,154.169,0,0,0,6.194,109.969l-.02.064a153.842,153.842,0,0,0,36,149.173,154.564,154.564,0,0,0,54.751,37.186,153.06,153.06,0,0,0,56.946,10.934q5.351,0,10.706-.368a154.982,154.982,0,0,0,32.493-5.749,153.276,153.276,0,0,0,55.69-29.713,155.151,155.151,0,0,0,21.556-22.053,4.183,4.183,0,0,0,1.912.669c1.7.084,2.939-1.285,3.932-2.633a175.964,175.964,0,0,0,15.574-25.372,168.965,168.965,0,0,0,10.982-27.662,155.073,155.073,0,0,0,5.716-29.07A140.272,140.272,0,0,0,312.207,135.777Zm-3.54-14.461c-.629.72-1.307,1.409-1.968,2.079a25.819,25.819,0,0,0-3.436,4c-3.658,5.669-2.343,12.882-1.072,19.858,1.391,7.632,2.7,14.84-1.867,20.28-1.865,2.217-5.166,3.6-7.464,2.085a6.434,6.434,0,0,1-2.388-4.036c-1.518-5.894-.374-12.1.731-18.1q.175-.95.346-1.9c1.217-6.781,1.915-13.879-1.187-19.845-2.668-5.138-8.874-8.2-13.8-7.024a17.073,17.073,0,0,0,3.865-6.544,13.472,13.472,0,0,0,.318-6.573c.581.729,1.1,1.528,1.613,2.308,1.205,1.847,2.452,3.757,4.472,4.657a5.22,5.22,0,0,0,2.134.451,6.422,6.422,0,0,0,3.56-1.154,8.559,8.559,0,0,0,3.8-7.021c-.119-4.16-3-8.352-7.918-11.5-1.749-1.121-3.633-2.085-5.454-3.018a48.7,48.7,0,0,1-7.1-4.16c-3.549-2.662-6.995-7.28-6.023-12.259.482-2.46,1.982-4.559,3.433-6.589a27.853,27.853,0,0,0,2.692-4.294c.144-.31.276-.63.4-.954q.892.91,1.768,1.843l.3.317v0l.006.006.012.013A126.6,126.6,0,0,1,308.666,121.316Zm-35.927-.483a13.724,13.724,0,0,1-11.152,2.631,14.652,14.652,0,0,1-9.713-7.167,15.092,15.092,0,0,1,13.079-22.557,15.149,15.149,0,0,1,4.007.543,14.981,14.981,0,0,1,9.119,7.077C281.934,108.123,279.938,115.4,272.74,120.834ZM220.006,28.087c.829.453,1.661.9,2.494,1.333,3.511,1.822,7.162,3.462,10.76,5.033a3.088,3.088,0,0,0-1.17,2.205,7.422,7.422,0,0,0,2.629,5.857c.621.53,1.31,1.037,1.976,1.528,2.007,1.479,4.083,3.008,4.634,5.377a10.839,10.839,0,0,1-.593,5.262c-.574,2.057-1.167,4.183-.221,6.075,1.173,2.346,3.929,2.986,6.593,3.6.52.121,1.059.246,1.565.38a18.352,18.352,0,0,1,13,13.788,38.891,38.891,0,0,1,.573,5.83c.139,2.887.282,5.867,1.387,8.443a16.175,16.175,0,0,0-11.052,5.782,26.116,26.116,0,0,1-.894-6.47c-.022-.709-.032-1.438-.043-2.142-.059-3.847-.119-7.826-1.865-11.256a9.847,9.847,0,0,0-6.3-4.958,5.923,5.923,0,0,0-5.056.937,12.693,12.693,0,0,0-3.049,4.05c-1.163,2.058-2.261,4-4.409,4.517a4.026,4.026,0,0,1-3.623-.939,8.846,8.846,0,0,1-2.758-6.945,31.554,31.554,0,0,1,.677-4.357c.5-2.454,1.016-4.99.441-7.452-.109-.464-.258-.928-.4-1.376a9.024,9.024,0,0,1-.565-2.648,9,9,0,0,1,1.116-3.756,16.053,16.053,0,0,0,.9-2.234c1.644-5.693-3.172-10.736-8.62-15.338-1.98-1.673-4.532-4.23-3.836-7.1.714-2.942,2.759-2.977,5.589-3.026Zm35.513,17.278a110.1,110.1,0,0,1,20.73,16.6c-.124.34-.261.676-.412,1a27.754,27.754,0,0,1-2.68,4.274c-1.459,2.041-2.967,4.151-3.454,6.638-.983,5.036,2.491,9.7,6.07,12.382a48.744,48.744,0,0,0,7.118,4.171c1.819.931,3.7,1.895,5.444,3.012,4.878,3.127,7.743,7.282,7.861,11.4a8.43,8.43,0,0,1-3.745,6.914,5.655,5.655,0,0,1-5.575.693c-1.986-.884-3.167-2.694-4.418-4.611a27.508,27.508,0,0,0-1.772-2.505,16.18,16.18,0,0,0-11.463-12.012,16.08,16.08,0,0,0-5.46-.533c-1.112-2.564-1.255-5.547-1.394-8.438a38.968,38.968,0,0,0-.575-5.849,18.479,18.479,0,0,0-13.088-13.883c-.508-.135-1.047-.26-1.568-.381-2.637-.612-5.362-1.245-6.51-3.538-.925-1.849-.364-3.858.229-5.986a10.927,10.927,0,0,0,.595-5.323c-.562-2.413-2.656-3.957-4.682-5.449-.664-.49-1.351-1-1.969-1.523a7.4,7.4,0,0,1-2.586-5.749,2.963,2.963,0,0,1,1.177-2.161q1.165.508,2.321,1.009c4.227,1.835,8.6,3.731,12.758,5.868,2.345,1.205,4.675,2.517,6.926,3.9ZM7.122,110.331l.021-.07q.642-2.188,1.346-4.347c8.454-20.02,39.2-79.4,111.171-94.4,4.3-.9,8.672-1.625,12.993-2.164l-.031-.246c-4.327.539-8.706,1.268-13.013,2.166A146.453,146.453,0,0,0,69.3,31.939,156.67,156.67,0,0,0,35.211,62.284a177.2,177.2,0,0,0-25.85,41.03A152.46,152.46,0,0,1,123.374,3.406l0-.017A155.453,155.453,0,0,1,152.959.983a181.687,181.687,0,0,1,30.55,2.923,161.309,161.309,0,0,1,28.679,7.9,110.054,110.054,0,0,1,23.733,12.286l0,0,.116.074.175.122,0-.007c2.251,1.436,4.483,2.942,6.636,4.481a153.4,153.4,0,0,1,31.1,29.557,110.307,110.307,0,0,0-17.789-13.728l-.01-.019-.129-.068q-1.4-.861-2.829-1.681a186.962,186.962,0,0,0-26.693-16.6l.008-.014a144.987,144.987,0,0,0-33.875-13.3,166.063,166.063,0,0,0-30.059-4.782c-17.724-1.194-29.76.756-29.845.778l.064.271c.106-.021,12.049-1.979,29.9-.762A165.727,165.727,0,0,1,192.647,13.2a144.712,144.712,0,0,1,33.724,13.256l.006-.012a186.363,186.363,0,0,1,25.047,15.39q-1.245-.683-2.5-1.33c-4.189-2.151-8.575-4.054-12.816-5.9-4.36-1.892-8.868-3.849-13.149-6.07-2.367-1.23-4.732-2.573-7.019-3.872l-.674-.383-.014.024c-1.431-.73-9.62-5.134-10.894-5.691-4.613-2.018-8.665-2.489-13.357-3.034l-1.452-.17A76.435,76.435,0,0,1,173.3,11.631a44.681,44.681,0,0,0-31.264,1.028,15.339,15.339,0,0,0-5.645,4.042A152.574,152.574,0,0,0,95.723,27.343,160.916,160.916,0,0,0,56.477,50.8a138.47,138.47,0,0,0-32.8,38.446A163.438,163.438,0,0,0,7.409,128.727a178.68,178.68,0,0,0-5.93,36.685q-.063-.787-.118-1.575A152.522,152.522,0,0,1,7.122,110.331ZM164.511,305.967q-5.329.367-10.622.366A152.938,152.938,0,0,1,1.943,170.291a172.22,172.22,0,0,1,6.071-41.422c6.02-22.268,19.382-53.8,48.853-77.583a156.083,156.083,0,0,1,79-33.9A7.675,7.675,0,0,0,135,19.035a5.09,5.09,0,0,0,.154,4.178,5.3,5.3,0,0,0,1.351,1.742C112.041,28.8,87.778,38.161,68.1,51.343A128.556,128.556,0,0,0,40.509,75.909a98.313,98.313,0,0,0-17.84,31.713,231.3,231.3,0,0,0-6.576,24.092,133.967,133.967,0,0,0,11.542,89.057,132.972,132.972,0,0,0,17.006,25.561,167.314,167.314,0,0,0,31.8,29.3A128.236,128.236,0,0,0,119.868,295.4a162.147,162.147,0,0,0,37.768,4.564q4.608,0,9.171-.28a144.859,144.859,0,0,0,75.486-26.73,142.135,142.135,0,0,0,25.33-23.084c1.7-1.272,3.39-2.029,5.191-1.275a5.552,5.552,0,0,1,.646.329A153.4,153.4,0,0,1,164.511,305.967Zm-5.8-262.715c.01.107.017.213.021.319.091,2.981-2.219,5.442-4.243,7.253-7.279,6.508-16.051,11.219-24.412,15.487l-.029-.054c-2.577,1.384-5.085,2.68-7.51,3.933-11.85,6.123-22.084,11.411-29.766,21.65A63.276,63.276,0,0,0,83.143,111.7c-2.638,8.653-4.452,19.07-5.544,31.844a33.055,33.055,0,0,1-1.857,8.813,22.245,22.245,0,0,1-3.439,6.152c-2.708,3.417-6.207,5.711-9.591,7.93-4.822,3.161-9.807,6.43-12.9,13.04h0l-.024.054-.014.03h0l-.041.092c-1.54,3.511-1.643,7.443-1.742,11.247-.037,1.4-.074,2.84-.183,4.241-.24,3.116-1.43,10.607-7.272,12.871a6.853,6.853,0,0,1-5.82-.229c-3.6-1.846-6.576-6.943-8.6-14.738l-1.994-9.482C17.641,148.6,25.972,111.1,46.411,83.245c21.254-28.965,54.815-47.236,89.773-48.876,5.186-.242,11.212-.17,16.569,2.208.061.027.124.057.186.086C153.371,39.85,155.877,42.079,158.708,43.252Zm-5.779-9.243a14.276,14.276,0,0,0-.007,2.509l-.117-.054c-5.381-2.388-11.424-2.461-16.625-2.219a116.864,116.864,0,0,0-50.32,14.422A120.512,120.512,0,0,0,33.12,105.98a130.781,130.781,0,0,0-8.2,25.061,134.186,134.186,0,0,0-3.081,26.231A131.559,131.559,0,0,0,24,183.592l2,9.486c2.034,7.834,5.03,12.958,8.664,14.82a6.834,6.834,0,0,0,3.151.781,7.643,7.643,0,0,0,2.771-.547,10.166,10.166,0,0,0,5.366-5.246,21.467,21.467,0,0,0,1.985-7.731c.109-1.4.146-2.849.183-4.247.1-3.791.2-7.712,1.731-11.2l.078-.176h0c3.077-6.578,8.046-9.836,12.853-12.988,3.392-2.224,6.9-4.523,9.619-7.956a22.38,22.38,0,0,0,3.458-6.185,33.171,33.171,0,0,0,1.864-8.845c1.092-12.766,2.9-23.175,5.54-31.82a63.153,63.153,0,0,1,9.606-19.825C100.53,81.7,110.752,76.415,122.59,70.3c2.425-1.253,4.933-2.549,7.511-3.933l.029.056c8.368-4.272,17.149-8.987,24.439-15.5,2.044-1.829,4.378-4.317,4.284-7.349,0-.087-.008-.175-.015-.263a12.854,12.854,0,0,0,2.955.8,24.756,24.756,0,0,0,5.556.05A14.917,14.917,0,0,1,162.77,53.9c-.485.447-1.014.879-1.526,1.3a11.132,11.132,0,0,0-3.706,4.239c-1.178,3.009.567,6.449,2.9,8.291,2.5,1.977,5.746,2.777,8.607,3.483,2.2.542,3.963.98,5.6,1.392a16.437,16.437,0,0,0-2.347,1.974,13.126,13.126,0,0,0-3.174,5.6,76.625,76.625,0,0,0-35.713,1.629c-28.073,8.143-41.9,32.252-44.382,37a.535.535,0,0,0,.75.711,43.258,43.258,0,0,0,5.5-4.577c7.629-6.95,20.4-18.583,42.793-24.095a69.774,69.774,0,0,1,31.653-.829,12.879,12.879,0,0,0,2.968,4.334c3.406,3.23,8.057,4.44,12.555,5.611,1.111.289,2.259.588,3.36.911,21.473,6.3,37.173,27.923,36.521,50.293-.04,1.38-.138,2.794-.232,4.162-.264,3.834-.538,7.8.39,11.607a14.85,14.85,0,0,0,4.053,7.077,11.212,11.212,0,0,0,2.342,1.724c-1.986,26.966-21.627,52.154-47.93,61.375a73.008,73.008,0,0,1-24.956,4.014v-.015c-18.819.037-33.309-3.423-44.3-10.575-9.556-6.22-15.139-14.361-20.065-21.543a102.4,102.4,0,0,0-6.821-9.215,28.463,28.463,0,0,0-8.157-6.773l0,.006c-4.109-2.123-10.379-4.255-16.97-2.4a17.953,17.953,0,0,0-7.992,4.807,16.941,16.941,0,0,0-4.424,8A33.057,33.057,0,0,0,49.8,213c.125,1.807.255,3.675.209,5.5-.122,4.811-.167,6.611-4.923,8.327a3.341,3.341,0,0,1-.482.134,3.405,3.405,0,0,0-2.561,2.149,3.228,3.228,0,0,0,.5,3.13,152.391,152.391,0,0,0,22.289,22.871,162.375,162.375,0,0,0,26.692,18.036,165.057,165.057,0,0,0,29.907,12.535,159.941,159.941,0,0,0,31.933,6.367c4.7.442,9.284.663,13.735.663A121.5,121.5,0,0,0,180.47,292a116.571,116.571,0,0,0,38.848-11.544,128.582,128.582,0,0,0,32.869-23.312c.833-.813,1.657-1.639,2.456-2.462a5.666,5.666,0,0,0,2.253,1.076c3.175.693,5.809-1.64,8.356-3.9.632-.56,1.255-1.113,1.876-1.609C238.964,282.7,186,311.117,119.9,295.281c-27.991-6.706-53.279-23.2-75.161-49.03A134.411,134.411,0,0,1,16.214,131.74a231.061,231.061,0,0,1,6.573-24.079C38.478,60.427,91.151,32.2,136.629,25.061c1.942,1.547,4.9,1.8,7.78,2.037,3.7.31,7.185.6,8.274,3.5A8.2,8.2,0,0,1,152.929,34.009Zm37.729,28.66c-6.325-2.426-10.023-4.648-9.086-8.049a15.609,15.609,0,0,0-.458-10.32,16.986,16.986,0,0,1,6.874,3.5c4.039,3.51,5.517,9.341,3.438,13.564A10.065,10.065,0,0,1,190.658,62.668Zm-9.7-18.407a15.472,15.472,0,0,1,.49,10.326c-.961,3.484,2.76,5.739,9.133,8.186-2.113,2.965-5.628,4.586-9.323,6.289a43.2,43.2,0,0,0-6.479,3.443c-1.67-.419-3.461-.864-5.708-1.418-2.848-.7-6.077-1.5-8.56-3.46-2.3-1.814-4.019-5.2-2.862-8.149a11.041,11.041,0,0,1,3.669-4.188c.513-.419,1.044-.853,1.532-1.3a15.044,15.044,0,0,0,4.62-9.847c.772-.066,1.539-.148,2.3-.23,1.271-.136,2.586-.277,3.871-.338A24.914,24.914,0,0,1,180.962,44.261ZM49.925,212.994a32.959,32.959,0,0,1,.262-9.541,17.785,17.785,0,0,1,12.328-12.718c6.551-1.847,12.789.275,16.878,2.388l0,.007a28.333,28.333,0,0,1,8.117,6.741,102.314,102.314,0,0,1,6.812,9.2c4.933,7.193,10.525,15.345,20.1,21.581,10.954,7.131,25.374,10.6,44.081,10.6h.292q.4,0,.8,0a72.944,72.944,0,0,0,24.2-4.025,70.825,70.825,0,0,0,18.509-9.809,74.722,74.722,0,0,0,14.851-14.5,72.821,72.821,0,0,0,10.183-17.846A65.88,65.88,0,0,0,231.8,175.8a8.684,8.684,0,0,0,4.816,1.038,17.945,17.945,0,0,0,5.936-1.991c2.637-1.239,5.129-2.408,7.6-1.488,2.888,1.074,4.105,4.584,4.618,7.338a36.833,36.833,0,0,1,.3,11.386c-6.6,3.316-12.931,10.4-16.618,18.632-9.992,22.314-14.5,24.255-32.014,28.879-5.648,1.492-10.345,5.425-15.783,9.979-6.252,5.236-13.338,11.169-23.478,14.416l0-.011a77.936,77.936,0,0,1-22.327,1.315,117.08,117.08,0,0,1-20.19-3.41,127.906,127.906,0,0,1-20.262-6.945l-.005.012a288.74,288.74,0,0,1-28.543-14.613c-5.147-2.927-7.248-4.1-7.561-3.689-.255.335.642,1.552,6.105,7.015a147.908,147.908,0,0,0,23.82,18.186l.016.009h0c.481.313,10.524,6.761,26.572,11.869a135.763,135.763,0,0,0,29.29,5.906q5.6.49,11.187.49a125.559,125.559,0,0,0,25.077-2.518l0,.008.111-.031.073-.015v-.005A119.922,119.922,0,0,0,229.793,258.6l.169,0a9.7,9.7,0,0,0,6.759-2.558,29.909,29.909,0,0,0,3.02-3.568c2.215-2.9,4.307-5.648,7.371-5.019,1.971.4,3.255,2.134,4.616,3.964a16.615,16.615,0,0,0,2.817,3.191c-.8.819-1.615,1.642-2.445,2.45-20.038,19.555-45.481,31.921-71.644,34.822a133.417,133.417,0,0,1-27.077.05c-43.127-4.055-84.523-26.4-110.735-59.762a3.1,3.1,0,0,1-.484-3.01,3.281,3.281,0,0,1,2.469-2.071,3.488,3.488,0,0,0,.5-.139c2.357-.851,3.583-1.72,4.229-3s.712-2.893.776-5.441C50.181,216.675,50.051,214.8,49.925,212.994ZM218.153,248.9c.3,3.836,3.084,7.217,7.265,8.824a12.794,12.794,0,0,0,4.172.865,119.8,119.8,0,0,1-39.17,18.884,126.254,126.254,0,0,1-36.305,2.043,135.663,135.663,0,0,1-29.263-5.9c-16.353-5.2-26.464-11.8-26.565-11.868l-.033.051h0l.032-.051a147.782,147.782,0,0,1-23.8-18.168c-3.335-3.336-6.382-6.474-6.094-6.852.258-.34,3.254,1.364,7.4,3.722a288.893,288.893,0,0,0,28.552,14.618v0a128.1,128.1,0,0,0,20.283,6.953,117.255,117.255,0,0,0,20.215,3.414q3.49.261,6.84.261a73.077,73.077,0,0,0,15.5-1.573h0l.024,0v0c10.17-3.254,17.268-9.2,23.531-14.443,5.427-4.545,10.113-8.469,15.735-9.954,8.654-2.286,14.245-3.958,18.9-7.9,4.426-3.748,8-9.452,13.194-21.047,3.662-8.178,9.936-15.215,16.486-18.534-2,15.4-13,29.413-24.236,38.391l-.355.284a57.785,57.785,0,0,0-8.55,7.829C219.115,242.14,217.884,245.465,218.153,248.9Zm20.8,2.968a29.21,29.21,0,0,1-2.914,3.449c-2.511,2.381-6.444,2.948-10.264,1.48s-6.361-4.524-6.63-7.974c-.56-7.149,6.083-12.456,11.944-17.138l.356-.284a73.722,73.722,0,0,0,19.272-22.724,49.6,49.6,0,0,0,4.925-13.7,38.756,38.756,0,0,0,.109-14.462c-.8-4.312-2.617-7.109-5.248-8.088-2.865-1.066-5.664.249-8.371,1.52a17.229,17.229,0,0,1-5.6,1.9c-4.936.419-9.105-4.324-10.282-9.15-.891-3.659-.623-7.545-.364-11.3.095-1.378.193-2.8.234-4.2a53.4,53.4,0,0,0-37.234-51.275c-1.115-.327-2.271-.629-3.389-.919-4.376-1.139-8.9-2.317-12.122-5.371a12.509,12.509,0,0,1-3.593-6.892c1.712,3.286,5.379,5.363,8.448,6.218a42.082,42.082,0,0,0,8.653,1.151c1.54.1,3.133.2,4.684.388,10.89,1.342,21.447,7.489,28.964,16.864,6.751,8.42,11.113,19.315,12.616,31.508l.092.748c.838,6.864,1.787,14.643,7.877,17.481a18.259,18.259,0,0,0,3.518,1.092c.831.2,1.689.4,2.5.685,6.94,2.408,10.116,10.012,11.391,14.33a46.385,46.385,0,0,1-10.788,44.486c-2.052,2.147-4.348,4.122-6.568,6.032a72.764,72.764,0,0,0-8.142,7.775c-2.4,2.823-3.32,5.282-2.814,7.517.687,3.03,3.935,4.726,6.789,4.837l.413.016c.838.033,1.661.066,2.474.066a19.036,19.036,0,0,0,2.718-.171A23.13,23.13,0,0,0,238.952,251.87ZM168.571,84.541a14.826,14.826,0,0,0,1.1,5.339,69.921,69.921,0,0,0-31.625.848c-22.428,5.519-35.21,17.165-42.847,24.124a43.242,43.242,0,0,1-5.478,4.562.4.4,0,0,1-.49-.053.407.407,0,0,1-.085-.495c2.482-4.743,16.282-28.812,44.306-36.94A76.49,76.49,0,0,1,169.093,80.3,14.968,14.968,0,0,0,168.571,84.541ZM279.361,246.89c-.837,1.136-1.861,2.289-3.084,2.23a4.057,4.057,0,0,1-1.816-.75l-.026-.016a9.114,9.114,0,0,0-1.238-.674c-3.208-1.342-5.951,1.09-8.6,3.441-2.361,2.093-4.8,4.256-7.485,3.67-1.953-.427-3.23-2.146-4.583-3.966-1.412-1.9-2.871-3.863-5.213-4.345a5.387,5.387,0,0,0-4.5,1.127,27.134,27.134,0,0,1-5.391.139l-.413-.016c-2.807-.108-6-1.771-6.673-4.74-.5-2.195.415-4.618,2.788-7.41a72.645,72.645,0,0,1,8.128-7.761c2.222-1.912,4.52-3.889,6.577-6.041a46.725,46.725,0,0,0,10.817-44.607c-1.282-4.341-4.477-11.987-11.469-14.413-.821-.285-1.683-.49-2.516-.688a18.177,18.177,0,0,1-3.494-1.084c-6.027-2.809-6.972-10.552-7.806-17.384l-.091-.748c-1.506-12.216-5.877-23.133-12.643-31.571-7.537-9.4-18.123-15.564-29.045-16.91-1.555-.192-3.15-.292-4.692-.389a41.993,41.993,0,0,1-8.627-1.147c-3.154-.878-6.945-3.057-8.549-6.518a14.208,14.208,0,0,1-.151-1.8,12.9,12.9,0,0,1,3.448-9.255c2.313-2.374,5.542-3.862,8.665-5.3,4.211-1.941,8.566-3.949,10.639-8.159a11.228,11.228,0,0,0,.6-7.9,14.026,14.026,0,0,0-4.282-6.85c-3.646-3.169-8.988-4.757-15.042-4.472-1.315.062-2.645.2-3.931.342a31.555,31.555,0,0,1-7.735.2c-3.612-.515-7.524-2.949-8.011-6.6a12.653,12.653,0,0,1,0-2.445,9.07,9.07,0,0,0-.307-3.819c-1.31-3.487-5.281-3.821-9.121-4.143-3.658-.307-7.114-.6-8.45-3.331a4.134,4.134,0,0,1-.117-3.392c.958-2.541,3.953-4.749,6.5-5.81a43.673,43.673,0,0,1,30.557-1.006q.909.319,1.827.615a45.942,45.942,0,0,0-25.848,2.383,5.5,5.5,0,0,0-2.973,2.131,3.079,3.079,0,0,0-.214,2.427,6.232,6.232,0,0,0,3.036,3.446,21.109,21.109,0,0,0,4.462,1.538,29.509,29.509,0,0,1,3.253.991c2.291.9,4.942,2.945,4.873,5.767a8.821,8.821,0,0,1-.116,1.077,5.223,5.223,0,0,0-.06,1.8c.425,2.117,2.86,2.957,7.237,2.5a39.065,39.065,0,0,1,12.631.981,28.538,28.538,0,0,1,14.253,8.637,24.281,24.281,0,0,1,5.627,10.226c1.455,5.978-.4,12.218-4.614,15.527a25.018,25.018,0,0,1-7.6,3.552c-3,1.014-6.1,2.062-8.4,4.264-1.177,1.129-2.276,3.026-1.5,4.658a4.492,4.492,0,0,0,1.8,1.751c5.057,3.139,11.217,3.139,17.175,3.14,5.051,0,10.273,0,14.9,1.874,6.844,2.77,11.549,9.317,15.329,14.578,5.115,7.118,10.912,15.187,12.571,24.51.212,1.193.358,2.422.5,3.611a33.038,33.038,0,0,0,1.29,6.78c1,2.932,3.509,6.5,7.3,6.921a13.083,13.083,0,0,0,2.982-.128c.46-.055.935-.112,1.4-.144a14.292,14.292,0,0,1,14.639,14.052,27.632,27.632,0,0,1-.7,4.785,34.747,34.747,0,0,0-.646,3.857c-.4,4.471.955,8.876,2.271,13.137,1.2,3.872,2.432,7.876,2.351,11.934-.22,11.08-9.329,18.866-18.137,26.4-1.79,1.529-3.639,3.111-5.35,4.672-1.287,1.174-5.32,5.271-3.185,8.674,1.148,1.83,3.467,2.305,5.709,2.765,2.435.5,4.735.971,5.61,3.039a7.381,7.381,0,0,1,.349,2.979c-.022,1.3-.044,2.641.794,3.631a2.575,2.575,0,0,0,2.03.938,3.314,3.314,0,0,0,.4-.025,6.782,6.782,0,0,0,4.643-3.637c.256-.517.5-1.074.739-1.612,1-2.268,2.038-4.613,4.293-5.312a8.1,8.1,0,0,1,3.333-.065c.356.042.725.085,1.085.112,4.042.307,7.887-1.18,11.754-4.544a41.071,41.071,0,0,0,5.784-6.419A174.389,174.389,0,0,1,279.361,246.89Zm12.965-20.405c-4.589,6.322-10.531,12.258-17.992,11.69-.358-.027-.725-.07-1.08-.112a8.178,8.178,0,0,0-3.384.07c-2.309.716-3.357,3.087-4.37,5.38-.237.537-.482,1.093-.737,1.607a6.649,6.649,0,0,1-4.547,3.569,2.505,2.505,0,0,1-2.319-.87c-.808-.954-.787-2.214-.765-3.548a7.464,7.464,0,0,0-.359-3.029c-.9-2.128-3.34-2.628-5.7-3.112-2.217-.455-4.509-.925-5.629-2.71-2.085-3.322,1.894-7.358,3.163-8.516,1.709-1.559,3.558-3.14,5.347-4.669,8.829-7.547,17.96-15.351,18.181-26.488.081-4.078-1.158-8.092-2.357-11.973-1.312-4.249-2.668-8.642-2.265-13.089a34.632,34.632,0,0,1,.644-3.843,27.72,27.72,0,0,0,.7-4.807,14.417,14.417,0,0,0-14.772-14.18c-.47.032-.947.089-1.408.145a13.06,13.06,0,0,1-2.954.128c-3.729-.411-6.2-3.941-7.191-6.839a32.939,32.939,0,0,1-1.285-6.755c-.141-1.19-.287-2.421-.5-3.618-1.664-9.351-7.47-17.431-12.592-24.56-3.789-5.274-8.505-11.837-15.383-14.621-4.651-1.882-9.886-1.883-14.948-1.883-5.94,0-12.082,0-17.109-3.121a4.381,4.381,0,0,1-1.75-1.7c-.749-1.572.325-3.415,1.472-4.515,2.277-2.184,5.365-3.228,8.351-4.237a25.11,25.11,0,0,0,7.638-3.572c4.252-3.338,6.124-9.629,4.658-15.654a24.4,24.4,0,0,0-5.654-10.279A28.658,28.658,0,0,0,181.115,38.1a39.189,39.189,0,0,0-12.674-.984c-4.3.453-6.693-.353-7.1-2.4a5.142,5.142,0,0,1,.061-1.758,8.9,8.9,0,0,0,.118-1.092c.07-2.886-2.623-4.974-4.951-5.885a29.612,29.612,0,0,0-3.267-1,21.038,21.038,0,0,1-4.436-1.528,6.1,6.1,0,0,1-2.974-3.371,2.957,2.957,0,0,1,.2-2.331A5.4,5.4,0,0,1,149,15.682a45.814,45.814,0,0,1,27.032-2.11,77.377,77.377,0,0,0,13.4,2.826l1.456.171c4.612.536,8.6,1,13.073,2.958.458.2,1.93.96,3.683,1.879-7.5,2.129-21.339,2.036-27.186-.265-.923-.363-1.835-.809-2.716-1.24a22.329,22.329,0,0,0-4.628-1.849,11.355,11.355,0,0,0-8.674,1.57,3,3,0,0,0-.424,4.689c4.9,4.632,12.366,5.844,19.591,7.016,8.075,1.31,16.425,2.665,21.359,8.759a19.158,19.158,0,0,1,2.181,3.43,4.964,4.964,0,1,0,3.615,9.044,30.888,30.888,0,0,0,1.5,3.205c.426.779.889,1.565,1.379,2.4,2.495,4.232,5.322,9.028,2.6,12.837a11.434,11.434,0,0,1-2.832,2.514,11.411,11.411,0,0,0-2.881,2.571,5.788,5.788,0,0,0-.728,5.14,12.291,12.291,0,0,0,6.939,7.216,41.529,41.529,0,0,0,5.951,1.721c3.1.733,6.313,1.491,8.942,3.334,3.873,2.714,5.791,7.227,7.645,11.592,1.488,3.5,3.027,7.124,5.574,9.908a32.981,32.981,0,0,0,2.728,2.56,23.823,23.823,0,0,1,3.57,3.578,23.733,23.733,0,0,1,3.218,7.356,37.4,37.4,0,0,0,1.824,5.035,11.137,11.137,0,0,0,6.3,5.728,5.421,5.421,0,0,0,4.482-.485c1.619-.984,2.551-2.736,3.452-4.43.944-1.774,1.921-3.609,3.682-4.5a4.954,4.954,0,0,1,3.911-.222,10.792,10.792,0,0,1,5.72,5.329,20.532,20.532,0,0,1,.094,17.933c-.484.987-1.06,1.954-1.618,2.888a23.238,23.238,0,0,0-2.535,5.19c-1.5,5.088.605,10.2,2.645,15.148a52.668,52.668,0,0,1,2.681,7.56,23.824,23.824,0,0,1-5.291,21.12c-.848.952-1.791,1.854-2.7,2.725a26.96,26.96,0,0,0-4.456,5.034c-1.842,2.956-2.326,7.389.4,9.781a5.521,5.521,0,0,0,3.741,1.355,8.467,8.467,0,0,0,2.4-.373,15.463,15.463,0,0,0,6-3.637,38.247,38.247,0,0,0,11.121-20.747c.244-1.366.432-2.8.614-4.2.682-5.219,1.388-10.615,5.188-14.064a21.463,21.463,0,0,1,4.729-2.971c1-.513,2.031-1.043,2.989-1.655q.127-.082.253-.167A164.759,164.759,0,0,1,292.326,226.484ZM208.064,52.615a4.22,4.22,0,1,1,4.221-4.22A4.225,4.225,0,0,1,208.064,52.615ZM310.026,175.7c-.114.079-.23.157-.348.233-.952.609-1.982,1.137-2.978,1.649a21.552,21.552,0,0,0-4.756,2.99c-3.834,3.479-4.543,8.9-5.228,14.14-.182,1.39-.37,2.827-.613,4.19a38.125,38.125,0,0,1-11.085,20.679,15.34,15.34,0,0,1-5.953,3.608,6.1,6.1,0,0,1-6.02-.957c-2.679-2.347-2.2-6.709-.381-9.622a26.865,26.865,0,0,1,4.437-5.01c.914-.873,1.859-1.777,2.71-2.733a23.949,23.949,0,0,0,5.319-21.232,52.834,52.834,0,0,0-2.687-7.578c-2.125-5.152-4.132-10.019-2.641-15.065a23.165,23.165,0,0,1,2.523-5.162c.558-.937,1.136-1.905,1.623-2.9a20.659,20.659,0,0,0-.095-18.043,10.921,10.921,0,0,0-5.792-5.391,5.075,5.075,0,0,0-4.006.23c-1.8.909-2.782,2.761-3.735,4.552-.894,1.679-1.818,3.416-3.408,4.382a5.3,5.3,0,0,1-4.382.472,11.01,11.01,0,0,1-6.226-5.662,37.34,37.34,0,0,1-1.817-5.019,23.822,23.822,0,0,0-3.237-7.393,23.914,23.914,0,0,0-3.588-3.6,32.876,32.876,0,0,1-2.718-2.55c-2.532-2.768-4.067-6.38-5.551-9.873-1.861-4.38-3.786-8.91-7.688-11.644-2.648-1.858-5.87-2.618-8.985-3.353a41.432,41.432,0,0,1-5.934-1.716,12.159,12.159,0,0,1-6.867-7.136,5.668,5.668,0,0,1,.71-5.033,11.322,11.322,0,0,1,2.852-2.541,11.539,11.539,0,0,0,2.862-2.543c2.765-3.875-.085-8.708-2.6-12.972-.49-.83-.952-1.615-1.378-2.392a30.987,30.987,0,0,1-1.5-3.215,4.963,4.963,0,0,0-3.593-9,19.29,19.29,0,0,0-2.212-3.485c-4.964-6.131-13.338-7.49-21.436-8.8-7.206-1.169-14.657-2.378-19.525-6.984a2.871,2.871,0,0,1,.405-4.494,11.383,11.383,0,0,1,8.579-1.553,22.236,22.236,0,0,1,4.6,1.84c.884.432,1.8.879,2.726,1.244,2.819,1.109,7.823,1.788,13.386,1.817A52.073,52.073,0,0,0,207.8,21.49c2.84,1.49,6.347,3.36,7.5,3.958l.146.082c1.421.807,2.872,1.631,4.337,2.436-2.836.049-4.883.117-5.611,3.119-.712,2.94,1.872,5.534,3.877,7.228,5.417,4.574,10.206,9.583,8.581,15.208a15.929,15.929,0,0,1-.893,2.216,9.094,9.094,0,0,0-1.127,3.809,9.118,9.118,0,0,0,.571,2.685c.143.446.291.907.4,1.366.569,2.435.055,4.959-.442,7.4a31.624,31.624,0,0,0-.68,4.374,8.976,8.976,0,0,0,2.8,7.047,4.145,4.145,0,0,0,3.732.965c2.2-.527,3.312-2.494,4.489-4.576a12.6,12.6,0,0,1,3.015-4.012,5.859,5.859,0,0,1,4.954-.915,9.718,9.718,0,0,1,6.215,4.894c1.733,3.4,1.793,7.368,1.851,11.2.011.7.022,1.434.043,2.144a26.065,26.065,0,0,0,.923,6.582,16.107,16.107,0,0,0-1.473,18.089,15.646,15.646,0,0,0,10.376,7.648,14.488,14.488,0,0,0,2.926.3,14.923,14.923,0,0,0,9.024-3.111,24.056,24.056,0,0,0,3.067-2.74c4.9-1.286,11.17,1.76,13.847,6.915,3.085,5.934,2.388,13.007,1.174,19.766q-.17.944-.346,1.895c-1.108,6.012-2.254,12.229-.729,18.15a6.546,6.546,0,0,0,2.44,4.109,4.059,4.059,0,0,0,2.272.658,7.478,7.478,0,0,0,5.355-2.766,14.516,14.516,0,0,0,3.188-9.448,57.222,57.222,0,0,0-1.293-10.933c-1.267-6.952-2.577-14.14,1.054-19.768a25.731,25.731,0,0,1,3.42-3.979c.641-.651,1.3-1.32,1.914-2.018a127.506,127.506,0,0,1,2.519,14.426A141.443,141.443,0,0,1,310.026,175.7Z" fill="#fff"/>
      <path id="Контур_41392" data-name="Контур 41392" d="M11.647,9.17A4.737,4.737,0,0,0,9.053,8.5C6.458,8.286,2.9,8,.527.1A.143.143,0,0,0,.249.118C-.01,1.6-1.029,9.134,4.307,12.247a8.341,8.341,0,0,0,4.136,1.265,5.514,5.514,0,0,0,.7-.044A3.946,3.946,0,0,0,11.95,11.9,1.932,1.932,0,0,0,11.647,9.17Zm.2,2.661c-.914,1.344-3.659,2.536-7.477.308C-.9,9.068.115,1.6.371.139A.016.016,0,0,1,.388.124h0A.018.018,0,0,1,.408.138h0c2.4,7.975,6.005,8.268,8.635,8.483a4.661,4.661,0,0,1,2.527.646A1.794,1.794,0,0,1,11.847,11.831Z" transform="translate(222.777 242.502)" fill="#fff"/>
      <path id="Контур_41393" data-name="Контур 41393" d="M12.021,8.09A9.989,9.989,0,0,0,8.276,6.82C5.573,6.3,2.777,5.756.457.147A.234.234,0,0,0,.191,0,.233.233,0,0,0,0,.236C-.008,2.548.417,8.225,4.516,11a7.938,7.938,0,0,0,4.447,1.4,6.173,6.173,0,0,0,2.694-.576,2.455,2.455,0,0,0,1.573-1.877C13.259,9.479,13.072,8.776,12.021,8.09ZM13.107,9.94a2.338,2.338,0,0,1-1.5,1.773A7.243,7.243,0,0,1,4.586,10.9C.535,8.155.116,2.529.124.237A.108.108,0,0,1,.216.126l.023,0a.109.109,0,0,1,.1.071c2.346,5.671,5.174,6.218,7.91,6.746a9.761,9.761,0,0,1,3.7,1.252A2.053,2.053,0,0,1,13.107,9.94Z" transform="translate(227.686 160.139)" fill="#fff"/>
      <path id="Контур_41394" data-name="Контур 41394" d="M11.154,5.5a2.27,2.27,0,0,1,.066-.687c.025-.128.05-.259.067-.394a2.748,2.748,0,0,0-.817-2.232,2.751,2.751,0,0,0-2.21-.874c-.085.008-.169.02-.255.032a1.86,1.86,0,0,1-.529.026,1.85,1.85,0,0,1-.85-.518c-.118-.1-.24-.209-.37-.3A2.91,2.91,0,0,0,3.52.192a2.918,2.918,0,0,0-1.7,1.894,1.125,1.125,0,0,1-.162.346L1.6,2.5a1.17,1.17,0,0,1-.311.292A2.98,2.98,0,0,0,.265,6.463c.087.178.191.35.293.516A1.906,1.906,0,0,1,.973,8.111a1.918,1.918,0,0,1-.3.7,2.216,2.216,0,0,0-.363.939c-.063.841.613,1.31,1.267,1.763a2.933,2.933,0,0,1,1.122,1.1,2.453,2.453,0,0,1,.081.242,2.144,2.144,0,0,0,.146.4,1.633,1.633,0,0,0,1.517.773,2.579,2.579,0,0,0,.477-.045,7.03,7.03,0,0,0,.828-.229A4.64,4.64,0,0,1,6.794,13.5a5.112,5.112,0,0,1,.864.034,2.74,2.74,0,0,0,1.759-.22,2.692,2.692,0,0,0,1.01-1.947,4.327,4.327,0,0,1,.408-1.286,4.247,4.247,0,0,1,.548-.684,2.365,2.365,0,0,0,.823-1.516A2.393,2.393,0,0,0,11.64,6.5,2.366,2.366,0,0,1,11.154,5.5Zm-.135,3.562a4.688,4.688,0,0,0-.61.767,4.714,4.714,0,0,0-.466,1.435,2.308,2.308,0,0,1-.784,1.626,2.347,2.347,0,0,1-1.453.149A5.585,5.585,0,0,0,6.754,13a5.086,5.086,0,0,0-1.155.273,6.437,6.437,0,0,1-.769.214,1.358,1.358,0,0,1-1.46-.468,1.8,1.8,0,0,1-.111-.31,2.951,2.951,0,0,0-.1-.291,3.279,3.279,0,0,0-1.3-1.314c-.589-.408-1.1-.76-1.055-1.318a1.817,1.817,0,0,1,.3-.728,2.315,2.315,0,0,0,.361-.9A2.287,2.287,0,0,0,.982,6.721C.882,6.557.788,6.4.712,6.247A2.5,2.5,0,0,1,1.567,3.21a1.656,1.656,0,0,0,.441-.418l.052-.073a1.6,1.6,0,0,0,.235-.5A2.414,2.414,0,0,1,3.7.654a2.406,2.406,0,0,1,2.26.294c.113.083.222.178.338.278a2.236,2.236,0,0,0,1.1.634,2.231,2.231,0,0,0,.676-.025c.078-.011.155-.022.232-.029a2.287,2.287,0,0,1,1.808.726,2.286,2.286,0,0,1,.679,1.826c-.014.116-.037.234-.061.358a2.7,2.7,0,0,0-.073.84,2.784,2.784,0,0,0,.571,1.222,2.008,2.008,0,0,1,.481,1.092A1.983,1.983,0,0,1,11.018,9.062Z" transform="translate(258.517 100.105)" fill="#fff"/>
      <path id="Контур_41395" data-name="Контур 41395" d="M4.148,1.668C4.1,1.648,4.05,1.63,4,1.612a1.017,1.017,0,0,1-.281-.132A1,1,0,0,1,3.428.933,1.941,1.941,0,0,0,3.266.518,1.236,1.236,0,0,0,1.926.036a2.1,2.1,0,0,0-.673.3,2.689,2.689,0,0,0-.841.9L.081,1.8A.969.969,0,0,0,.272,2.84a1.4,1.4,0,0,1,.24,1.275A1.156,1.156,0,0,0,.873,5.4a1.174,1.174,0,0,0,.692.214,1.434,1.434,0,0,0,.356-.046A1.5,1.5,0,0,0,2.9,4.777c.026-.054.049-.11.071-.166A1,1,0,0,1,3.221,4.2a.993.993,0,0,1,.5-.168c.087-.014.177-.028.263-.051a1.259,1.259,0,0,0,.905-1.1A1.258,1.258,0,0,0,4.148,1.668Zm.615,1.2a1.13,1.13,0,0,1-.813.984,2.389,2.389,0,0,1-.251.048,1.1,1.1,0,0,0-.557.2,1.107,1.107,0,0,0-.284.463c-.022.054-.043.108-.068.16a1.391,1.391,0,0,1-.9.719,1.106,1.106,0,0,1-.943-.149A1.051,1.051,0,0,1,.63,4.152,1.528,1.528,0,0,0,.37,2.764a.842.842,0,0,1-.18-.909L.518,1.3a2.575,2.575,0,0,1,.8-.859A1.98,1.98,0,0,1,1.954.157,1.282,1.282,0,0,1,2.248.124,1.028,1.028,0,0,1,3.159.58a1.854,1.854,0,0,1,.15.389,1.107,1.107,0,0,0,.335.61,1.122,1.122,0,0,0,.315.151c.047.017.095.033.141.053A1.129,1.129,0,0,1,4.762,2.873Z" transform="translate(262.14 104.07)" fill="#fff"/>
      <path id="Контур_41396" data-name="Контур 41396" d="M17.925,3.086a2.114,2.114,0,0,0-.535-.316l-.172-.07a1.913,1.913,0,0,1-.706-.526,1.871,1.871,0,0,0-1.583-.492,6.441,6.441,0,0,0-.806.17,4.153,4.153,0,0,1-1.071.178A4.06,4.06,0,0,1,10.9,1.082,7.275,7.275,0,0,0,9.418.229a4.247,4.247,0,0,0-4.179.877A6.857,6.857,0,0,0,3.156,4.9c-.095.442-.16.9-.224,1.338a8.371,8.371,0,0,1-.741,2.822A8.535,8.535,0,0,1,1.45,10.15a10.418,10.418,0,0,0-.657.936c-1.561,2.6-.557,5.928.776,7.984,1.592,2.453,3.875,3.905,6.13,3.905h.118A11.083,11.083,0,0,0,10.9,22.3a7.029,7.029,0,0,1,4.026-.506,7.292,7.292,0,0,1,1.009.393,5.671,5.671,0,0,0,1.429.491,3.061,3.061,0,0,0,2.393-.7,4.19,4.19,0,0,0,1.527-2.908,9.589,9.589,0,0,0-.175-2.067,5.95,5.95,0,0,1-.016-2.78,6.033,6.033,0,0,1,.521-1.087c.142-.252.288-.512.409-.783a6.078,6.078,0,0,0-.543-5.421A14.449,14.449,0,0,0,17.925,3.086Zm3.762,9.107c-.113.255-.256.507-.393.751a6.378,6.378,0,0,0-.552,1.156,6.319,6.319,0,0,0,0,2.953,9.3,9.3,0,0,1,.171,1.986,3.8,3.8,0,0,1-1.389,2.64,2.7,2.7,0,0,1-2.1.628,5.3,5.3,0,0,1-1.334-.463,7.549,7.549,0,0,0-1.062-.412,7.4,7.4,0,0,0-4.239.51,10.794,10.794,0,0,1-2.981.661H7.7c-2.128,0-4.295-1.389-5.817-3.736-1.275-1.965-2.242-5.133-.77-7.59a10.277,10.277,0,0,1,.635-.9,8.763,8.763,0,0,0,.772-1.141A8.785,8.785,0,0,0,3.3,6.289c.063-.434.128-.883.219-1.313A6.493,6.493,0,0,1,5.48,1.389,4.13,4.13,0,0,1,8.13.372,3.251,3.251,0,0,1,9.285.577a7,7,0,0,1,1.405.812A4.392,4.392,0,0,0,13.047,2.4a4.487,4.487,0,0,0,1.168-.189,6.032,6.032,0,0,1,.759-.161,1.506,1.506,0,0,1,1.258.368,2.278,2.278,0,0,0,.845.625l.173.071a1.721,1.721,0,0,1,.44.26,14.118,14.118,0,0,1,3.472,3.733A5.709,5.709,0,0,1,21.687,12.193Z" transform="translate(252.723 95.787)" fill="#fff"/>
      <path id="Контур_41397" data-name="Контур 41397" d="M4.841,9.682A4.841,4.841,0,1,0,0,4.841,4.847,4.847,0,0,0,4.841,9.682ZM4.841.5A4.344,4.344,0,1,1,.5,4.841,4.349,4.349,0,0,1,4.841.5Z" transform="translate(279.561 44.422)" fill="#fff"/>
      <path id="Контур_41398" data-name="Контур 41398" d="M4.841,0A4.841,4.841,0,1,0,9.682,4.841,4.846,4.846,0,0,0,4.841,0Zm0,9.185A4.344,4.344,0,1,1,9.185,4.841,4.349,4.349,0,0,1,4.841,9.185Z" transform="translate(70.159 293.172)" fill="#fff"/>
      <path id="Контур_41399" data-name="Контур 41399" d="M4.841,9.682A4.841,4.841,0,1,0,0,4.841,4.847,4.847,0,0,0,4.841,9.682ZM4.841.5A4.344,4.344,0,1,1,.5,4.841,4.349,4.349,0,0,1,4.841.5Z" transform="translate(129.243 163.832)" fill="#fff"/>
      <path id="Контур_41400" data-name="Контур 41400" d="M4.841,9.682A4.841,4.841,0,1,0,0,4.841,4.846,4.846,0,0,0,4.841,9.682ZM4.841.5A4.344,4.344,0,1,1,.5,4.841,4.349,4.349,0,0,1,4.841.5Z" transform="translate(1.517 48.146)" fill="#fff"/>
      <path id="Контур_41401" data-name="Контур 41401" d="M4.965,0A4.965,4.965,0,1,0,9.93,4.965,4.971,4.971,0,0,0,4.965,0Zm0,9.185a4.22,4.22,0,1,1,4.22-4.22A4.225,4.225,0,0,1,4.965,9.185Z" transform="translate(173.184 221.675)" fill="#fff"/>
    </g>
    <ellipse id="Эллипс_18" data-name="Эллипс 18" cx="4.344" cy="4.344" rx="4.344" ry="4.344" transform="matrix(0.615, -0.788, 0.788, 0.615, 278.304, 50.014)"/>
    <path id="Контур_41402" data-name="Контур 41402" d="M4.841,9.682A4.841,4.841,0,1,0,0,4.841,4.847,4.847,0,0,0,4.841,9.682ZM4.841.5A4.344,4.344,0,1,1,.5,4.841,4.349,4.349,0,0,1,4.841.5Z" transform="translate(129.243 163.832)" fill="#fff"/>
    <ellipse id="Эллипс_19" data-name="Эллипс 19" cx="4.344" cy="4.344" rx="4.344" ry="4.344" transform="translate(129.74 164.329)"/>
    <ellipse id="Эллипс_20" data-name="Эллипс 20" cx="4.344" cy="4.344" rx="4.344" ry="4.344" transform="translate(2.013 48.642)"/>
    <ellipse id="Эллипс_21" data-name="Эллипс 21" cx="4.344" cy="4.344" rx="4.344" ry="4.344" transform="translate(70.655 293.669)"/>
  </g>
</svg>
