<svg xmlns="http://www.w3.org/2000/svg" width="221.756" height="225.926" viewBox="0 0 221.756 225.926">
  <g id="Сгруппировать_76996" data-name="Сгруппировать 76996" transform="translate(0 225.926) rotate(-90)">
    <path id="Контур_41385" data-name="Контур 41385" d="M225.278,123.784a93.071,93.071,0,0,1-7.828,27.98,90.336,90.336,0,0,1-15.927,24.019v.081l-.035.018h0l-.082.041a111.405,111.405,0,0,1-25.754,25.66c-1.633,1.167-3.327,2.308-5.035,3.392l0-.008a80.13,80.13,0,0,1-17.251,8.928,117.082,117.082,0,0,1-20.819,5.732,131.754,131.754,0,0,1-22.163,2.12A112.928,112.928,0,0,1,88.88,220h0A111.243,111.243,0,0,1,4.469,142.406l-.014-.047A111.007,111.007,0,0,1,30.433,34.722,111.527,111.527,0,0,1,69.94,7.89,110.44,110.44,0,0,1,111.03,0q3.861,0,7.725.266A111.831,111.831,0,0,1,142.2,4.414a110.6,110.6,0,0,1,40.184,21.44,111.951,111.951,0,0,1,15.554,15.913,3.018,3.018,0,0,1,1.379-.483c1.224-.06,2.12.927,2.837,1.9a126.969,126.969,0,0,1,11.238,18.308,121.918,121.918,0,0,1,7.924,19.96,111.894,111.894,0,0,1,4.124,20.976A101.214,101.214,0,0,1,225.278,123.784Zm-90.993-25.5h0a31.985,31.985,0,0,0-21.576-10.212q-1.195-.082-2.378-.082a31.612,31.612,0,0,0-19.353,6.4A24.452,24.452,0,0,0,88.4,131.837a31.9,31.9,0,0,0,20.66,9.236q1.185.081,2.355.081c11.988,0,22.775-6.327,27.31-16.23a23.752,23.752,0,0,0,2.068-7.742c.018-.189.032-.373.044-.546A24.872,24.872,0,0,0,134.285,98.286Z" transform="translate(0 0)" fill="#111011"/>
    <g id="Сгруппировать_76363" data-name="Сгруппировать 76363" transform="translate(0 0)">
      <path id="Контур_41386" data-name="Контур 41386" d="M10.382,6.548A32.322,32.322,0,0,1,30.172,0Q31.38,0,32.6.084A33.815,33.815,0,0,1,45.032,3.345a30.752,30.752,0,0,1,9.628,7.187,25.582,25.582,0,0,1,6.734,18.876c-.012.179-.027.368-.046.563a24.465,24.465,0,0,1-2.131,7.975,26.224,26.224,0,0,1-4.88,7.162,29.4,29.4,0,0,1-7.045,5.419,33.176,33.176,0,0,1-18.441,3.985A32.616,32.616,0,0,1,7.73,45.064,25.653,25.653,0,0,1,.059,25.186,25.652,25.652,0,0,1,10.382,6.548ZM8.241,44.561A31.9,31.9,0,0,0,28.9,53.8q1.184.081,2.355.081c11.988,0,22.775-6.327,27.31-16.231a23.756,23.756,0,0,0,2.068-7.742c.018-.189.032-.373.044-.546a24.872,24.872,0,0,0-6.553-18.349h0A31.985,31.985,0,0,0,32.55.8Q31.356.716,30.172.717a31.611,31.611,0,0,0-19.353,6.4A24.946,24.946,0,0,0,.773,25.235,24.946,24.946,0,0,0,8.241,44.561Z" transform="translate(80.159 87.276)" fill="#fff"/>
      <path id="Контур_41387" data-name="Контур 41387" d="M9.395,13.02c.5-.64,1.03-1.349,1.667-2.231A24.2,24.2,0,0,1,21.025,3.14,40.443,40.443,0,0,1,37.492,0a65.778,65.778,0,0,1,9.719.765c15.111,2.262,22.757,10.267,26.51,16.584A35.914,35.914,0,0,1,78.541,32.91a36.7,36.7,0,0,1-2.014,15.262A34.958,34.958,0,0,1,59.559,67.128a45.59,45.59,0,0,1-12.5,4.376,52.007,52.007,0,0,1-13.663.844,37.84,37.84,0,0,1-24.042-11.3A34.521,34.521,0,0,1,2.184,50.4,26.589,26.589,0,0,1,.059,38.218,46.81,46.81,0,0,1,9.395,13.02Zm.281,47.714A37.386,37.386,0,0,0,33.429,71.9q1.877.129,3.717.128c18.214,0,33.607-9.351,38.958-24.012a36.489,36.489,0,0,0-2.768-30.44c-3.7-6.234-11.255-14.134-26.192-16.37C36.907-.325,28.18.463,21.206,3.549a23.746,23.746,0,0,0-9.78,7.5c-.641.887-1.174,1.6-1.678,2.244A46.35,46.35,0,0,0,.505,38.249C-.031,46.039,3.312,54.235,9.676,60.733Z" transform="translate(71.852 73.672)" fill="#fff"/>
      <path id="Контур_41388" data-name="Контур 41388" d="M4.309,19.345c2.008-3.325,4.308-4.885,6.743-6.536A23.3,23.3,0,0,0,17.546,6.94C19.437,4.334,23.784,1.213,30.316.27A26.425,26.425,0,0,1,34.1,0a29.33,29.33,0,0,1,7.866,1.106A39.736,39.736,0,0,1,55.468,8.114a34.568,34.568,0,0,1,9.566,11.092,32.544,32.544,0,0,1,3.583,11.666,39.28,39.28,0,0,1-2.271,18c-1.428,3.632-5.967,9.1-12.885,13.144a40.075,40.075,0,0,1-27.392,4.795h0a39.137,39.137,0,0,1-8.86-3.242,34.717,34.717,0,0,1-7.428-4.978,25.956,25.956,0,0,1-6.189-8.043A33.866,33.866,0,0,1,.138,32.438,31.157,31.157,0,0,1,4.309,19.345ZM3.751,50.47C7,57.158,12.9,61.2,17.282,63.407A39,39,0,0,0,26.1,66.635a39.9,39.9,0,0,0,27.27-4.773c6.881-4.019,11.391-9.452,12.808-13.055,1-2.531,9.151-25.168-10.82-40.552C47.085,1.883,39.673.179,34.113.179a26.39,26.39,0,0,0-3.772.268c-6.475.935-10.78,4.021-12.65,6.6a23.451,23.451,0,0,1-6.539,5.912c-2.418,1.64-4.7,3.189-6.69,6.481C.231,26.445-2.178,38.277,3.751,50.47Z" transform="translate(76.394 76.647)" fill="#fff"/>
      <path id="Контур_41389" data-name="Контур 41389" d="M4.258,29.566c.731-1.19,1.273-2.117,1.755-3.005l1.023-1.882c.475-.875.913-1.748,1.241-2.412C13.511,11.68,22.066,5.11,34.429,2.181A73.483,73.483,0,0,1,51.245,0c8.941,0,16.184,2.263,21.633,6.777,1.294,1.072,2.5,2.289,3.662,3.465a39.7,39.7,0,0,0,4.782,4.332,40.049,40.049,0,0,0,3.788,2.333,27.517,27.517,0,0,1,5.3,3.565c5.528,5.133,5.834,13.724,5.582,19.74a46.756,46.756,0,0,1-1.661,11.572c-2.187,7.237-7.165,13.244-10.719,17.132A72.274,72.274,0,0,1,71.629,79.6a43.781,43.781,0,0,1-14.354,6.7c-9.574,2.366-20.612.883-31.082-4.176C15.507,76.958,7.31,69.014,3.112,59.752a35.031,35.031,0,0,1-3.1-15.337A29.928,29.928,0,0,1,4.258,29.566ZM3.194,59.715C7.383,68.958,15.565,76.886,26.232,82.04c10.451,5.049,21.468,6.53,31.021,4.17,9.062-2.239,17.661-7.916,26.288-17.354,3.548-3.882,8.518-9.877,10.7-17.1A46.652,46.652,0,0,0,95.9,40.208c.251-6-.052-14.562-5.553-19.671a27.473,27.473,0,0,0-5.279-3.552,40.082,40.082,0,0,1-3.8-2.338A39.769,39.769,0,0,1,76.476,10.3c-1.162-1.175-2.365-2.39-3.656-3.459C64.306-.207,51.4-1.747,34.45,2.268,22.114,5.191,13.579,11.745,8.357,22.307c-.328.664-.766,1.538-1.242,2.415L6.092,26.6c-.484.889-1.026,1.817-1.758,3.009C-.914,38.155-1.351,49.69,3.194,59.715Z" transform="translate(64.986 65.172)" fill="#fff"/>
      <path id="Контур_41390" data-name="Контур 41390" d="M63.767,80.781h0l-.017,0h0a60.339,60.339,0,0,1-10.993-2.44,82.729,82.729,0,0,1-9.334-3.61,79.34,79.34,0,0,1-8.892-4.7l0-.006A70.412,70.412,0,0,1,8.746,39.118,112.5,112.5,0,0,1,1.079,16.486C-.071,10.869-.307,6.034.4,2.5l.01,0A3.271,3.271,0,0,1,2.488.084,2.675,2.675,0,0,1,3.167,0,5.9,5.9,0,0,1,6.273,1.168a31.872,31.872,0,0,1,6.557,6.52,12.854,12.854,0,0,0,4.011,3,15.114,15.114,0,0,1,6.951,6.663c2.333,4.472,3.536,11.447,3.679,21.325.109,7.514,3.471,14.152,10.278,20.293,5.865,5.292,13.215,9.288,19.7,12.813,3.3,1.792,6.412,3.486,8.822,5.1l0,0,.1.075.007,0h0c2.046,1.474,2.918,2.519,2.665,3.19C68.759,80.909,67.032,81.117,63.767,80.781Zm2.517-3.787c-2.415-1.622-5.555-3.329-8.878-5.136-6.489-3.528-13.844-7.527-19.717-12.825-6.826-6.158-10.2-12.817-10.306-20.357-.143-9.863-1.343-16.826-3.67-21.285A15.038,15.038,0,0,0,16.8,10.764a12.919,12.919,0,0,1-4.037-3.021,31.8,31.8,0,0,0-6.536-6.5C4.754.271,3.5-.09,2.511.169A3.291,3.291,0,0,0,.452,2.687c-.661,3.5-.415,8.264.714,13.782A112.408,112.408,0,0,0,8.828,39.081,70.321,70.321,0,0,0,34.582,69.949l0,0a79.222,79.222,0,0,0,8.881,4.691,82.729,82.729,0,0,0,9.322,3.606,60.247,60.247,0,0,0,10.993,2.438v.011c3.173.326,4.918.131,5.186-.578C69.2,79.489,68.3,78.44,66.284,76.995Z" transform="translate(25.972 105.94)" fill="#fff"/>
      <path id="Контур_41391" data-name="Контур 41391" d="M225.278,123.784a93.067,93.067,0,0,1-7.828,27.98,90.328,90.328,0,0,1-15.927,24.019v.081l-.035.018h0l-.082.041a111.409,111.409,0,0,1-25.754,25.661c-1.633,1.167-3.327,2.308-5.035,3.392l0-.008a80.13,80.13,0,0,1-17.251,8.928,117.082,117.082,0,0,1-20.819,5.732,131.754,131.754,0,0,1-22.163,2.12A112.928,112.928,0,0,1,88.88,220h0A111.243,111.243,0,0,1,4.469,142.406l-.014-.047A111.007,111.007,0,0,1,30.433,34.722,111.528,111.528,0,0,1,69.939,7.89,110.443,110.443,0,0,1,111.03,0q3.861,0,7.725.266A111.83,111.83,0,0,1,142.2,4.414a110.6,110.6,0,0,1,40.184,21.44,111.951,111.951,0,0,1,15.554,15.913,3.018,3.018,0,0,1,1.379-.483c1.224-.06,2.12.927,2.837,1.9a126.969,126.969,0,0,1,11.238,18.308,121.918,121.918,0,0,1,7.924,19.96,111.894,111.894,0,0,1,4.124,20.976A101.214,101.214,0,0,1,225.278,123.784Zm-2.555,10.434c-.454-.519-.943-1.017-1.42-1.5a18.628,18.628,0,0,1-2.479-2.886c-2.639-4.091-1.691-9.3-.774-14.329,1-5.507,1.952-10.708-1.347-14.633-1.346-1.6-3.728-2.6-5.386-1.5a4.643,4.643,0,0,0-1.723,2.913c-1.1,4.253-.27,8.729.527,13.058q.126.686.25,1.368c.878,4.893,1.382,10.014-.856,14.32-1.925,3.707-6.4,5.916-9.96,5.068a12.32,12.32,0,0,1,2.789,4.722,9.721,9.721,0,0,1,.229,4.743c.419-.526.8-1.1,1.164-1.665a8.225,8.225,0,0,1,3.227-3.36,3.767,3.767,0,0,1,1.54-.325,4.634,4.634,0,0,1,2.569.833,6.176,6.176,0,0,1,2.742,5.066c-.086,3-2.168,6.026-5.713,8.3-1.262.809-2.621,1.5-3.935,2.178a35.142,35.142,0,0,0-5.123,3c-2.561,1.92-5.047,5.253-4.346,8.846a12.688,12.688,0,0,0,2.477,4.755,20.1,20.1,0,0,1,1.942,3.1c.1.224.2.454.285.689q.644-.657,1.276-1.33l.213-.229h0l0,0,.009-.009A91.35,91.35,0,0,0,222.723,134.218Zm-25.923.348a9.9,9.9,0,0,0-8.047-1.9,10.572,10.572,0,0,0-7.009,5.172,10.89,10.89,0,0,0,9.437,16.276,10.931,10.931,0,0,0,2.892-.392,10.81,10.81,0,0,0,6.58-5.106C203.434,143.738,201.993,138.486,196.8,134.567Zm-38.05,66.923c.6-.327,1.2-.65,1.8-.962,2.533-1.314,5.168-2.5,7.764-3.632a2.228,2.228,0,0,1-.844-1.591,5.355,5.355,0,0,1,1.9-4.226c.448-.382.945-.749,1.426-1.1,1.448-1.067,2.946-2.171,3.344-3.88a7.821,7.821,0,0,0-.428-3.8c-.414-1.484-.842-3.019-.16-4.383.847-1.693,2.835-2.154,4.757-2.6.375-.087.764-.177,1.129-.274a13.242,13.242,0,0,0,9.379-9.949,28.066,28.066,0,0,0,.413-4.207,17.655,17.655,0,0,1,1-6.092,11.671,11.671,0,0,1-7.975-4.172,18.843,18.843,0,0,0-.645,4.668c-.016.512-.023,1.037-.031,1.546-.042,2.776-.086,5.647-1.346,8.122a7.105,7.105,0,0,1-4.544,3.578,4.274,4.274,0,0,1-3.649-.676,9.158,9.158,0,0,1-2.2-2.922c-.839-1.485-1.632-2.888-3.182-3.259a2.9,2.9,0,0,0-2.614.678,6.383,6.383,0,0,0-1.99,5.011,22.771,22.771,0,0,0,.489,3.144,12.645,12.645,0,0,1,.318,5.377c-.079.335-.186.67-.29.993a4.845,4.845,0,0,0,.4,4.621,11.581,11.581,0,0,1,.65,1.612c1.186,4.108-2.289,7.747-6.22,11.067-1.429,1.207-3.27,3.052-2.768,5.126.515,2.123,1.991,2.148,4.033,2.183Zm25.625-12.467a79.445,79.445,0,0,0,14.958-11.981c-.089-.246-.188-.488-.3-.722a20.025,20.025,0,0,0-1.934-3.084,12.753,12.753,0,0,1-2.492-4.789c-.709-3.634,1.8-7,4.38-8.935a35.172,35.172,0,0,1,5.136-3.01c1.312-.672,2.669-1.367,3.928-2.173,3.52-2.256,5.587-5.255,5.672-8.226a6.083,6.083,0,0,0-2.7-4.989,4.08,4.08,0,0,0-4.022-.5,8.038,8.038,0,0,0-3.188,3.327,19.847,19.847,0,0,1-1.279,1.808,11.675,11.675,0,0,1-8.271,8.668,11.6,11.6,0,0,1-3.94.385,17.49,17.49,0,0,0-1.006,6.088,28.119,28.119,0,0,1-.415,4.221,13.334,13.334,0,0,1-9.444,10.017c-.367.1-.756.188-1.132.275-1.9.442-3.869.9-4.7,2.553-.667,1.334-.263,2.784.166,4.319a7.885,7.885,0,0,1,.429,3.841c-.405,1.741-1.917,2.855-3.378,3.932-.479.353-.975.719-1.421,1.1a5.338,5.338,0,0,0-1.866,4.149,2.138,2.138,0,0,0,.849,1.56l1.675-.728c3.05-1.324,6.2-2.692,9.206-4.234,1.692-.869,3.373-1.816,5-2.815ZM5.139,142.145l.015.05q.463,1.579.971,3.136c6.1,14.446,28.286,57.291,80.217,68.114,3.1.647,6.258,1.172,9.375,1.561l-.022.178c-3.122-.389-6.282-.915-9.39-1.563a105.675,105.675,0,0,1-36.3-14.911,113.048,113.048,0,0,1-24.6-21.9A127.858,127.858,0,0,1,6.755,147.208,110.01,110.01,0,0,0,89.022,219.3l0,.012a112.168,112.168,0,0,0,21.35,1.736,131.1,131.1,0,0,0,22.044-2.109,116.4,116.4,0,0,0,20.694-5.7,79.411,79.411,0,0,0,17.125-8.865l0,0,.084-.054.126-.088,0,.005c1.625-1.036,3.234-2.123,4.789-3.234a110.686,110.686,0,0,0,22.438-21.327,79.592,79.592,0,0,1-12.836,9.905l-.007.014-.093.049q-1.007.621-2.041,1.213a134.905,134.905,0,0,1-19.261,11.977l.006.01a104.619,104.619,0,0,1-24.443,9.6,119.824,119.824,0,0,1-21.689,3.45,103.3,103.3,0,0,1-21.535-.561l.046-.2a102.619,102.619,0,0,0,21.577.55,119.583,119.583,0,0,0,21.614-3.453,104.421,104.421,0,0,0,24.334-9.565l0,.009A134.472,134.472,0,0,0,181.42,191.57q-.9.493-1.8.959c-3.022,1.552-6.187,2.926-9.248,4.254-3.146,1.365-6.4,2.777-9.488,4.38-1.708.887-3.414,1.856-5.065,2.794l-.486.276-.01-.017c-1.033.527-6.941,3.7-7.861,4.106a31.241,31.241,0,0,1-9.638,2.189l-1.048.123a55.152,55.152,0,0,0-11.722,2.729,32.241,32.241,0,0,1-22.559-.742,11.068,11.068,0,0,1-4.074-2.916,110.092,110.092,0,0,1-29.347-7.679A116.112,116.112,0,0,1,40.752,185.1a99.915,99.915,0,0,1-23.667-27.741A117.931,117.931,0,0,1,5.346,128.871,128.929,128.929,0,0,1,1.067,102.4q-.045.568-.085,1.136A110.055,110.055,0,0,0,5.139,142.145ZM118.705.981Q114.86.716,111.041.717A110.355,110.355,0,0,0,1.4,98.88a124.268,124.268,0,0,0,4.38,29.889c4.344,16.068,13.985,38.823,35.251,55.981A112.624,112.624,0,0,0,98.04,209.209a5.538,5.538,0,0,1-.632-1.188,3.673,3.673,0,0,1,.111-3.015,3.826,3.826,0,0,1,.975-1.257,125.371,125.371,0,0,1-49.356-19.04A92.761,92.761,0,0,1,29.23,166.982,70.939,70.939,0,0,1,16.357,144.1a166.9,166.9,0,0,1-4.745-17.384,96.666,96.666,0,0,1,8.328-64.26A95.948,95.948,0,0,1,32.211,44.012,120.728,120.728,0,0,1,55.157,22.868,92.531,92.531,0,0,1,86.492,8.6a117,117,0,0,1,27.252-3.293q3.325,0,6.618.2A104.525,104.525,0,0,1,174.83,24.8a102.559,102.559,0,0,1,18.277,16.657c1.227.918,2.446,1.464,3.746.92a4,4,0,0,0,.466-.238A110.692,110.692,0,0,0,118.705.981Zm-4.187,189.566c.007-.077.013-.154.015-.23.066-2.151-1.6-3.927-3.062-5.233-5.252-4.7-11.582-8.1-17.615-11.175l-.021.039c-1.859-1-3.669-1.934-5.419-2.838-8.551-4.418-15.935-8.234-21.478-15.622a45.657,45.657,0,0,1-6.945-14.332,112.143,112.143,0,0,1-4-22.978,23.852,23.852,0,0,0-1.34-6.359,16.051,16.051,0,0,0-2.481-4.439,27.678,27.678,0,0,0-6.92-5.722c-3.479-2.281-7.076-4.64-9.306-9.409h0l-.017-.039-.01-.022h0l-.029-.066c-1.111-2.533-1.185-5.371-1.257-8.115-.026-1.007-.053-2.049-.132-3.06-.173-2.248-1.032-7.654-5.247-9.287a4.945,4.945,0,0,0-4.2.165c-2.6,1.332-4.745,5.01-6.206,10.635L17.408,89.3c-4.679,25.231,1.333,52.292,16.081,72.39,15.336,20.9,39.552,34.084,64.777,35.267,3.742.175,8.09.122,11.956-1.593l.134-.062A6.315,6.315,0,0,1,114.518,190.547Zm-4.17,6.67a10.3,10.3,0,0,1-.005-1.81l-.085.039c-3.883,1.723-8.243,1.776-12,1.6A84.325,84.325,0,0,1,61.953,186.64,86.957,86.957,0,0,1,23.9,145.285,94.368,94.368,0,0,1,17.984,127.2a96.824,96.824,0,0,1-2.223-18.927A94.929,94.929,0,0,1,17.32,89.282l1.44-6.845c1.468-5.652,3.629-9.35,6.252-10.694a4.931,4.931,0,0,1,2.273-.564,5.515,5.515,0,0,1,2,.395,7.335,7.335,0,0,1,3.872,3.785,15.49,15.49,0,0,1,1.432,5.578c.078,1.013.106,2.056.132,3.065.071,2.736.145,5.564,1.249,8.082l.056.127h0c2.22,4.746,5.806,7.1,9.275,9.372a27.748,27.748,0,0,1,6.941,5.741,16.148,16.148,0,0,1,2.495,4.463,23.935,23.935,0,0,1,1.345,6.382,112.062,112.062,0,0,0,4,22.96,45.569,45.569,0,0,0,6.931,14.305c5.531,7.372,12.907,11.183,21.448,15.6,1.75.9,3.56,1.839,5.419,2.838l.021-.041c6.038,3.082,12.374,6.485,17.634,11.188,1.475,1.32,3.159,3.115,3.091,5.3,0,.063-.006.126-.011.189a9.275,9.275,0,0,1,2.132-.575,17.863,17.863,0,0,1,4.009-.036,10.764,10.764,0,0,0-3.3-7.032c-.35-.322-.732-.634-1.1-.936a8.032,8.032,0,0,1-2.674-3.059c-.85-2.171.409-4.653,2.093-5.983a15.979,15.979,0,0,1,6.21-2.513c1.588-.391,2.859-.707,4.043-1a11.859,11.859,0,0,1-1.694-1.424,9.471,9.471,0,0,1-2.29-4.043,55.29,55.29,0,0,1-25.77-1.175c-20.256-5.875-30.23-23.272-32.024-26.7a.386.386,0,0,1,.541-.513,31.213,31.213,0,0,1,3.967,3.3c5.5,5.015,14.717,13.409,30.878,17.386a50.347,50.347,0,0,0,22.84.6,9.293,9.293,0,0,1,2.141-3.127c2.457-2.33,5.814-3.2,9.059-4.049.8-.209,1.63-.424,2.424-.658,15.494-4.547,26.823-20.149,26.352-36.29-.029-1-.1-2.016-.168-3a27.367,27.367,0,0,1,.281-8.375,10.715,10.715,0,0,1,2.925-5.107,8.09,8.09,0,0,1,1.69-1.244c-1.433-19.458-15.605-37.633-34.585-44.286a52.68,52.68,0,0,0-18.007-2.9v.011C101,47.75,90.545,50.247,82.617,55.408,75.722,59.9,71.693,65.77,68.139,70.952A73.889,73.889,0,0,1,63.217,77.6a20.538,20.538,0,0,1-5.886,4.887l0,0c-2.965,1.532-7.489,3.07-12.245,1.73a12.954,12.954,0,0,1-5.767-3.469,12.224,12.224,0,0,1-3.192-5.775,23.853,23.853,0,0,1-.191-6.91c.09-1.3.184-2.651.151-3.97-.088-3.471-.121-4.77-3.552-6.008a2.411,2.411,0,0,0-.348-.1,2.457,2.457,0,0,1-1.848-1.551,2.329,2.329,0,0,1,.363-2.258,109.96,109.96,0,0,1,16.083-16.5,117.164,117.164,0,0,1,19.26-13.014,119.1,119.1,0,0,1,21.58-9.045,115.408,115.408,0,0,1,23.041-4.594c3.389-.319,6.7-.479,9.911-.479a87.673,87.673,0,0,1,9.646.514,84.114,84.114,0,0,1,28.031,8.33A92.781,92.781,0,0,1,181.97,36.207c.6.586,1.2,1.183,1.773,1.777a4.088,4.088,0,0,1,1.625-.776c2.291-.5,4.191,1.183,6.029,2.812.456.4.906.8,1.354,1.161C172.428,17.766,134.212-2.735,86.513,8.691,66.315,13.53,48.069,25.433,32.28,44.07A96.986,96.986,0,0,0,11.7,126.7a166.726,166.726,0,0,0,4.743,17.375c11.323,34.083,49.329,54.454,82.145,59.6,1.4-1.116,3.534-1.3,5.613-1.47,2.666-.224,5.185-.435,5.97-2.527A5.92,5.92,0,0,0,110.348,197.216Zm27.224-20.68c-4.564,1.751-7.233,3.354-6.556,5.808a11.263,11.263,0,0,1-.331,7.446,12.256,12.256,0,0,0,4.96-2.528c2.915-2.533,3.981-6.74,2.48-9.787A7.262,7.262,0,0,0,137.572,176.537Zm-7,13.282a11.164,11.164,0,0,0,.353-7.451c-.693-2.514,1.992-4.141,6.59-5.907-1.524-2.139-4.061-3.309-6.727-4.538a31.171,31.171,0,0,1-4.675-2.484c-1.205.3-2.5.624-4.118,1.023a15.911,15.911,0,0,0-6.177,2.5c-1.658,1.309-2.9,3.749-2.065,5.88a7.967,7.967,0,0,0,2.647,3.022c.37.3.753.615,1.105.94a10.855,10.855,0,0,1,3.334,7.105c.557.048,1.111.107,1.659.166.917.1,1.866.2,2.793.244A17.977,17.977,0,0,0,130.576,189.818ZM36.024,68.067a23.782,23.782,0,0,0,.189,6.884,12.833,12.833,0,0,0,8.9,9.177c4.727,1.333,9.228-.2,12.178-1.723l0,0a20.444,20.444,0,0,0,5.857-4.864,73.827,73.827,0,0,0,4.915-6.64c3.56-5.19,7.594-11.072,14.507-15.572,7.9-5.145,18.309-7.647,31.807-7.647h.21l.576,0a52.633,52.633,0,0,1,17.461,2.9,51.1,51.1,0,0,1,13.356,7.078,53.917,53.917,0,0,1,10.716,10.465A52.545,52.545,0,0,1,164.037,81a47.537,47.537,0,0,1,3.222,13.9,6.266,6.266,0,0,1,3.475-.749,12.948,12.948,0,0,1,4.283,1.437c1.9.894,3.7,1.738,5.486,1.074,2.084-.775,2.962-3.307,3.332-5.3a26.578,26.578,0,0,0,.22-8.216c-4.763-2.393-9.331-7.5-11.991-13.444-7.21-16.1-10.466-17.5-23.1-20.838-4.076-1.077-7.464-3.915-11.388-7.2-4.511-3.778-9.624-8.059-16.941-10.4l0,.008a56.236,56.236,0,0,0-16.11-.949,84.481,84.481,0,0,0-14.568,2.46A92.292,92.292,0,0,0,75.334,37.8l0-.008a208.345,208.345,0,0,0-20.6,10.544C51.021,50.445,49.5,51.291,49.279,51c-.184-.242.463-1.12,4.405-5.062A106.726,106.726,0,0,1,70.872,32.811l.012-.007h0A85.813,85.813,0,0,1,90.059,24.24a97.962,97.962,0,0,1,21.135-4.261q4.041-.354,8.072-.353a90.6,90.6,0,0,1,18.095,1.817l0-.006.08.022.053.011v0A86.531,86.531,0,0,1,165.81,35.162l.122,0a7,7,0,0,1,4.877,1.846,21.581,21.581,0,0,1,2.179,2.574c1.6,2.1,3.108,4.076,5.318,3.621,1.422-.292,2.349-1.54,3.331-2.861a11.989,11.989,0,0,1,2.033-2.3c-.574-.591-1.166-1.185-1.764-1.768-14.459-14.11-32.818-23.033-51.7-25.126a96.269,96.269,0,0,0-19.538-.036c-31.119,2.926-60.989,19.047-79.9,43.122a2.239,2.239,0,0,0-.349,2.172A2.368,2.368,0,0,0,32.2,57.9a2.517,2.517,0,0,1,.361.1c1.7.614,2.585,1.241,3.051,2.165a9.534,9.534,0,0,1,.56,3.926C36.209,65.411,36.115,66.761,36.024,68.067Zm121.388-25.91a7.7,7.7,0,0,1,5.242-6.367,9.232,9.232,0,0,1,3.01-.624A86.446,86.446,0,0,0,137.4,21.54a91.1,91.1,0,0,0-26.2-1.474,97.889,97.889,0,0,0-21.115,4.257A85.445,85.445,0,0,0,70.92,32.886L70.9,32.85h0l.023.037A106.634,106.634,0,0,0,53.748,46c-2.407,2.407-4.605,4.672-4.4,4.944.186.245,2.348-.984,5.34-2.685a208.455,208.455,0,0,1,20.6-10.548h0A92.433,92.433,0,0,1,89.928,32.69a84.607,84.607,0,0,1,14.587-2.463q2.518-.188,4.935-.188a52.73,52.73,0,0,1,11.186,1.135h0l.017,0v0c7.338,2.348,12.46,6.637,16.979,10.422,3.916,3.279,7.3,6.111,11.354,7.183,6.244,1.649,10.278,2.856,13.639,5.7,3.194,2.7,5.774,6.82,9.52,15.187,2.642,5.9,7.17,10.978,11.9,13.374-1.441-11.114-9.383-21.224-17.488-27.7l-.256-.2a41.7,41.7,0,0,1-6.169-5.649C158.106,47.036,157.218,44.637,157.412,42.157Zm15.008-2.142a21.077,21.077,0,0,0-2.1-2.489,7.662,7.662,0,0,0-12.191,4.686c-.4,5.158,4.389,8.988,8.618,12.366l.257.205a53.2,53.2,0,0,1,13.906,16.4,35.787,35.787,0,0,1,3.554,9.883A27.965,27.965,0,0,1,184.54,91.5c-.579,3.112-1.888,5.13-3.787,5.836-2.067.769-4.087-.179-6.04-1.1a12.432,12.432,0,0,0-4.039-1.371c-3.561-.3-6.57,3.12-7.419,6.6a26.832,26.832,0,0,0-.263,8.156c.068.994.139,2.022.169,3.032a38.529,38.529,0,0,1-26.866,37c-.8.236-1.639.454-2.446.663-3.158.822-6.423,1.672-8.747,3.875a9.026,9.026,0,0,0-2.592,4.973,9.949,9.949,0,0,1,6.1-4.487,30.366,30.366,0,0,1,6.244-.831c1.111-.07,2.261-.142,3.38-.28a32.423,32.423,0,0,0,20.9-12.169,44.955,44.955,0,0,0,9.1-22.735l.066-.54c.6-4.953,1.29-10.566,5.684-12.614a13.176,13.176,0,0,1,2.538-.788c.6-.143,1.218-.29,1.807-.494,5.008-1.738,7.3-7.224,8.219-10.34a33.47,33.47,0,0,0-7.784-32.1c-1.481-1.549-3.137-2.975-4.739-4.353a52.5,52.5,0,0,1-5.875-5.61c-1.732-2.037-2.4-3.811-2.03-5.424.5-2.186,2.839-3.41,4.9-3.49l.3-.012c.6-.024,1.2-.047,1.785-.047a13.736,13.736,0,0,1,1.961.124A16.691,16.691,0,0,1,172.419,40.015ZM121.635,160.754a10.7,10.7,0,0,1,.791-3.852,50.452,50.452,0,0,1-22.819-.612C83.424,152.307,74.2,143.9,68.69,138.883a31.2,31.2,0,0,0-3.953-3.292.288.288,0,0,0-.353.038.294.294,0,0,0-.062.357c1.791,3.422,11.748,20.79,31.97,26.655a55.193,55.193,0,0,0,25.72,1.175A10.8,10.8,0,0,1,121.635,160.754ZM201.577,43.609c-.6-.82-1.342-1.651-2.226-1.609a2.928,2.928,0,0,0-1.31.541l-.019.012a6.575,6.575,0,0,1-.893.486c-2.315.968-4.294-.786-6.208-2.483-1.7-1.51-3.466-3.071-5.4-2.648-1.409.308-2.331,1.548-3.307,2.862-1.019,1.37-2.072,2.788-3.762,3.135a3.887,3.887,0,0,1-3.245-.813,19.579,19.579,0,0,0-3.89-.1l-.3.012c-2.025.078-4.329,1.278-4.815,3.42-.359,1.584.3,3.332,2.012,5.346a52.419,52.419,0,0,0,5.865,5.6c1.6,1.38,3.261,2.806,4.746,4.359a33.715,33.715,0,0,1,7.8,32.187c-.925,3.133-3.23,8.649-8.276,10.4-.592.206-1.214.353-1.815.5a13.116,13.116,0,0,0-2.521.782c-4.349,2.027-5.031,7.614-5.633,12.543l-.066.54a45.044,45.044,0,0,1-9.122,22.78,32.514,32.514,0,0,1-20.958,12.2c-1.122.138-2.273.211-3.385.281a30.3,30.3,0,0,0-6.225.828c-2.276.634-5.011,2.206-6.169,4.7a10.251,10.251,0,0,0-.109,1.3,9.308,9.308,0,0,0,2.488,6.678,20.511,20.511,0,0,0,6.253,3.826c3.039,1.4,6.181,2.849,7.677,5.887a8.1,8.1,0,0,1,.436,5.7,10.121,10.121,0,0,1-3.089,4.943c-2.631,2.286-6.485,3.433-10.854,3.227-.949-.045-1.908-.147-2.836-.247a22.769,22.769,0,0,0-5.581-.141c-2.607.372-5.429,2.128-5.78,4.765a9.13,9.13,0,0,0,0,1.764,6.545,6.545,0,0,1-.222,2.756c-.945,2.516-3.81,2.757-6.581,2.989-2.64.222-5.133.431-6.1,2.4a2.983,2.983,0,0,0-.085,2.447c.691,1.834,2.852,3.427,4.688,4.192a31.513,31.513,0,0,0,22.049.726q.656-.23,1.318-.444a33.15,33.15,0,0,1-18.651-1.719,3.966,3.966,0,0,1-2.145-1.538,2.221,2.221,0,0,1-.154-1.751,4.5,4.5,0,0,1,2.19-2.486,15.231,15.231,0,0,1,3.22-1.11,21.29,21.29,0,0,0,2.347-.715c1.653-.647,3.566-2.125,3.516-4.161a6.364,6.364,0,0,0-.084-.777,3.769,3.769,0,0,1-.043-1.3c.306-1.527,2.064-2.133,5.222-1.8a28.187,28.187,0,0,0,9.114-.708,20.592,20.592,0,0,0,10.284-6.232,17.52,17.52,0,0,0,4.06-7.379c1.05-4.314-.288-8.816-3.329-11.2A18.052,18.052,0,0,0,136.2,166.8c-2.164-.731-4.4-1.488-6.059-3.077-.849-.815-1.642-2.184-1.082-3.361a3.242,3.242,0,0,1,1.3-1.264c3.649-2.265,8.094-2.265,12.393-2.265,3.644,0,7.413,0,10.753-1.352,4.939-2,8.333-6.723,11.061-10.519,3.691-5.136,7.874-10.958,9.071-17.686.153-.861.259-1.748.36-2.605a23.839,23.839,0,0,1,.931-4.893c.721-2.116,2.532-4.693,5.264-4.994a9.44,9.44,0,0,1,2.151.092c.332.04.675.081,1.011.1A10.312,10.312,0,0,0,193.91,104.84a19.938,19.938,0,0,0-.5-3.453,25.072,25.072,0,0,1-.466-2.783c-.292-3.226.689-6.4,1.639-9.479a27.8,27.8,0,0,0,1.7-8.611c-.159-8-6.731-13.613-13.087-19.046-1.291-1.1-2.626-2.245-3.86-3.371-.929-.847-3.839-3.8-2.3-6.259.829-1.32,2.5-1.663,4.12-2,1.757-.36,3.417-.7,4.048-2.193a5.326,5.326,0,0,0,.252-2.149,3.786,3.786,0,0,1,.573-2.62,1.858,1.858,0,0,1,1.465-.677,2.392,2.392,0,0,1,.288.018,4.894,4.894,0,0,1,3.35,2.624c.185.373.362.775.533,1.163.723,1.637,1.47,3.329,3.1,3.833a5.846,5.846,0,0,0,2.4.047c.257-.03.523-.061.783-.081,2.917-.222,5.691.851,8.481,3.279a29.635,29.635,0,0,1,4.174,4.632A125.832,125.832,0,0,0,201.577,43.609Zm9.355,14.724c-3.311-4.562-7.6-8.845-12.983-8.435-.258.02-.523.051-.779.081a5.9,5.9,0,0,1-2.442-.05c-1.666-.516-2.422-2.228-3.153-3.882-.171-.388-.348-.789-.532-1.16a4.8,4.8,0,0,0-3.281-2.575,1.808,1.808,0,0,0-1.673.628,3.669,3.669,0,0,0-.552,2.56,5.386,5.386,0,0,1-.259,2.186c-.649,1.535-2.41,1.9-4.113,2.245-1.6.328-3.253.667-4.061,1.955-1.5,2.4,1.367,5.31,2.282,6.145,1.233,1.125,2.568,2.266,3.858,3.369,6.371,5.446,12.959,11.077,13.119,19.113a27.874,27.874,0,0,1-1.7,8.64c-.947,3.066-1.925,6.236-1.635,9.444a24.99,24.99,0,0,0,.464,2.773,20,20,0,0,1,.507,3.468,10.4,10.4,0,0,1-10.659,10.231c-.339-.023-.683-.065-1.016-.1a9.424,9.424,0,0,0-2.131-.092c-2.69.3-4.477,2.844-5.189,4.934a23.767,23.767,0,0,0-.927,4.874c-.1.859-.207,1.747-.361,2.61-1.2,6.747-5.39,12.578-9.086,17.722-2.734,3.805-6.137,8.541-11.1,10.55-3.356,1.358-7.133,1.358-10.786,1.359-4.286,0-8.718,0-12.345,2.252a3.161,3.161,0,0,0-1.263,1.226c-.54,1.134.235,2.464,1.062,3.258,1.643,1.576,3.871,2.329,6.026,3.057a18.119,18.119,0,0,1,5.511,2.578c3.068,2.409,4.419,6.948,3.361,11.3a17.6,17.6,0,0,1-4.08,7.417,20.679,20.679,0,0,1-10.33,6.26,28.277,28.277,0,0,1-9.145.71c-3.105-.327-4.829.255-5.125,1.729a3.71,3.71,0,0,0,.044,1.268,6.426,6.426,0,0,1,.085.788c.051,2.082-1.893,3.589-3.573,4.247a21.365,21.365,0,0,1-2.357.718,15.18,15.18,0,0,0-3.2,1.1,4.4,4.4,0,0,0-2.146,2.433,2.133,2.133,0,0,0,.147,1.682,3.893,3.893,0,0,0,2.1,1.5,33.058,33.058,0,0,0,19.505,1.523,55.831,55.831,0,0,1,9.666-2.039l1.051-.123a30.679,30.679,0,0,0,9.433-2.134c.331-.145,1.393-.693,2.658-1.356-5.408-1.536-15.4-1.469-19.617.191-.666.262-1.324.584-1.96.895a16.113,16.113,0,0,1-3.34,1.334,8.194,8.194,0,0,1-6.259-1.133,2.162,2.162,0,0,1-.306-3.383c3.533-3.342,8.923-4.217,14.136-5.063,5.827-.945,11.852-1.923,15.412-6.32a13.822,13.822,0,0,0,1.574-2.475,3.582,3.582,0,1,1,2.609-6.526,22.288,22.288,0,0,1,1.081-2.313c.307-.562.642-1.129,1-1.729,1.8-3.053,3.84-6.514,1.879-9.262a8.25,8.25,0,0,0-2.044-1.814,8.233,8.233,0,0,1-2.079-1.855,4.176,4.176,0,0,1-.525-3.709,8.869,8.869,0,0,1,5.007-5.207,29.968,29.968,0,0,1,4.294-1.242,18.32,18.32,0,0,0,6.453-2.406c2.795-1.959,4.178-5.215,5.517-8.364a24.559,24.559,0,0,1,4.022-7.149,23.8,23.8,0,0,1,1.968-1.847,17.191,17.191,0,0,0,2.576-2.582,17.125,17.125,0,0,0,2.322-5.308,26.983,26.983,0,0,1,1.316-3.633,8.036,8.036,0,0,1,4.547-4.133,3.912,3.912,0,0,1,3.234.35,7.7,7.7,0,0,1,2.491,3.2,6.98,6.98,0,0,0,2.657,3.247,3.574,3.574,0,0,0,2.822.16,7.787,7.787,0,0,0,4.128-3.845,14.815,14.815,0,0,0,.068-12.94c-.35-.712-.765-1.41-1.167-2.084a16.767,16.767,0,0,1-1.829-3.745c-1.085-3.671.437-7.361,1.909-10.93a38,38,0,0,0,1.935-5.455,17.19,17.19,0,0,0-3.818-15.24c-.612-.687-1.293-1.337-1.951-1.966A19.454,19.454,0,0,1,196.67,68.4c-1.329-2.133-1.679-5.331.291-7.058a3.983,3.983,0,0,1,2.7-.978,6.109,6.109,0,0,1,1.729.269,11.158,11.158,0,0,1,4.331,2.624,27.6,27.6,0,0,1,8.025,14.97c.176.986.312,2.024.443,3.028.492,3.766,1,7.66,3.744,10.148a15.487,15.487,0,0,0,3.412,2.144c.721.37,1.466.752,2.157,1.194l.182.121A118.885,118.885,0,0,0,210.933,58.333Zm-60.8,125.458a3.045,3.045,0,1,0,3.045,3.045A3.049,3.049,0,0,0,150.132,183.791ZM223.7,94.98c-.083-.057-.166-.113-.251-.168-.687-.439-1.43-.821-2.149-1.19a15.551,15.551,0,0,1-3.432-2.158c-2.766-2.51-3.278-6.421-3.772-10.2-.131-1-.267-2.04-.442-3.023a27.51,27.51,0,0,0-8-14.921,11.069,11.069,0,0,0-4.3-2.6,4.4,4.4,0,0,0-4.344.69c-1.933,1.694-1.584,4.841-.275,6.943a19.385,19.385,0,0,0,3.2,3.615c.659.63,1.341,1.282,1.956,1.972a17.281,17.281,0,0,1,3.838,15.32,38.123,38.123,0,0,1-1.939,5.468c-1.533,3.718-2.982,7.23-1.905,10.87a16.714,16.714,0,0,0,1.82,3.725c.4.676.819,1.375,1.171,2.091a14.907,14.907,0,0,1-.068,13.02,7.88,7.88,0,0,1-4.18,3.89,3.662,3.662,0,0,1-2.891-.166,7.045,7.045,0,0,1-2.7-3.285,7.641,7.641,0,0,0-2.459-3.162,3.824,3.824,0,0,0-3.162-.341,7.945,7.945,0,0,0-4.492,4.085,26.947,26.947,0,0,0-1.311,3.621,17.189,17.189,0,0,1-2.336,5.335A17.254,17.254,0,0,1,178.7,137a23.724,23.724,0,0,0-1.961,1.84,24.488,24.488,0,0,0-4.006,7.124c-1.343,3.161-2.732,6.429-5.548,8.4a18.375,18.375,0,0,1-6.483,2.419,29.893,29.893,0,0,0-4.282,1.238,8.774,8.774,0,0,0-4.955,5.149,4.09,4.09,0,0,0,.512,3.632,8.169,8.169,0,0,0,2.058,1.833,8.326,8.326,0,0,1,2.065,1.835c2,2.8-.061,6.283-1.875,9.36-.353.6-.687,1.165-.994,1.726a22.359,22.359,0,0,0-1.083,2.32,3.581,3.581,0,0,1-2.593,6.492,13.92,13.92,0,0,1-1.6,2.515c-3.582,4.424-9.624,5.4-15.467,6.353-5.2.843-10.576,1.716-14.089,5.039a2.072,2.072,0,0,0,.293,3.243,8.214,8.214,0,0,0,6.19,1.121,16.045,16.045,0,0,0,3.32-1.327c.638-.312,1.3-.634,1.967-.9a30.063,30.063,0,0,1,9.659-1.311,37.575,37.575,0,0,1,10.106,1.143c2.049-1.075,4.58-2.424,5.412-2.856l.105-.06c1.025-.582,2.072-1.177,3.13-1.758-2.046-.035-3.524-.085-4.049-2.25-.513-2.122,1.351-3.993,2.8-5.215,3.909-3.3,7.364-6.914,6.192-10.974a11.5,11.5,0,0,0-.645-1.6,4.93,4.93,0,0,1-.4-4.686c.1-.322.21-.655.287-.986a12.573,12.573,0,0,0-.319-5.339,22.821,22.821,0,0,1-.49-3.156,6.477,6.477,0,0,1,2.022-5.085,2.991,2.991,0,0,1,2.693-.7c1.588.38,2.39,1.8,3.239,3.3a9.089,9.089,0,0,0,2.176,2.895,4.228,4.228,0,0,0,3.574.661,7.013,7.013,0,0,0,4.484-3.531c1.25-2.456,1.294-5.317,1.336-8.083.008-.509.016-1.035.031-1.547a18.807,18.807,0,0,1,.666-4.749,11.623,11.623,0,0,1-1.063-13.052,11.29,11.29,0,0,1,7.487-5.519,10.453,10.453,0,0,1,2.111-.216,10.768,10.768,0,0,1,6.512,2.244,17.359,17.359,0,0,1,2.213,1.977c3.539.928,8.06-1.27,9.992-4.989,2.226-4.282,1.723-9.385.847-14.263q-.122-.681-.25-1.367c-.8-4.338-1.626-8.824-.526-13.1a4.723,4.723,0,0,1,1.761-2.965,2.929,2.929,0,0,1,1.639-.475,5.4,5.4,0,0,1,3.864,2,10.474,10.474,0,0,1,2.3,6.818,41.291,41.291,0,0,1-.933,7.889c-.914,5.016-1.86,10.2.761,14.264a18.567,18.567,0,0,0,2.468,2.871c.463.469.937.952,1.381,1.456a92,92,0,0,0,1.818-10.41A102.06,102.06,0,0,0,223.7,94.98Z" transform="translate(0)" fill="#fff"/>
      <path id="Контур_41392" data-name="Контур 41392" d="M8.4,3.132a3.418,3.418,0,0,1-1.871.485C4.66,3.77,2.1,3.979.38,9.675a.1.1,0,0,1-.2-.011C-.007,8.6-.743,3.159,3.108.913A6.019,6.019,0,0,1,6.092,0a3.979,3.979,0,0,1,.5.031A2.847,2.847,0,0,1,8.622,1.162,1.394,1.394,0,0,1,8.4,3.132Zm.144-1.92c-.659-.97-2.64-1.83-5.4-.223C-.647,3.206.083,8.592.268,9.649A.012.012,0,0,0,.28,9.66h0a.013.013,0,0,0,.013-.01h0C2.027,3.9,4.627,3.683,6.525,3.528a3.363,3.363,0,0,0,1.824-.466A1.294,1.294,0,0,0,8.548,1.212Z" transform="translate(160.748 37.026)" fill="#fff"/>
      <path id="Контур_41393" data-name="Контур 41393" d="M8.674,3.111a7.208,7.208,0,0,1-2.7.916C4.021,4.4,2,4.794.33,8.842a.168.168,0,0,1-.192.1A.168.168,0,0,1,0,8.777C-.006,7.109.3,3.013,3.259,1.009A5.727,5.727,0,0,1,6.468,0,4.454,4.454,0,0,1,8.412.415,1.772,1.772,0,0,1,9.547,1.77C9.567,2.108,9.433,2.616,8.674,3.111Zm.784-1.335A1.687,1.687,0,0,0,8.372.5a5.226,5.226,0,0,0-5.063.588C.386,3.063.084,7.123.09,8.777a.078.078,0,0,0,.066.08H.172a.079.079,0,0,0,.075-.051C1.94,4.715,3.981,4.321,5.955,3.939a7.043,7.043,0,0,0,2.67-.9A1.482,1.482,0,0,0,9.457,1.775Z" transform="translate(164.291 97.257)" fill="#fff"/>
      <path id="Контур_41394" data-name="Контур 41394" d="M8.048,6.152a1.638,1.638,0,0,0,.047.5c.018.092.036.187.048.284a1.983,1.983,0,0,1-.589,1.611,1.985,1.985,0,0,1-1.595.631c-.061-.006-.122-.014-.184-.023a1.342,1.342,0,0,0-.382-.019,1.335,1.335,0,0,0-.613.374c-.085.074-.173.151-.267.219a2.1,2.1,0,0,1-1.974.257A2.106,2.106,0,0,1,1.312,8.615a.812.812,0,0,0-.117-.249l-.037-.052A.845.845,0,0,0,.933,8.1,2.15,2.15,0,0,1,.191,5.457C.254,5.328.329,5.2.4,5.084a1.375,1.375,0,0,0,.3-.817A1.384,1.384,0,0,0,.488,3.76a1.6,1.6,0,0,1-.262-.678c-.046-.607.443-.945.914-1.272a2.116,2.116,0,0,0,.809-.791A1.77,1.77,0,0,0,2.008.844,1.547,1.547,0,0,1,2.114.558,1.178,1.178,0,0,1,3.209,0a1.861,1.861,0,0,1,.344.032A5.073,5.073,0,0,1,4.15.2,3.348,3.348,0,0,0,4.9.379,3.689,3.689,0,0,0,5.526.355,1.977,1.977,0,0,1,6.8.513a1.943,1.943,0,0,1,.729,1.405,3.123,3.123,0,0,0,.295.928,3.065,3.065,0,0,0,.4.493,1.707,1.707,0,0,1,.594,1.094,1.726,1.726,0,0,1-.409,1A1.707,1.707,0,0,0,8.048,6.152Zm-.1-2.57a3.383,3.383,0,0,1-.44-.554,3.4,3.4,0,0,1-.337-1.036A1.665,1.665,0,0,0,6.608.819,1.694,1.694,0,0,0,5.56.711a4.03,4.03,0,0,1-.686.025,3.67,3.67,0,0,1-.834-.2A4.645,4.645,0,0,0,3.485.384.98.98,0,0,0,2.432.722a1.3,1.3,0,0,0-.08.223,2.129,2.129,0,0,1-.071.21,2.366,2.366,0,0,1-.937.948C.92,2.4.553,2.652.583,3.055A1.311,1.311,0,0,0,.8,3.58a1.67,1.67,0,0,1,.26.646,1.65,1.65,0,0,1-.35,1.044c-.072.118-.14.229-.194.342A1.8,1.8,0,0,0,1.131,7.8a1.2,1.2,0,0,1,.318.3l.038.053a1.153,1.153,0,0,1,.17.36,1.742,1.742,0,0,0,1.015,1.13A1.736,1.736,0,0,0,4.3,9.436c.081-.06.16-.128.244-.2a1.613,1.613,0,0,1,.792-.458,1.609,1.609,0,0,1,.488.018c.056.008.112.016.167.021A1.738,1.738,0,0,0,7.788,6.974c-.01-.084-.027-.169-.044-.258a1.945,1.945,0,0,1-.052-.606A2.009,2.009,0,0,1,8.1,5.228a1.449,1.449,0,0,0,.347-.788A1.431,1.431,0,0,0,7.95,3.581Z" transform="translate(186.537 139.404)" fill="#fff"/>
      <path id="Контур_41395" data-name="Контур 41395" d="M2.993,2.844c-.035.015-.071.028-.107.041a.734.734,0,0,0-.2.1.723.723,0,0,0-.21.395,1.4,1.4,0,0,1-.116.3.892.892,0,0,1-.967.347A1.517,1.517,0,0,1,.9,3.8,1.94,1.94,0,0,1,.3,3.155l-.238-.4A.7.7,0,0,1,.2,2a1.013,1.013,0,0,0,.173-.92A.834.834,0,0,1,.63.155.847.847,0,0,1,1.129,0a1.035,1.035,0,0,1,.257.033A1.078,1.078,0,0,1,2.093.6c.019.039.035.079.051.12a.722.722,0,0,0,.179.3.717.717,0,0,0,.359.121c.063.01.128.02.19.037a.909.909,0,0,1,.653.791A.908.908,0,0,1,2.993,2.844Zm.444-.869a.816.816,0,0,0-.587-.71,1.724,1.724,0,0,0-.181-.035.794.794,0,0,1-.4-.141A.8.8,0,0,1,2.062.754C2.046.715,2.03.676,2.013.639A1,1,0,0,0,1.363.12a.8.8,0,0,0-.68.107.759.759,0,0,0-.228.825,1.1,1.1,0,0,1-.187,1,.607.607,0,0,0-.13.656l.236.4a1.858,1.858,0,0,0,.579.62,1.429,1.429,0,0,0,.457.2.925.925,0,0,0,.212.024.742.742,0,0,0,.657-.329,1.337,1.337,0,0,0,.108-.281.8.8,0,0,1,.242-.44A.809.809,0,0,1,2.856,2.8c.034-.012.068-.024.1-.038A.815.815,0,0,0,3.436,1.974Z" transform="translate(189.151 142.615)" fill="#fff"/>
      <path id="Контур_41396" data-name="Контур 41396" d="M12.934,14.351a1.525,1.525,0,0,1-.386.228l-.124.051a1.38,1.38,0,0,0-.509.379,1.35,1.35,0,0,1-1.142.355,4.647,4.647,0,0,1-.581-.122,3,3,0,0,0-.773-.128,2.929,2.929,0,0,0-1.553.684,5.249,5.249,0,0,1-1.07.616A3.065,3.065,0,0,1,3.78,15.78a4.948,4.948,0,0,1-1.5-2.736c-.068-.319-.116-.647-.162-.965a6.04,6.04,0,0,0-.535-2.037,6.159,6.159,0,0,0-.535-.788,7.517,7.517,0,0,1-.474-.675C-.554,6.7.17,4.3,1.132,2.818A5.539,5.539,0,0,1,5.555,0H5.64A8,8,0,0,1,7.868.49a5.072,5.072,0,0,0,2.905.365A5.262,5.262,0,0,0,11.5.571,4.092,4.092,0,0,1,12.532.217a2.208,2.208,0,0,1,1.727.509,3.023,3.023,0,0,1,1.1,2.1,6.919,6.919,0,0,1-.126,1.491,4.293,4.293,0,0,0-.012,2.006,4.353,4.353,0,0,0,.376.785c.1.182.208.369.295.565a4.386,4.386,0,0,1-.392,3.912A10.426,10.426,0,0,1,12.934,14.351ZM15.649,7.78c-.082-.184-.184-.366-.283-.542a4.6,4.6,0,0,1-.4-.834,4.56,4.56,0,0,1,0-2.131,6.707,6.707,0,0,0,.123-1.433,2.745,2.745,0,0,0-1-1.905A1.945,1.945,0,0,0,12.574.483a3.824,3.824,0,0,0-.963.334,5.447,5.447,0,0,1-.766.3A5.343,5.343,0,0,1,7.786.746,7.789,7.789,0,0,0,5.634.27H5.555a5.276,5.276,0,0,0-4.2,2.7C.438,4.382-.26,6.668.8,8.441a7.415,7.415,0,0,0,.458.651,6.323,6.323,0,0,1,.557.823,6.339,6.339,0,0,1,.564,2.125c.045.313.092.637.158.947a4.685,4.685,0,0,0,1.414,2.588,2.98,2.98,0,0,0,1.912.734,2.346,2.346,0,0,0,.834-.148,5.052,5.052,0,0,0,1.014-.586,3.169,3.169,0,0,1,1.7-.73,3.238,3.238,0,0,1,.843.137,4.353,4.353,0,0,0,.548.116,1.087,1.087,0,0,0,.908-.265,1.644,1.644,0,0,1,.61-.451l.125-.051a1.242,1.242,0,0,0,.318-.187,10.187,10.187,0,0,0,2.505-2.694A4.12,4.12,0,0,0,15.649,7.78Z" transform="translate(182.356 136.062)" fill="#fff"/>
      <path id="Контур_41397" data-name="Контур 41397" d="M3.493,0A3.493,3.493,0,1,1,0,3.493,3.5,3.5,0,0,1,3.493,0Zm0,6.628A3.135,3.135,0,1,0,.358,3.493,3.138,3.138,0,0,0,3.493,6.628Z" transform="translate(201.722 182.716)" fill="#fff"/>
      <path id="Контур_41398" data-name="Контур 41398" d="M3.493,6.986A3.493,3.493,0,1,1,6.986,3.493,3.5,3.5,0,0,1,3.493,6.986Zm0-6.628A3.135,3.135,0,1,0,6.628,3.493,3.138,3.138,0,0,0,3.493.358Z" transform="translate(50.624 3.227)" fill="#fff"/>
      <path id="Контур_41399" data-name="Контур 41399" d="M3.493,0A3.493,3.493,0,1,1,0,3.493,3.5,3.5,0,0,1,3.493,0Zm0,6.628A3.135,3.135,0,1,0,.358,3.493,3.138,3.138,0,0,0,3.493,6.628Z" transform="translate(93.258 96.554)" fill="#fff"/>
      <path id="Контур_41400" data-name="Контур 41400" d="M3.493,0A3.493,3.493,0,1,1,0,3.493,3.5,3.5,0,0,1,3.493,0Zm0,6.628A3.135,3.135,0,1,0,.358,3.493,3.138,3.138,0,0,0,3.493,6.628Z" transform="translate(1.094 180.029)" fill="#fff"/>
      <path id="Контур_41401" data-name="Контур 41401" d="M3.583,7.165A3.583,3.583,0,1,1,7.165,3.583,3.587,3.587,0,0,1,3.583,7.165Zm0-6.628A3.045,3.045,0,1,0,6.628,3.583,3.048,3.048,0,0,0,3.583.537Z" transform="translate(124.964 54.638)" fill="#fff"/>
    </g>
    <ellipse id="Эллипс_18" data-name="Эллипс 18" cx="3.135" cy="3.135" rx="3.135" ry="3.135" transform="matrix(0.615, 0.788, -0.788, 0.615, 205.756, 181.809)"/>
    <path id="Контур_41402" data-name="Контур 41402" d="M3.493,0A3.493,3.493,0,1,1,0,3.493,3.5,3.5,0,0,1,3.493,0Zm0,6.628A3.135,3.135,0,1,0,.358,3.493,3.138,3.138,0,0,0,3.493,6.628Z" transform="translate(93.257 96.554)" fill="#fff"/>
    <ellipse id="Эллипс_19" data-name="Эллипс 19" cx="3.135" cy="3.135" rx="3.135" ry="3.135" transform="translate(93.616 96.913)"/>
    <ellipse id="Эллипс_20" data-name="Эллипс 20" cx="3.135" cy="3.135" rx="3.135" ry="3.135" transform="translate(1.453 180.388)"/>
    <ellipse id="Эллипс_21" data-name="Эллипс 21" cx="3.135" cy="3.135" rx="3.135" ry="3.135" transform="translate(50.982 3.585)"/>
  </g>
</svg>
