<svg xmlns="http://www.w3.org/2000/svg" width="24.292" height="24.293" viewBox="0 0 24.292 24.293">
  <g id="Сгруппировать_76367" data-name="Сгруппировать 76367" transform="translate(0.5 0.5)">
    <path id="Контур_34876" data-name="Контур 34876" d="M314.372,299.025a11.647,11.647,0,0,0,11.647,11.646v-6.612a5.034,5.034,0,0,1-5.035-5.034Z" transform="translate(-314.372 -287.379)" fill="#fff" stroke="#127acc" stroke-width="1"/>
    <path id="Контур_34877" data-name="Контур 34877" d="M320.984,296.367a5.034,5.034,0,0,1,5.035-5.035V284.72a11.647,11.647,0,0,0-11.647,11.647Z" transform="translate(-314.372 -284.72)" fill="#fff" stroke="#127acc" stroke-width="1"/>
    <path id="Контур_34878" data-name="Контур 34878" d="M340.323,296.367a11.645,11.645,0,0,0-11.645-11.647v6.612a5.033,5.033,0,0,1,5.033,5.035Z" transform="translate(-317.031 -284.72)" fill="#fff" stroke="#127acc" stroke-width="1"/>
    <path id="Контур_34879" data-name="Контур 34879" d="M333.711,299.026a5.033,5.033,0,0,1-5.033,5.034v6.612a11.645,11.645,0,0,0,11.645-11.646Z" transform="translate(-317.031 -287.379)" fill="#fff" stroke="#127acc" stroke-width="1"/>
  </g>
</svg>
